<?xml version="1.0" encoding="UTF-8" standalone="no"?>
<!-- Created with Inkscape (http://www.inkscape.org/) -->

<svg
   xmlns:dc="http://purl.org/dc/elements/1.1/"
   xmlns:cc="http://creativecommons.org/ns#"
   xmlns:rdf="http://www.w3.org/1999/02/22-rdf-syntax-ns#"
   xmlns:svg="http://www.w3.org/2000/svg"
   xmlns="http://www.w3.org/2000/svg"
   xmlns:sodipodi="http://sodipodi.sourceforge.net/DTD/sodipodi-0.dtd"
   xmlns:inkscape="http://www.inkscape.org/namespaces/inkscape"
   width="210mm"
   height="297mm"
   viewBox="0 0 210 297"
   version="1.1"
   id="svg8"
   sodipodi:docname="JokerR.svg"
   inkscape:version="0.92.4 5da689c313, 2019-01-14">
  <defs
     id="defs2" />
  <sodipodi:namedview
     id="base"
     pagecolor="#ffffff"
     bordercolor="#666666"
     borderopacity="1.0"
     inkscape:pageopacity="0.0"
     inkscape:pageshadow="2"
     inkscape:zoom="0.53033009"
     inkscape:cx="-226.93357"
     inkscape:cy="375.57914"
     inkscape:document-units="mm"
     inkscape:current-layer="layer1"
     showgrid="false"
     showguides="true"
     inkscape:guide-bbox="true"
     inkscape:snap-text-baseline="false"
     inkscape:snap-to-guides="true"
     inkscape:window-width="1866"
     inkscape:window-height="1016"
     inkscape:window-x="54"
     inkscape:window-y="30"
     inkscape:window-maximized="1"
     inkscape:snap-nodes="false"
     inkscape:lockguides="false">
    <sodipodi:guide
       position="400.1203,316.30458"
       orientation="1,0"
       id="guide12"
       inkscape:locked="false" />
    <sodipodi:guide
       position="474.95576,250.44938"
       orientation="1,0"
       id="guide20"
       inkscape:locked="false" />
    <inkscape:grid
       type="xygrid"
       id="grid979" />
  </sodipodi:namedview>
  <metadata
     id="metadata5">
    <rdf:RDF>
      <cc:Work
         rdf:about="">
        <dc:format>image/svg+xml</dc:format>
        <dc:type
           rdf:resource="http://purl.org/dc/dcmitype/StillImage" />
        <dc:title></dc:title>
      </cc:Work>
    </rdf:RDF>
  </metadata>
  <g
     inkscape:label="Layer 1"
     inkscape:groupmode="layer"
     id="layer1">
    <rect
       style="fill:none;fill-opacity:1;stroke:#000000;stroke-width:1.12687981;stroke-miterlimit:4;stroke-dasharray:none;stroke-opacity:1"
       id="rect964"
       width="168.87311"
       height="258.87311"
       x="20.563442"
       y="17.563457"
       rx="11.061727"
       ry="11.479745" />
    <text
       xml:space="preserve"
       style="font-style:normal;font-weight:normal;font-size:10.57309151px;line-height:1;font-family:sans-serif;text-align:center;letter-spacing:0px;word-spacing:0px;text-anchor:middle;fill:#ff0000;fill-opacity:1;stroke:none;stroke-width:0.26432729;"
       x="52.435551"
       y="48.93153"
       id="text861"
       transform="scale(0.98362084,1.0166519)"><tspan
         sodipodi:role="line"
         x="52.435551"
         y="48.93153"
         style="font-style:normal;font-variant:normal;font-weight:normal;font-stretch:normal;font-size:17.62182045px;line-height:1;font-family:Times;-inkscape-font-specification:Times;text-align:center;text-anchor:middle;fill:#ff0000;stroke-width:0.26432729;"
         id="tspan27">J</tspan><tspan
         sodipodi:role="line"
         x="52.435551"
         y="66.553352"
         style="font-style:normal;font-variant:normal;font-weight:normal;font-stretch:normal;font-size:17.62182045px;line-height:1;font-family:Times;-inkscape-font-specification:Times;text-align:center;text-anchor:middle;fill:#ff0000;stroke-width:0.26432729;"
         id="tspan37">O</tspan><tspan
         sodipodi:role="line"
         x="52.435551"
         y="84.175171"
         style="font-style:normal;font-variant:normal;font-weight:normal;font-stretch:normal;font-size:17.62182045px;line-height:1;font-family:Times;-inkscape-font-specification:Times;text-align:center;text-anchor:middle;fill:#ff0000;stroke-width:0.26432729;"
         id="tspan39">K</tspan><tspan
         sodipodi:role="line"
         x="52.435551"
         y="101.79699"
         style="font-style:normal;font-variant:normal;font-weight:normal;font-stretch:normal;font-size:17.62182045px;line-height:1;font-family:Times;-inkscape-font-specification:Times;text-align:center;text-anchor:middle;fill:#ff0000;stroke-width:0.26432729;"
         id="tspan41">E</tspan><tspan
         sodipodi:role="line"
         x="52.435551"
         y="119.41881"
         style="font-style:normal;font-variant:normal;font-weight:normal;font-stretch:normal;font-size:17.62182045px;line-height:1;font-family:Times;-inkscape-font-specification:Times;text-align:center;text-anchor:middle;fill:#ff0000;stroke-width:0.26432729;"
         id="tspan43">R</tspan></text>
    <text
       xml:space="preserve"
       style="font-style:normal;font-weight:normal;font-size:10.57309151px;line-height:1.25;font-family:sans-serif;text-align:end;letter-spacing:0px;word-spacing:0px;text-anchor:end;fill:#ff0000;fill-opacity:1;stroke:none;stroke-width:0.26432729;"
       x="-160.53239"
       y="-244.62996"
       id="text861-8"
       transform="scale(-0.98362084,-1.0166519)"><tspan
         sodipodi:role="line"
         id="tspan859-9"
         x="-160.53239"
         y="-244.62996"
         style="font-style:normal;font-variant:normal;font-weight:normal;font-stretch:normal;font-size:17.62182045px;line-height:1;font-family:Times;-inkscape-font-specification:Times;text-align:center;text-anchor:middle;fill:#ff0000;stroke-width:0.26432729;">J</tspan><tspan
         sodipodi:role="line"
         x="-160.53239"
         y="-227.00813"
         style="font-style:normal;font-variant:normal;font-weight:normal;font-stretch:normal;font-size:17.62182045px;line-height:1;font-family:Times;-inkscape-font-specification:Times;text-align:center;text-anchor:middle;fill:#ff0000;stroke-width:0.26432729;"
         id="tspan45">O</tspan><tspan
         sodipodi:role="line"
         x="-160.53239"
         y="-209.38632"
         style="font-style:normal;font-variant:normal;font-weight:normal;font-stretch:normal;font-size:17.62182045px;line-height:1;font-family:Times;-inkscape-font-specification:Times;text-align:center;text-anchor:middle;fill:#ff0000;stroke-width:0.26432729;"
         id="tspan47">K</tspan><tspan
         sodipodi:role="line"
         x="-160.53239"
         y="-191.7645"
         style="font-style:normal;font-variant:normal;font-weight:normal;font-stretch:normal;font-size:17.62182045px;line-height:1;font-family:Times;-inkscape-font-specification:Times;text-align:center;text-anchor:middle;fill:#ff0000;stroke-width:0.26432729;"
         id="tspan49">E</tspan><tspan
         sodipodi:role="line"
         x="-160.53239"
         y="-174.14267"
         style="font-style:normal;font-variant:normal;font-weight:normal;font-stretch:normal;font-size:17.62182045px;line-height:1;font-family:Times;-inkscape-font-specification:Times;text-align:center;text-anchor:middle;fill:#ff0000;stroke-width:0.26432729;"
         id="tspan51">R</tspan></text>
    <path
       style="fill:#ff0000;stroke-width:0.1831"
       d="m 112.50316,220.98335 c -1.52541,-1.01976 -2.33433,-1.72703 -3.02595,-2.64569 -0.29105,-0.38661 -0.7802,-0.75813 -1.16563,-0.88533 -0.64074,-0.21146 -0.66074,-0.24453 -0.56767,-0.93839 0.0903,-0.67336 0.0527,-0.74686 -0.59057,-1.15291 -0.77679,-0.49037 -1.34961,-1.55182 -2.08487,-3.86336 -0.25446,-0.8 -0.72229,-2.0725 -1.03961,-2.82779 -0.31732,-0.75529 -0.7415,-1.84173 -0.94261,-2.41431 -0.55077,-1.5681 -0.76748,-1.6402 -1.2719,-0.42319 -0.25439,0.61377 -0.52048,0.99858 -0.66877,0.96715 -0.25709,-0.0545 -1.547243,-3.07311 -1.785073,-4.17661 -0.29509,-1.36911 -1.03865,-2.92576 -1.44071,-3.01614 -2.0255,-0.4553 -3.37055,-0.64093 -4.644979,-0.64105 -0.828628,-8e-5 -2.558923,-0.1738 -3.8451,-0.38605 -1.88983,-0.31185 -2.830327,-0.36799 -4.901904,-0.29262 l -2.5634,0.0933 -0.82395,0.97873 c -1.821387,2.16352 -3.61894,3.8284 -4.697691,4.35095 -3.483803,1.68758 -14.017024,5.36079 -14.367489,5.01033 -0.08288,-0.0829 -0.02927,-0.38475 0.119143,-0.67081 0.14841,-0.28606 0.269837,-0.55346 0.269837,-0.59422 0,-0.22335 -4.988557,1.53751 -5.096283,1.79888 -0.03357,0.0815 -0.185155,0.14809 -0.336859,0.14809 -0.384674,0 -3.476219,1.07359 -4.362708,1.51503 -1.049138,0.52242 -2.073562,1.3707 -2.386766,1.97637 -0.148551,0.28727 -0.395867,1.06463 -0.54959,1.72748 -0.25227,1.08776 -0.251198,1.34218 0.01099,2.61153 0.275136,1.33202 0.273093,1.41909 -0.03864,1.64704 -0.75921,0.55514 -1.211085,0.0433 -2.385985,-2.70275 -0.446905,-1.04453 -0.508092,-1.41419 -0.500074,-3.02115 0.0078,-1.55678 0.08318,-2.0114 0.503525,-3.03552 0.617076,-1.50342 0.634784,-1.82926 0.07061,-1.29925 -0.892298,0.83827 -1.348559,0.29275 -1.184363,-1.41607 0.06569,-0.68366 0.29915,-1.1894 1.051295,-2.27742 1.043135,-1.50895 1.708192,-2.02502 2.828401,-2.19477 0.393363,-0.0596 0.928931,-0.30432 1.19015,-0.5438 0.261218,-0.23948 0.763325,-0.54337 1.115793,-0.6753 0.352467,-0.13194 1.217615,-0.55036 1.92255,-0.92982 0.704935,-0.37947 1.817267,-0.823 2.47185,-0.98562 1.904217,-0.47308 4.394599,-1.24709 4.392133,-1.36507 -0.0012,-0.0596 -0.289629,-0.29461 -0.64085,-0.52212 -0.35122,-0.22751 -0.638583,-0.52094 -0.638583,-0.65206 0,-0.15474 0.690705,-0.38704 1.968325,-0.66201 2.528998,-0.54428 3.553184,-1.00808 4.85215,-2.1973 1.038131,-0.95041 1.315372,-1.47642 0.778175,-1.47642 -0.428434,0 -0.336479,-0.24193 0.5493,-1.44517 0.828357,-1.12525 0.981746,-1.5484 0.638234,-1.7607 -0.102145,-0.0631 -0.351005,-0.43877 -0.553021,-0.83476 -0.428983,-0.84087 -0.82103,-0.92876 -0.965545,-0.21645 -0.05619,0.27694 -0.499059,0.94228 -0.984162,1.47853 l -0.882006,0.975 -2.65495,0.032 c -2.465172,0.0298 -2.695066,0.003 -3.216161,-0.36828 -0.474083,-0.33818 -0.673068,-0.3751 -1.2817,-0.23782 -0.851161,0.19197 -1.483667,-0.11943 -1.576888,-0.77637 -0.04033,-0.28421 -0.204474,-0.43659 -0.516851,-0.4798 -0.769438,-0.10644 -0.965713,-0.39124 -0.850235,-1.23374 0.16708,-1.21899 0.453986,-1.6777 1.128472,-1.80423 0.330256,-0.062 0.695208,-0.22681 0.811003,-0.36633 0.215489,-0.25965 0.850678,-4.63245 0.695453,-4.78767 -0.04723,-0.0472 -0.767184,0.12935 -1.599896,0.3924 -1.326185,0.41894 -1.547132,0.44517 -1.780895,0.21141 -0.297021,-0.29702 -0.346349,-0.0533 0.931465,-4.60166 0.365548,-1.30115 0.664633,-2.62174 0.664633,-2.93463 0,-0.75696 0.460473,-1.38278 1.017433,-1.38278 0.262708,0 0.447367,-0.10647 0.447367,-0.25794 0,-0.14186 0.279843,-1.23359 0.621874,-2.42607 0.342031,-1.19248 0.718485,-2.74491 0.836564,-3.44984 0.11808,-0.70494 0.617575,-2.51763 1.109988,-4.0282 0.492413,-1.51058 0.9398,-2.95249 0.994193,-3.20425 0.143732,-0.66528 1.721676,-1.72408 5.317731,-3.56821 1.711985,-0.87794 4.060243,-2.10275 5.21835,-2.7218 l 2.10565,-1.12554 -0.7324,-0.0915 c -0.625136,-0.0781 -0.740535,-0.16167 -0.787949,-0.57032 -0.04821,-0.41551 0.03647,-0.50422 0.64085,-0.67133 0.988324,-0.27328 8.783761,-2.98973 10.849071,-3.78054 0.951539,-0.36435 2.105069,-0.89846 2.5634,-1.18692 0.45833,-0.28846 1.075952,-0.64742 1.37249,-0.7977 l 0.539163,-0.27322 -1.820863,-0.86633 c -2.122334,-1.00976 -4.941688,-2.91484 -5.731206,-3.87267 -0.768203,-0.93196 -1.304192,-2.48334 -1.567223,-4.5362 -0.123317,-0.96247 -0.287329,-1.81282 -0.364469,-1.88968 -0.07714,-0.0769 -1.307287,-0.13607 -2.733659,-0.13158 l -2.593405,0.008 -2.10565,2.18237 c -1.158108,1.2003 -2.564738,2.64415 -3.125845,3.20854 -0.561106,0.5644 -1.65864,1.81995 -2.438965,2.79012 l -1.41877,1.76395 0.486685,0.83046 c 0.4127,0.70422 0.487637,1.04898 0.49296,2.26791 0.0036,0.81791 -0.09368,1.62778 -0.225638,1.87908 -0.803163,1.5295 -2.495448,2.7304 -3.847632,2.7304 -0.839514,0 -2.62197,-0.8791 -3.691738,-1.82075 -1.347821,-1.1864 -1.604099,-2.76596 -0.703521,-4.33614 1.028763,-1.79367 2.923137,-2.78123 4.932232,-2.57124 0.580999,0.0607 1.190854,0.16202 1.355235,0.2251 0.227174,0.0872 0.408388,-0.12003 0.755372,-0.86372 0.624599,-1.33869 1.929519,-4.70818 3.009078,-7.76988 0.493869,-1.40064 1.293862,-3.56492 1.777764,-4.80951 1.009469,-2.59634 1.070835,-2.65699 3.832933,-3.78819 1.68888,-0.69166 4.401858,-1.90258 5.21835,-2.32917 0.495033,-0.25864 0.548482,-0.45304 0.908841,-3.30556 0.215717,-1.70759 0.903148,-4.12915 1.512803,-5.32906 0.745971,-1.46821 3.199369,-3.67608 4.580948,-4.12251 0.58837,-0.19013 0.659804,-0.26983 0.503525,-0.56184 -0.584159,-1.09152 -0.06927,-1.37265 2.507582,-1.36913 l 1.68265,0.002 -0.629825,-0.51915 c -1.270008,-1.04686 -0.493645,-1.87603 1.228322,-1.31187 1.626831,0.53298 2.926658,1.2768 4.268451,2.44259 0.70095,0.60901 1.29528,1.08646 1.32074,1.061 0.0254,-0.0255 -0.0733,-0.49563 -0.21945,-1.04483 -0.47502,-1.78495 -0.3056,-2.37179 0.68473,-2.37179 0.37072,0 0.60455,0.14684 0.8331,0.5232 0.78145,1.2868 2.62664,5.16035 2.92198,6.13402 0.359113,1.18393 0.664493,1.42076 0.741763,0.57526 0.0942,-1.03039 0.22033,-1.32946 0.60295,-1.42952 0.53893,-0.14094 1.70287,0.95684 2.12423,2.00348 l 0.33532,0.8329 0.82395,-0.0989 c 0.45317,-0.0544 1.92964,-0.43276 3.28104,-0.84076 3.134,-0.94618 3.87874,-0.95735 5.69602,-0.0854 2.73109,1.31042 5.34902,2.22329 7.00269,2.44185 0.88352,0.11677 1.71774,0.25504 1.85381,0.30725 0.13607,0.0522 0.72487,-0.32289 1.30845,-0.83357 0.76858,-0.67256 1.38588,-1.02883 2.23946,-1.29248 1.38145,-0.42669 1.99743,-0.44819 3.25392,-0.11357 1.3853,0.36893 1.7298,0.61583 2.13389,1.52935 0.44778,1.01227 0.34968,1.91699 -0.34657,3.19622 -0.53905,0.99042 -0.86397,1.24407 -2.14881,1.67746 -2.42481,0.81793 -4.94131,-0.0894 -5.42295,-1.95532 -0.37307,-1.44531 -0.37186,-1.44323 -0.78785,-1.34643 -0.21667,0.0504 -1.13551,0.41624 -2.04185,0.81294 -0.90635,0.39669 -2.34826,0.90996 -3.20425,1.14059 -0.856,0.23064 -1.92713,0.5313 -2.3803,0.66815 -0.45318,0.13685 -1.6891,0.40635 -2.7465,0.59888 -2.43661,0.44366 -2.64152,0.52837 -3.80206,1.57179 -1.04591,0.94037 -1.16019,1.33771 -0.59234,2.05962 0.20141,0.25605 0.3662,0.57544 0.3662,0.70975 0,0.56758 -0.53804,-0.0516 -1.5319,-1.76301 -0.58335,-1.00451 -1.13297,-1.82638 -1.22137,-1.82638 -0.0884,0 -0.39082,0.29848 -0.67205,0.6633 -1.28917,1.67232 -1.14894,1.58543 -2.04614,1.2678 -0.44133,-0.15623 -1.39059,-0.68489 -2.10948,-1.17479 -2.671643,-1.82065 -4.588173,-2.47282 -6.013943,-2.04646 -1.761847,0.52686 -2.923852,1.36825 -3.936066,2.85003 -0.227009,0.33232 -0.65521,1.79302 -1.073511,3.662 l -0.69587,3.10917 -0.06724,4.98911 c -0.07733,5.73839 0.03712,6.47862 1.202198,7.77487 0.751803,0.83645 3.270536,2.13904 5.806109,3.00267 1.32205,0.45031 1.77806,0.50654 4.679413,0.57702 4.104,0.0997 6.34507,-0.13475 9.87704,-1.03329 4.45899,-1.13438 6.00166,-1.83408 7.73597,-3.5088 1.12779,-1.08903 1.29859,-1.63221 0.83394,-2.65201 -0.20764,-0.45571 -0.27587,-0.47647 -1.32747,-0.40388 -0.67028,0.0463 -1.57916,0.28195 -2.29874,0.59609 -1.69816,0.74134 -3.40174,0.75242 -4.63055,0.0301 -0.48235,-0.28353 -1.15582,-0.76031 -1.49659,-1.05951 l -0.61959,-0.54401 -0.60906,0.53135 c -1.8005,1.57075 -4.42886,2.01956 -7.47531,1.27644 -2.719423,-0.66334 -4.888593,-2.89373 -5.680603,-5.84093 -0.11908,-0.4431 -0.29938,-0.85726 -0.40067,-0.92036 -0.120414,-0.075 -0.1017,-0.34282 0.0541,-0.77358 0.30701,-0.84901 0.14499,-0.99007 -0.560346,-0.48782 -0.311488,0.2218 -0.68701,0.35696 -0.834491,0.30037 -0.308987,-0.11857 -0.351896,-0.40722 -0.08505,-0.57214 0.100705,-0.0622 0.1831,-0.19556 0.1831,-0.29626 0,-0.10071 -0.08239,-0.13218 -0.1831,-0.0699 -0.512563,0.31678 -0.0258,-0.3742 1.396417,-1.9823 0.86874,-0.98228 1.53238,-1.8331 1.47476,-1.89071 -0.0576,-0.0576 -0.89542,0.69755 -1.86178,1.67816 -0.966359,0.9806 -1.810423,1.72951 -1.875694,1.66424 -0.118942,-0.11895 0.764997,-1.1064 2.754694,-3.07728 1.04143,-1.03159 1.07408,-1.04806 1.51057,-0.76206 0.24538,0.16077 0.44614,0.34152 0.44614,0.40165 0,0.0601 -0.34674,0.46263 -0.77053,0.89444 -0.79378,0.80881 -0.77162,1.0523 0.0381,0.41891 0.6092,-0.47653 0.9155,-0.45784 0.9155,0.0559 0,0.26743 -0.33542,0.74352 -0.9155,1.29945 -0.78856,0.75572 -1.19839,1.57428 -0.7882,1.57428 0.23115,0 1.1544,-0.97924 1.1544,-1.22441 0,-0.13221 0.0824,-0.24039 0.1831,-0.24039 0.43464,0 0.12085,0.71724 -0.64085,1.4648 -0.55957,0.54917 -0.82395,0.962 -0.82395,1.28659 0,0.60774 0.4916,2.27463 0.91656,3.10781 0.50303,0.98625 1.93573,2.2862 3.26295,2.96061 1.144273,0.58144 1.308763,0.61264 3.532633,0.66991 2.6738,0.0689 3.37606,-0.13253 4.73107,-1.3567 0.65938,-0.59571 0.75614,-0.77404 0.6656,-1.22675 -0.0583,-0.29134 -0.0136,-0.89645 0.0993,-1.3447 0.11287,-0.44825 0.15894,-0.86128 0.10238,-0.91784 -0.0566,-0.0566 -0.68895,0.0149 -1.40529,0.15882 -1.76132,0.35385 -1.98386,-0.10286 -0.27832,-0.5712 1.94043,-0.53283 3.59381,-0.11271 6.23411,1.5841 2.04783,1.31605 2.67505,1.55302 3.71449,1.40336 0.46987,-0.0677 1.12208,-0.23224 1.44937,-0.36576 0.50836,-0.20739 0.59508,-0.33419 0.59508,-0.87018 0,-0.83769 -0.61829,-2.18865 -2.27458,-4.96998 -2.52342,-4.23742 -3.05004,-4.67489 -5.62764,-4.67489 -0.94883,0 -2.17503,0.11681 -2.72489,0.25957 -1.80516,0.4687 -3.6764,0.65884 -4.0985,0.41646 -0.33896,-0.19463 -0.28592,-0.22433 0.48958,-0.27409 0.85187,-0.0547 0.86973,-0.0683 0.86973,-0.66421 0,-0.74154 0.43757,-1.1823 0.88507,-0.89149 0.17574,0.1142 0.29046,0.40079 0.27061,0.676 -0.0411,0.569 0.20576,0.60243 1.51594,0.20534 0.49436,-0.14982 1.64575,-0.32571 2.55867,-0.39084 1.37197,-0.0979 1.77672,-0.063 2.3338,0.20138 0.88166,0.41838 2.43338,2.11598 3.23881,3.54329 0.35246,0.62462 0.92341,1.56695 1.26877,2.09406 0.84739,1.29334 1.83706,3.73748 1.84085,4.54622 0.005,1.10739 -0.44259,1.34523 -2.67015,1.41829 l -1.90337,0.0624 -1.60258,-1.00288 c -2.7332,-1.7104 -3.36848,-1.9161 -3.93284,-1.27341 -0.70441,0.80219 -0.46292,1.97202 0.64587,3.12875 1.44923,1.51188 3.28666,1.70839 5.74329,0.61425 1.26847,-0.56496 2.53456,-0.74797 3.2569,-0.47078 0.43797,0.16806 0.83216,1.05092 0.83216,1.86379 0,0.99736 -0.76621,1.98169 -2.35974,3.03151 -0.71643,0.47199 -1.50851,0.95198 -1.76018,1.06665 -0.94042,0.42849 -0.48554,0.71017 2.02921,1.2566 3.76995,0.81916 4.4589,0.91147 5.33578,0.71496 1.95927,-0.43908 2.64513,-0.94916 5.48316,-4.07783 4.34251,-4.78722 7.98138,-8.18072 8.77224,-8.18072 0.13903,0 0.42593,0.33938 0.63754,0.75418 0.56165,1.10092 0.77364,0.70135 0.75823,-1.42915 -0.0165,-2.2774 0.14731,-2.70557 1.24841,-3.26353 0.93867,-0.47566 1.09495,-0.71104 1.09495,-1.64911 0,-1.30263 0.19181,-1.48482 1.6972,-1.61207 2.13282,-0.18029 2.01757,-0.0358 1.90915,-2.39414 -0.0514,-1.11817 -0.12172,-2.19412 -0.15624,-2.391 -0.0506,-0.28849 0.30824,-0.55771 1.84843,-1.38689 1.05116,-0.5659 1.99167,-1.15649 2.09003,-1.31241 0.13052,-0.20692 -0.0272,-0.7532 -0.58372,-2.02224 -0.41941,-0.9563 -0.76255,-1.8893 -0.76255,-2.07332 0,-0.18402 0.19279,-0.62741 0.42842,-0.98529 0.23564,-0.35788 0.55942,-0.86554 0.71952,-1.12812 0.25131,-0.41217 0.44927,-0.49042 1.44835,-0.5725 0.63649,-0.0523 1.89881,-0.27031 2.80516,-0.48448 6.13513,-1.44977 6.37427,-1.49165 6.72176,-1.17717 0.18017,0.16306 0.32759,0.39316 0.32759,0.51135 0,0.11818 0.25045,0.593 0.55657,1.05515 0.62576,0.94474 0.62307,1.00647 -0.14409,3.29564 -0.26139,0.77999 -0.43063,1.46279 -0.37608,1.51734 0.0546,0.0546 0.85882,0.19271 1.78726,0.30703 1.44144,0.17747 1.72896,0.27023 1.96786,0.63483 0.23391,0.357 0.24461,0.56666 0.0652,1.27905 -0.12363,0.49097 -0.14504,0.89802 -0.0505,0.96052 0.22388,0.14808 -0.0887,21.63588 -0.32368,22.25404 -0.35638,0.93737 -5.07019,3.58332 -7.5638,4.24571 -1.34096,0.35621 -1.82183,0.25323 -1.92223,-0.41165 -0.0462,-0.30579 0.0459,-0.34152 0.73857,-0.28643 0.47613,0.0379 1.26293,-0.093 1.97531,-0.32865 1.44134,-0.4767 5.56153,-2.50686 5.9154,-2.91472 0.35718,-0.41166 0.5835,-7.34407 0.23976,-7.34407 -0.12589,0 -0.30717,0.0781 -0.40284,0.17366 -0.155,0.15474 -2.13444,0.74184 -2.50116,0.74184 -0.0796,0 -0.14463,-0.0765 -0.14463,-0.17011 0,-0.0936 0.46156,-0.30429 1.02568,-0.46828 1.15592,-0.33604 2.26445,-0.98611 2.26785,-1.32994 0.004,-0.3565 -0.40488,-0.27466 -1.57414,0.31546 -1.42885,0.72113 -2.08559,0.87308 -2.08559,0.48257 0,-0.16198 0.11252,-0.2945 0.25005,-0.2945 0.48201,0 2.85538,-1.30625 3.22336,-1.77407 0.43109,-0.54803 0.4967,-1.33863 0.1111,-1.33863 -0.14333,0 -0.88276,0.33559 -1.64318,0.74575 -0.81747,0.44094 -1.5529,0.71725 -1.79928,0.67602 -0.31389,-0.0525 0.0577,-0.30596 1.50585,-1.02714 1.91418,-0.95324 1.92309,-0.96076 2.0463,-1.72884 0.19205,-1.19721 0.17596,-10.56729 -0.0181,-10.56729 -0.093,0 -0.41386,0.20599 -0.71306,0.45775 -0.2992,0.25176 -0.62824,0.45775 -0.73119,0.45775 -0.10295,0 -0.21465,0.0648 -0.24822,0.14411 -0.12433,0.29357 -1.74829,1.10919 -2.99063,1.50201 -1.79849,0.56869 -5.46964,0.68527 -9.32482,0.29614 -1.60398,-0.1619 -2.9841,-0.29436 -3.06693,-0.29436 -0.0828,0 -0.1506,0.78761 -0.1506,1.75025 0,1.9228 0.21716,2.13837 0.54813,0.5441 0.21918,-1.05575 0.24844,-1.07949 1.58673,-1.28722 0.86199,-0.13381 0.86528,-0.12918 1.07306,1.50859 0.14047,1.10722 0.054,1.17767 -1.74312,1.41926 -0.55388,0.0745 -1.15124,0.21119 -1.32748,0.30384 -0.51252,0.26946 -0.37018,0.52257 0.22674,0.40319 0.37432,-0.0749 0.70689,-0.002 1.05282,0.23038 0.27812,0.1869 0.81174,0.48006 1.18583,0.65147 0.77252,0.35396 0.98351,0.87235 0.80626,1.98083 -0.0652,0.40806 -0.0355,0.76118 0.0695,0.82611 0.31964,0.19755 0.1991,1.04006 -0.26119,1.82548 -0.30412,0.51893 -0.39183,0.84238 -0.27746,1.02314 0.30282,0.47862 0.18045,1.09871 -0.30573,1.5493 -0.26322,0.24394 -0.83999,0.99378 -1.2817,1.6663 -0.59812,0.91065 -0.80312,1.4028 -0.80312,1.92803 0,0.68609 0.0177,0.70525 0.65132,0.70525 0.35822,0 1.02367,-0.0938 1.47878,-0.20836 1.18194,-0.29762 1.43175,-0.0134 1.26339,1.43716 -0.0692,0.59609 -0.18826,1.18488 -0.26462,1.30843 -0.0794,0.12845 -0.6025,0.24093 -1.22187,0.26272 l -1.08305,0.0381 v -1.0986 c 0,-1.06236 -0.0166,-1.10051 -0.50353,-1.15654 -0.4981,-0.0573 -0.50354,-0.0465 -0.50482,1.00705 -7.4e-4,0.58574 -0.0525,1.60678 -0.11505,2.26897 -0.11321,1.1984 -0.1113,1.20492 0.41328,1.40764 1.05348,0.4071 3.72321,1.14783 4.54103,1.25992 0.87852,0.12042 0.9805,0.2157 0.61842,0.57779 -0.33003,0.33002 -0.77592,0.27412 -2.79203,-0.35007 -3.0237,-0.93613 -3.49258,-1.14606 -3.45512,-1.54696 0.0183,-0.19531 0.0915,-1.2534 0.16269,-2.35131 l 0.1295,-1.99621 -1.26128,0.14776 c -2.40218,0.28142 -2.35189,0.29429 -2.41732,-0.61861 l -0.0574,-0.80126 -0.53764,0.5151 c -0.30258,0.28989 -0.53764,0.70736 -0.53764,0.95486 0,0.25776 -0.49549,1.09613 -1.19717,2.02562 -0.65844,0.87222 -1.4434,2.12142 -1.74434,2.776 -0.94742,2.06073 -1.17316,2.4705 -1.36134,2.47119 -0.10071,3.6e-4 -0.51268,-0.50067 -0.9155,-1.1134 -0.40282,-0.61273 -0.8148,-1.13976 -0.9155,-1.17118 -0.19736,-0.0616 -1.10184,1.40607 -2.3111,3.75004 -0.41563,0.80564 -0.89559,1.67079 -1.06657,1.92255 -0.17098,0.25176 -0.49762,0.91092 -0.72586,1.4648 -0.7816,1.89672 -1.12642,2.2728 -2.42155,2.64099 -0.64082,0.18218 -1.47577,0.44524 -1.85545,0.58457 -0.37969,0.13934 -1.17393,0.25334 -1.765,0.25334 -1.62506,0 -3.89781,0.49387 -5.85673,1.27267 -0.96714,0.3845 -2.22541,0.79544 -2.79614,0.9132 -0.6658,0.13738 -1.20591,0.38232 -1.50705,0.68346 -0.58149,0.58149 -2.07342,3.6281 -2.85395,5.82792 -0.64932,1.83001 -2.86011,6.45398 -3.76436,7.8733 -1.22003,1.91497 -3.76738,6.72822 -3.68055,6.95447 0.13317,0.34707 2.92939,2.1637 4.61184,2.99621 0.80139,0.39654 2.23982,1.02436 3.19652,1.39515 4.17729,1.61903 4.87465,2.03239 4.48696,2.65968 -0.0718,0.11626 -1.80691,0.18474 -4.68087,0.18474 -2.51168,0 -4.56496,0.0618 -4.56285,0.13732 0.002,0.0755 0.58394,0.92008 1.29293,1.87678 0.70899,0.9567 1.58045,2.35741 1.93658,3.1127 0.35613,0.75529 1.08868,2.27959 1.62789,3.38735 0.53921,1.10775 1.2775,2.71446 1.64064,3.57045 0.36314,0.85599 0.90115,1.98499 1.19557,2.50889 0.59021,1.05021 0.51007,1.2324 -0.46189,1.05006 -0.75924,-0.14243 -0.74976,-0.19189 -0.34961,1.82423 0.601,3.02803 2.61025,9.04669 3.41275,10.22279 0.18773,0.27512 0.85966,0.79009 1.49318,1.14437 1.07909,0.60346 1.25485,0.64396 2.78216,0.64098 0.89667,-0.002 2.20704,-0.12534 2.91194,-0.27465 1.94439,-0.41185 2.10572,-0.386 2.10572,0.33746 0,0.79066 -0.54198,1.29638 -1.8842,1.75817 -0.57352,0.19732 -1.79814,0.69889 -2.72138,1.1146 l -1.67861,0.75584 -2.26154,-0.3161 c -2.0629,-0.28834 -2.84178,-0.26457 -2.32506,0.0709 0.18329,0.11901 0.61719,0.82786 0.61719,1.00828 0,0.0981 -1.74172,0.85854 -1.96634,0.85854 -0.0874,0 -0.74443,-0.39138 -1.45997,-0.86973 z M 64.318018,207.46399 c 0.440657,-0.15971 2.613886,-0.93461 4.829396,-1.722 6.297928,-2.23828 6.735687,-2.4524 8.266013,-4.04323 1.864597,-1.93831 4.767168,-5.45493 6.976683,-8.45263 0.427789,-0.58039 0.871212,-1.05525 0.985384,-1.05525 0.355807,0 0.05631,1.3517 -0.478585,2.15998 -0.273482,0.41326 -0.468408,0.83744 -0.433167,0.94262 0.03524,0.10518 0.537843,-0.0942 1.116897,-0.44311 1.164571,-0.70167 1.380323,-0.64163 0.4594,0.12786 l -0.596725,0.4986 0.982057,0.005 c 0.972666,0.005 0.981169,1.1e-4 0.889185,-0.4986 -0.08348,-0.4526 -1.833587,-6.53113 -2.065945,-7.1755 -0.06467,-0.17934 -0.284799,0.003 -0.689419,0.57259 -0.326927,0.45982 -1.176295,1.52593 -1.887485,2.36912 -1.519957,1.80206 -2.946914,3.72357 -4.267574,5.74662 -0.922606,1.41329 -1.204047,1.72854 -1.548388,1.73439 -0.09631,0.002 -0.122948,-2.01668 -0.06401,-4.84934 0.0614,-2.95085 0.03405,-4.85215 -0.06979,-4.85215 -0.408127,0 -1.506556,0.5869 -2.841249,1.51811 -0.790619,0.55161 -2.19083,1.37964 -3.111583,1.84006 -1.674891,0.83753 -2.445654,1.51812 -2.445654,2.15952 0,0.55473 0.419852,0.39572 1.286356,-0.48719 0.946516,-0.96443 2.150074,-1.8382 2.310713,-1.67757 0.06135,0.0614 -0.401893,0.61706 -1.029421,1.23492 -1.120535,1.10328 -1.193488,1.33984 -0.461998,1.49816 0.246161,0.0533 0.126121,0.12295 -0.3662,0.21253 -0.924377,0.1682 -1.55635,0.42237 -1.55635,0.62594 0,0.2199 0.846248,0.58262 1.359281,0.58262 0.306766,0 0.910802,-0.52704 2.150971,-1.87678 0.948433,-1.03222 2.05033,-2.28131 2.448661,-2.77575 0.523495,-0.64981 0.740762,-0.81415 0.783856,-0.5929 0.112209,0.57607 -4.097434,5.36632 -5.253197,5.97774 -1.25516,0.664 -1.253684,0.66173 -0.766911,1.17987 0.605092,0.64409 0.336182,0.80439 -0.362776,0.21625 -0.314095,-0.26429 -0.632949,-0.48053 -0.708566,-0.48053 -0.07561,0 -0.640112,0.20423 -1.254435,0.45386 -1.309251,0.53199 -2.608184,0.85138 -2.608184,0.6413 0,-0.12775 2.023905,-0.97278 3.250025,-1.35696 0.495882,-0.15537 0.512684,-0.30645 0.09155,-0.82322 l -0.320425,-0.39319 -1.726519,0.7391 c -1.935994,0.82878 -2.027031,0.84964 -2.027031,0.46446 0,-0.15106 0.08656,-0.27465 0.192365,-0.27465 0.492697,0 3.103435,-1.177 3.103435,-1.39913 0,-0.32684 0.02863,-0.33341 -1.311034,0.30054 -0.63845,0.30212 -1.449199,0.59724 -1.801666,0.65582 -1.150926,0.19129 -2.5634,0.63246 -2.5634,0.80064 0,0.0905 0.453172,0.42383 1.00705,0.74073 0.553878,0.31689 1.00705,0.65248 1.00705,0.74574 0,0.0932 -0.62809,0.4786 -1.395756,0.85632 -0.767666,0.37772 -1.406227,0.76914 -1.419025,0.86982 -0.0128,0.10069 0.738026,0.55385 1.668497,1.00702 0.930471,0.45317 1.665175,0.9063 1.632674,1.00695 -0.0325,0.10065 -0.667736,0.59502 -1.411633,1.0986 l -1.352542,0.9156 1.599605,0.10977 c 0.879782,0.0604 1.65154,0.1617 1.715016,0.22518 0.09816,0.0982 -0.106182,0.73092 -0.763988,2.36577 -0.157194,0.39068 -0.147466,0.39102 0.848506,0.03 z m 0.751424,-1.79257 c 0.174036,-0.13218 1.368764,-0.59522 2.65495,-1.02899 3.414949,-1.1517 5.881617,-2.14983 6.869595,-2.77977 1.213721,-0.77387 2.913497,-2.64907 6.39063,-7.05017 1.646644,-2.0842 3.213674,-4.0416 3.482291,-4.34978 0.554124,-0.63574 0.902055,-0.52735 0.462179,0.14399 -0.87619,1.33723 -8.178478,10.20893 -9.141257,11.10589 -0.202701,0.18885 -0.931495,0.63377 -1.619543,0.98872 -0.68805,0.35495 -1.398864,0.73018 -1.579585,0.83383 -0.614601,0.3525 -6.918026,2.3877 -7.377938,2.38213 -0.416754,-0.005 -0.429412,-0.0271 -0.141322,-0.24585 z m -2.238978,-1.31014 c 0,-0.15422 0.144191,-0.32805 0.320425,-0.38629 0.176234,-0.0583 1.72114,-0.64358 3.433125,-1.30076 4.345249,-1.66799 6.821162,-2.95843 8.261666,-4.30595 1.417121,-1.32564 1.583165,-0.96319 0.201491,0.43983 -0.761532,0.77329 -1.509001,1.24904 -3.524675,2.2434 -1.407001,0.69409 -3.25854,1.53015 -4.114532,1.85792 -0.855993,0.32777 -2.200159,0.85161 -2.987037,1.1641 -1.666692,0.66187 -1.590463,0.64808 -1.590463,0.28775 z m -0.686625,-3.1271 c -0.507251,-0.22588 -0.166258,-0.40116 1.00705,-0.51764 1.776877,-0.1764 3.795604,-0.72349 5.949496,-1.61234 1.589899,-0.6561 2.046578,-0.94399 2.976629,-1.8764 0.60423,-0.60577 1.633036,-1.8255 2.286234,-2.71051 0.6532,-0.885 1.216692,-1.52193 1.252205,-1.41539 0.122957,0.36886 -1.225589,2.31924 -3.080689,4.45553 -0.768313,0.88477 -2.664295,1.82128 -5.794683,2.86227 -2.046703,0.68061 -4.085528,1.0419 -4.596242,0.81448 z m 39.708931,3.0413 c 0.2264,-0.40282 0.53753,-0.7324 0.69141,-0.7324 0.15387,0 0.63273,0.3464 1.06412,0.76978 0.90876,0.89188 1.08264,0.82727 1.42571,-0.52976 0.29258,-1.15728 0.71878,-1.23282 1.74168,-0.30869 0.85719,0.77442 0.98711,0.70983 1.18165,-0.5875 0.17099,-1.14022 0.48559,-1.31744 1.27284,-0.71698 0.76088,0.58035 1.04796,0.47212 0.99101,-0.37361 -0.0525,-0.78012 0.0433,-0.87295 0.65955,-0.63867 0.71694,0.27259 1.38673,0.23606 1.38673,-0.0756 0,-0.14511 -0.0755,-0.31053 -0.16789,-0.3676 -0.0923,-0.0571 -0.55547,-0.78288 -1.02919,-1.61293 -0.47372,-0.83004 -1.29527,-2.20953 -1.82567,-3.06552 -1.12893,-1.82193 -1.3462,-2.3803 -0.92624,-2.3803 0.15784,0 0.28699,0.1092 0.28699,0.24268 0,0.21708 1.44879,2.68388 2.86229,4.87352 0.58473,0.9058 0.98281,1.147 0.98281,0.59551 0,-0.49418 -2.61489,-5.73242 -3.04286,-6.09557 -0.18947,-0.16077 -1.25084,-0.77077 -2.35859,-1.35556 -1.10776,-0.58478 -2.59087,-1.45446 -3.2958,-1.93263 -1.44934,-0.98309 -2.61911,-1.36833 -2.39495,-0.78871 0.13196,0.34118 0.29634,1.10653 0.64349,2.99596 0.76639,4.17124 1.45885,6.22076 2.58581,7.65345 0.25922,0.32956 0.30457,0.5187 0.16474,0.68718 -0.13445,0.162 -0.13473,0.26843 -9.1e-4,0.35112 0.10559,0.0653 0.19199,0.28868 0.19199,0.49647 0,0.31584 -0.0453,0.34025 -0.2759,0.14884 -0.15175,-0.12594 -0.37915,-0.44501 -0.50534,-0.70905 -0.15465,-0.32359 -0.45217,-0.53523 -0.91282,-0.64933 -0.8589,-0.21274 -1.05064,-0.0399 -0.4833,0.43562 0.34689,0.29076 0.38641,0.40105 0.19013,0.53059 -0.19015,0.1255 -0.20079,0.25133 -0.0458,0.54098 0.26493,0.49502 0.25511,0.58463 -0.0641,0.58463 -0.14635,0 -0.42698,-0.36373 -0.62363,-0.80829 -0.19665,-0.44456 -0.53714,-0.90441 -0.75665,-1.02189 -0.64524,-0.34532 -0.66266,-0.0421 -0.0348,0.60571 1.08897,1.12353 0.58414,1.20482 -0.61543,0.0991 -0.901263,-0.83076 -1.171573,-0.84353 -0.76253,-0.036 0.14502,0.28629 0.32091,0.85012 0.39085,1.25294 0.18537,1.06747 0.69898,2.65495 0.85899,2.65495 0.0759,0 0.32318,-0.32958 0.54958,-0.7324 z m 5.17163,-3.61623 c -0.18782,-0.27694 -0.67513,-1.16268 -1.08292,-1.96832 -0.40778,-0.80564 -1.17951,-2.27232 -1.71494,-3.25928 -0.53542,-0.98696 -0.92136,-1.84662 -0.85764,-1.91034 0.0637,-0.0637 0.19005,-0.039 0.2807,0.055 0.2385,0.24726 1.52842,2.64047 2.51,4.65684 0.46573,0.9567 1.00059,1.93595 1.18857,2.17612 0.18799,0.24016 0.3418,0.50795 0.3418,0.59507 0,0.31828 -0.33264,0.14579 -0.66557,-0.34512 z m 1.93764,-1.73945 c -0.417,-0.73011 -1.45889,-2.49725 -2.31531,-3.92699 -0.85641,-1.42973 -1.52231,-2.70395 -1.47976,-2.8316 0.0947,-0.28422 2.21983,2.94566 3.71315,5.64355 1.19286,2.15507 1.31391,2.44252 1.02855,2.44252 -0.10365,0 -0.52963,-0.59737 -0.94663,-1.32748 z m 4.40403,2.50854 c 0,-0.15606 -0.13777,-0.54744 -0.30616,-0.86973 l -0.30615,-0.58598 -0.1665,0.6324 c -0.13667,0.51906 -0.10834,0.67494 0.15804,0.86973 0.42931,0.31391 0.62077,0.2996 0.62077,-0.0464 z m -10.19609,-3.05497 c -0.89967,-1.79266 -4.079983,-5.1579 -4.909053,-5.19452 -0.82136,-0.0363 -4.369185,-0.81511 -4.565906,-1.00233 -0.372603,-0.3546 0.112028,-0.33701 2.201866,0.0799 1.19918,0.23926 2.22103,0.3984 2.27078,0.35365 0.20961,-0.18853 -1.47211,-1.51783 -1.92024,-1.51783 -0.52103,0 -1.74066,-0.45927 -1.74066,-0.65547 0,-0.0687 0.28585,-0.0785 0.63522,-0.0218 l 0.63523,0.10308 -0.48227,-0.72876 c -0.34339,-0.5189 -0.59096,-0.71305 -0.8597,-0.6742 -0.392969,0.0568 -4.27793,5.43698 -5.159972,7.1459 l -0.446947,0.86594 0.413143,0.0843 c 0.425771,0.0868 4.234755,0.5641 6.821646,0.85474 0.80564,0.0905 2.17852,0.33737 3.05085,0.54858 2.113203,0.51165 2.227843,0.47511 1.733863,-0.55266 -0.48099,-1.00075 -0.57462,-1.02881 -4.299813,-1.28847 -5.042132,-0.35145 -6.287278,-0.50959 -6.602673,-0.83854 -0.269058,-0.28063 -0.236135,-0.29588 0.44167,-0.20457 0.40282,0.0543 2.21551,0.22994 4.028203,0.39037 1.81269,0.16044 3.95279,0.37179 4.75579,0.46968 0.803,0.0979 1.554863,0.17797 1.670793,0.17797 0.11594,0 0.26171,0.25459 0.32395,0.56576 0.0622,0.31118 0.27115,0.92295 0.46426,1.35951 0.35534,0.8033 0.51573,0.89046 1.79783,0.97689 0.39424,0.0266 0.38621,-0.0138 -0.25786,-1.29717 z m -4.451913,-3.06292 c -0.15106,-0.0851 -1.51058,-0.33604 -3.02115,-0.55769 -3.215431,-0.47181 -3.936653,-0.66089 -3.936653,-1.03207 0,-0.17184 0.118574,-0.23965 0.320425,-0.18325 1.150802,0.32159 3.856458,0.86127 5.172578,1.03174 1.75156,0.22689 2.7465,0.49807 2.7465,0.7486 0,0.20861 -0.90752,0.20342 -1.2817,-0.007 z m -10.91409,1.6728 c 0.171978,-0.27826 -0.111073,-0.94727 -0.400786,-0.94727 -0.472136,0 -2.600727,0.76952 -2.600727,0.94021 0,0.20241 2.876593,0.20919 3.001513,0.007 z m -18.4915,-0.3626 c 0.227088,-0.12556 -0.433231,-0.58467 -0.840909,-0.58467 -0.370907,0 -0.438902,0.36836 -0.125791,0.68147 0.185892,0.18589 0.515029,0.15293 0.9667,-0.0968 z m 15.572382,-0.41453 c 0.303646,-0.29701 -0.537466,-0.18972 -0.917124,0.11698 -0.337911,0.27298 -0.328359,0.28136 0.193879,0.17015 0.302115,-0.0643 0.627575,-0.19355 0.723245,-0.28713 z M 101.56884,193.27 c -0.25876,-1.02613 -0.47047,-2.0673 -0.47047,-2.3137 0,-0.24642 -0.17479,-1.02347 -0.38841,-1.72678 -0.24508,-0.80687 -0.32428,-1.34289 -0.21462,-1.45256 0.18501,-0.18501 2.07874,0.79397 4.35658,2.25216 2.12458,1.36008 4.0823,2.37048 4.2058,2.17066 0.0627,-0.10144 0.0148,-0.37153 -0.10648,-0.60019 -0.28155,-0.53099 -2.37791,-3.50195 -3.09474,-4.38587 -0.71567,-0.88251 -0.73261,-1.33558 -0.0433,-1.15881 1.74784,0.44825 9.50952,0.69337 9.10007,0.2874 -0.0957,-0.0949 -0.9155,-0.45961 -1.82184,-0.81056 -4.95117,-1.91717 -7.39911,-3.16792 -9.6607,-4.93604 -1.16419,-0.91016 -1.21206,-0.91963 -5.604903,-1.10821 l -1.89929,-0.0815 0.12853,1.98307 c 0.14503,2.23767 0.0641,2.51415 -0.90271,3.08459 -0.55909,0.32988 -0.6452,0.47373 -0.64272,1.07371 0.005,1.13022 0.46327,2.74711 0.96128,3.38917 0.95529,1.23161 6.415883,6.63315 6.490633,6.42046 0.0428,-0.1217 -0.13394,-1.06083 -0.3927,-2.08696 z m -33.428476,1.84767 c 0.244133,-0.16026 0.244133,-0.20032 0,-0.36059 -0.395794,-0.25982 -0.9155,-0.22677 -0.9155,0.0582 0,0.48872 0.420205,0.6275 0.9155,0.30236 z m -6.86625,-7.37191 c 0.102684,-1.61808 0.263516,-2.90396 0.3662,-2.92784 0.112453,-0.0262 0.218423,0.98178 0.27465,2.61236 0.05035,1.46022 0.158209,2.75794 0.239681,2.88382 0.08147,0.12588 0.333624,0.22888 0.560337,0.22888 h 0.412207 l -0.08057,-2.67813 c -0.0668,-2.22053 -0.0374,-2.6639 0.172063,-2.59489 0.178532,0.0588 0.294471,0.61612 0.395268,1.89996 0.205747,2.62058 0.347864,3.26517 0.736396,3.33999 0.461899,0.089 1.13999,-0.39981 1.779555,-1.28271 0.689219,-0.95144 0.705248,-1.29088 0.05732,-1.21401 -0.37278,0.0442 -0.538989,0.20918 -0.70238,0.69707 l -0.214042,0.63912 -0.249174,-0.45602 c -0.319685,-0.58508 -0.507439,-6.22368 -0.207236,-6.22368 0.189688,0 0.338193,0.58766 0.439574,1.73945 0.04458,0.50652 0.109081,0.55369 0.828199,0.60568 0.974138,0.0704 1.051963,-0.0988 0.800299,-1.74029 -0.238042,-1.55265 -0.683109,-1.98146 -2.80089,-2.69857 -1.596926,-0.54074 -1.919287,-0.54019 -4.371856,0.007 l -1.198197,0.26752 -0.233884,2.05378 c -0.128637,1.12958 -0.356428,2.58935 -0.506202,3.24393 -0.745296,3.25727 -0.699673,3.8451 0.29843,3.8451 0.687089,0 0.751387,-0.15451 1.181019,-2.83805 0.487097,-3.04248 0.678691,-2.97071 0.541808,0.20294 -0.119236,2.76448 -0.119023,2.76656 0.314853,3.07109 0.887081,0.62265 0.968643,0.435 1.16657,-2.6839 z m 12.4508,0.98403 c 1.107755,-0.29104 2.67326,-0.62283 3.4789,-0.73732 3.780814,-0.53728 6.199327,-1.03765 10.34515,-2.1403 2.467272,-0.65621 4.81553,-1.31186 5.21835,-1.457 0.708403,-0.25524 0.67498,-0.26106 -1.020112,-0.17779 -1.133171,0.0557 -2.653802,0.31044 -4.30285,0.72091 -1.402686,0.34916 -3.250695,0.76394 -4.106688,0.92175 -0.855993,0.15781 -2.462695,0.56562 -3.57045,0.90625 -1.107755,0.34062 -2.549668,0.67725 -3.20425,0.74805 -0.654583,0.0708 -2.137693,0.36586 -3.2958,0.65568 -1.158108,0.28982 -2.332236,0.57309 -2.609175,0.62949 -0.276939,0.0564 -0.503525,0.18337 -0.503525,0.28216 0,0.33282 1.54317,0.18074 3.57045,-0.35188 z m -0.668258,-1.213 c 0.393921,-0.33146 0.691695,-0.89 1.04937,-1.96832 0.274659,-0.82805 0.647485,-1.85331 0.828503,-2.27835 0.183697,-0.43134 0.255143,-0.81854 0.161694,-0.87629 -0.09209,-0.0569 -0.57292,0.102 -1.06852,0.35314 -0.697241,0.35332 -1.06558,0.71724 -1.628188,1.60869 -0.789607,1.25112 -1.695751,3.07474 -1.695751,3.41271 0,0.13094 0.342575,0.21121 0.901451,0.21121 0.69703,0 1.026173,-0.10495 1.451441,-0.46279 z m 5.758808,-0.82616 c 0.464069,-0.13221 0.814826,-0.39296 1.052131,-0.78216 0.456906,-0.74937 2.26403,-6.15376 2.1094,-6.30839 -0.204411,-0.20441 -2.822349,1.20832 -3.141355,1.69518 -0.38465,0.58705 -2.272676,5.20322 -2.272676,5.55663 0,0.28644 0.909622,0.22132 2.2525,-0.16126 z m -9.217976,-2.09186 c 0.01421,-0.66613 -0.543984,0.12672 -0.648871,0.92164 l -0.09497,0.71972 0.368082,-0.64085 c 0.202445,-0.35247 0.371534,-0.8027 0.375754,-1.00051 z m 14.84279,0.61634 c 0.92323,-0.19799 0.944816,-0.21825 1.414495,-1.32747 0.262325,-0.61953 1.217129,-2.58953 2.121788,-4.37779 0.904659,-1.78826 1.600567,-3.29564 1.546461,-3.34975 -0.189146,-0.18914 -2.545837,0.88413 -3.051332,1.38962 -0.325234,0.32523 -0.928171,1.5607 -1.664194,3.41006 -0.634803,1.59503 -1.307602,3.20575 -1.495109,3.57938 -0.187507,0.37363 -0.340923,0.72381 -0.340923,0.77817 0,0.14991 0.434006,0.11971 1.468814,-0.10222 z m -16.299914,-0.9688 c 0,-0.56292 0.679101,-1.06173 1.910255,-1.40312 1.125365,-0.31205 2.117945,-0.91467 2.117945,-1.28585 0,-0.0731 0.318299,-0.82094 0.707334,-1.66176 0.952491,-2.05862 1.450813,-3.44248 1.654932,-4.59581 0.09356,-0.52863 0.293964,-1.29301 0.445349,-1.69863 0.2828,-0.75773 0.942376,-5.46851 1.15747,-8.26683 l 0.120987,-1.57399 -0.532462,0.0949 c -0.292852,0.0522 -1.493354,0.46791 -2.66778,0.9238 -1.174427,0.45589 -2.602742,0.93349 -3.174036,1.06134 -1.318531,0.29508 -1.596828,0.64879 -2.952358,3.75237 -0.568265,1.30108 -1.145916,2.52812 -1.283672,2.72676 -0.36696,0.52915 -0.312951,0.64589 0.298836,0.64589 0.637085,0 0.632098,-0.0138 0.279394,0.77196 -0.865147,1.92734 -1.927294,4.96117 -1.927294,5.50496 0,0.59653 0.06144,0.65966 1.066036,1.09534 1.346268,0.58386 2.046664,1.37889 2.046664,2.3232 0,1.06666 0.201985,1.83984 0.480637,1.83984 0.13847,0 0.251763,-0.11447 0.251763,-0.25437 z m 21.84849,-0.40392 c 1.070148,-0.36463 1.762455,-1.15785 2.930506,-3.35766 0.810448,-1.52633 0.913816,-1.86844 1.235462,-4.089 0.193055,-1.33282 0.351225,-2.45399 0.351475,-2.4915 1.9e-4,-0.0375 -0.12861,0.0389 -0.28638,0.16987 -0.90968,0.75497 -5.670634,10.06038 -5.14722,10.06038 0.03241,0 0.444684,-0.13144 0.916157,-0.29209 z m 5.497773,-3.50724 c 0.064,-1.5861 0.16928,-3.68717 0.23402,-4.66905 0.0872,-1.32191 0.0613,-1.78522 -0.0997,-1.78522 -0.37511,0 -0.74309,1.20735 -0.93369,3.06344 -0.10102,0.98379 -0.23423,2.17596 -0.29601,2.64926 -0.0618,0.4733 -0.0541,1.48264 0.0172,2.24297 0.11972,1.27768 0.16107,1.38243 0.5457,1.38243 0.41027,0 0.4178,-0.0408 0.53246,-2.88383 z m -8.277257,-4.4624 c 3.078532,-1.52873 5.826239,-2.73071 7.325847,-3.20466 0.76827,-0.24281 0.90042,-0.37081 1.33877,-1.29662 0.60761,-1.28328 1.89794,-5.20863 2.03405,-6.18784 0.056,-0.40282 0.30194,-1.96833 0.54654,-3.4789 0.47239,-2.91729 0.98587,-7.73074 0.84021,-7.87639 -0.20772,-0.20772 -4.05119,6.31873 -4.77792,8.1132 -0.13431,0.33165 -0.488968,0.86503 -0.788124,1.18528 l -0.543923,0.58227 -0.322971,-0.39886 c -0.312428,-0.38583 -0.717262,-2.28145 -1.10539,-5.17595 -0.222186,-1.65697 -0.8752,-3.95307 -1.201202,-4.22363 -0.294575,-0.24448 -0.53959,-0.12477 -2.823193,1.37937 -4.130414,2.72056 -7.396876,4.58189 -7.705773,4.39098 -0.357072,-0.22068 -0.104237,-0.72112 1.737722,-3.43946 1.047887,-1.54646 2.121279,-3.23807 2.385319,-3.75913 0.58538,-1.15519 0.477585,-1.23502 -1.305011,-0.96647 -0.685358,0.10325 -1.946465,0.2396 -2.802457,0.303 -4.158488,0.30801 -3.896505,0.22222 -9.773916,3.20072 -7.989907,4.04905 -8.157546,4.17399 -8.563389,6.38177 -0.0862,0.46893 -0.404347,1.35839 -0.706992,1.97657 -0.302645,0.61819 -0.724996,1.93651 -0.938558,2.9296 -0.213561,0.9931 -0.66609,2.84364 -1.005619,4.11231 -0.339529,1.26868 -0.617326,2.36041 -0.617326,2.42608 0,0.0657 1.383847,0.11939 3.075215,0.11939 h 3.075215 l 1.678858,-3.51594 c 0.923372,-1.93377 1.649217,-3.54559 1.612989,-3.58182 -0.03623,-0.0362 -0.68898,0.0628 -1.450555,0.22014 -1.573697,0.32506 -2.791582,0.36971 -2.953154,0.10829 -0.132442,-0.2143 0.321821,-0.31627 1.991068,-0.44696 0.694093,-0.0543 1.30986,-0.14668 1.368374,-0.20519 0.243307,-0.24331 -0.467993,-1.09507 -0.989119,-1.18445 -0.427149,-0.0733 -0.554971,-0.20004 -0.600578,-0.59572 -0.06563,-0.56938 0.316795,-0.68827 0.70588,-0.21945 0.329903,0.3975 1.278914,1.05522 1.378654,0.95548 0.04563,-0.0456 -0.04151,-0.43575 -0.193641,-0.86694 -0.641713,-1.81881 -0.05619,-1.58734 0.680754,0.26911 0.395507,0.99633 0.491239,1.10399 1.028425,1.15652 0.820893,0.0803 9.477251,-2.85117 11.581808,-3.92215 1.70571,-0.868 2.292256,-0.98192 1.228275,-0.23854 -0.957551,0.66901 -1.199686,1.26472 -0.514068,1.26472 0.20141,0 0.3662,0.0792 0.3662,0.17604 0,0.16423 -0.610933,0.37212 -1.92255,0.65421 -0.302115,0.065 -0.829373,0.20358 -1.171684,0.30801 -0.819593,0.25002 -0.445398,0.47063 1.066312,0.62863 1.18089,0.12343 1.515341,0.41563 0.517347,0.45199 -0.762278,0.0278 -0.603443,0.0369 -1.904513,-0.10966 l -1.126338,-0.12689 -0.107998,0.51941 c -0.0594,0.28567 -0.315666,2.40112 -0.569484,4.70098 -0.253817,2.29987 -0.542914,4.33373 -0.64244,4.51969 -0.50607,0.9456 0.05753,1.35031 3.323558,2.38658 4.546263,1.44247 4.531278,1.4432 8.240496,-0.39872 z m -28.207567,-0.13016 c -0.213573,-0.39906 -0.748839,-0.87083 -0.748839,-0.66001 0,0.14663 0.735295,0.9955 0.862309,0.9955 0.03634,0 -0.01472,-0.15097 -0.11347,-0.33549 z m 48.018967,-21.04144 c -1.92582,-3.99205 -2.1261,-4.4524 -1.99443,-4.58408 0.0574,-0.0574 0.41238,0.0679 0.7889,0.27834 0.37652,0.21047 1.13775,0.47383 1.69163,0.58525 0.55387,0.11143 1.54261,0.32463 2.1972,0.47379 0.65458,0.14916 2.38487,0.32584 3.8451,0.39262 2.49426,0.11406 2.63926,0.10241 2.39573,-0.19259 -0.47362,-0.5737 -2.99005,-2.51437 -3.99786,-3.08315 -0.9463,-0.53406 -1.31953,-0.94273 -1.07987,-1.18239 0.0604,-0.0604 0.24445,0.002 0.40909,0.13869 0.62058,0.51503 8.31521,-0.0417 8.31521,-0.60166 0,-0.27251 -1.85699,-0.99813 -2.8993,-1.13291 -0.53721,-0.0695 -1.41381,-0.28983 -1.948,-0.48969 l -0.97126,-0.3634 -3.58107,0.9189 c -3.42089,0.8778 -3.73096,0.92514 -6.93234,1.05838 l -3.351283,0.13948 -0.0523,1.89144 c -0.0699,2.52745 0.178853,3.83327 0.831663,4.3651 0.27632,0.2251 1.45791,0.9506 2.62578,1.61222 1.16787,0.66163 2.69217,1.6099 3.38735,2.10727 2.07794,1.48669 2.09659,1.35089 0.32011,-2.33161 z m -44.483212,-4.69539 c 1.085729,-0.45365 2.16616,-2.23775 2.16616,-3.57696 0,-1.05132 -0.439969,-2.12587 -1.186052,-2.89675 -0.55519,-0.57363 -0.628631,-0.59507 -2.038561,-0.59507 -1.797291,0 -2.688657,0.38721 -3.557604,1.54544 -0.713029,0.95041 -1.021621,1.92402 -0.853067,2.69144 0.137401,0.62559 1.097274,1.80542 1.46883,1.80542 0.1355,0 0.469208,-0.29217 0.741573,-0.64926 0.445641,-0.58426 0.475378,-0.71387 0.297082,-1.29481 -0.170514,-0.55559 -0.148917,-0.69477 0.154959,-0.99865 0.433216,-0.43321 1.037135,-0.4536 1.483044,-0.05 0.501728,0.45406 0.406327,0.90462 -0.28156,1.32976 -0.727689,0.44973 -1.651035,1.76517 -1.505409,2.14467 0.13729,0.35777 1.15814,0.78404 1.898817,0.79287 0.330526,0.004 0.87583,-0.10768 1.211788,-0.24805 z m 74.356862,-4.81051 c 0.40282,-0.80729 1.2,-2.0456 1.77151,-2.7518 l 1.03912,-1.284 -0.44162,-0.71336 c -0.24289,-0.39235 -0.77199,-1.7433 -1.17577,-3.00211 -0.96907,-3.02113 -0.915,-2.95253 -1.79991,-2.28308 -2.5221,1.90803 -3.27931,2.55268 -3.9204,3.33762 -0.4847,0.59345 -0.48586,0.60216 -0.20699,1.55635 0.15423,0.52776 0.5088,1.33034 0.78793,1.78351 0.27913,0.45317 1.0282,1.75283 1.66461,2.88812 0.63642,1.1353 1.24532,2.03546 1.35312,2.00036 0.1078,-0.0351 0.52558,-0.72433 0.9284,-1.53161 z m -47.514456,-1.46237 c 0,-0.0658 -0.254185,-0.65757 -0.564854,-1.3151 -0.835191,-1.76769 -0.952228,-2.86301 -0.815145,-7.62875 0.165887,-5.76703 0.896469,-10.18251 1.99492,-12.05688 1.297364,-2.21378 4.223472,-3.4877 6.623122,-2.88346 1.25015,0.31479 2.40904,0.90456 3.705163,1.88559 1.30499,0.98774 1.86285,1.31678 2,1.17963 0.18613,-0.18613 -1.50115,-3.07757 -2.873013,-4.92337 -2.71002,-3.64628 -5.1446,-5.61991 -7.861088,-6.3727 -1.783247,-0.49416 -5.044522,-0.50336 -6.015725,-0.017 -0.373632,0.18713 -0.900822,0.39341 -1.171534,0.4584 -0.500749,0.12024 -2.399425,1.50019 -3.29944,2.39803 -0.932594,0.93033 -1.976006,4.48155 -1.976006,6.72526 0,0.86115 0.0752,1.43032 0.188981,1.43032 0.103939,0 0.492167,-0.12668 0.862731,-0.28151 0.370563,-0.15483 1.157763,-0.3321 1.749333,-0.39393 l 1.075583,-0.11242 1.071538,1.14368 c 1.254462,1.33893 1.614689,2.22153 1.768934,4.33407 0.138083,1.89117 -0.16429,3.51218 -0.915972,4.91051 -0.775811,1.44322 -1.270264,1.79308 -2.230678,1.57837 -0.40282,-0.0901 -1.300283,-0.22232 -1.99436,-0.29393 l -1.26196,-0.13018 0.131076,1.33021 c 0.279097,2.83241 1.223399,4.77232 2.940536,6.04084 1.02838,0.75971 4.239628,2.55887 5.183633,2.90422 0.568002,0.2078 1.684225,0.2675 1.684225,0.0901 z M 148.4906,141.4129 c 0.34282,-0.7185 0.14331,-1.40552 -0.40815,-1.40552 -0.56267,0 -0.80049,0.30943 -0.84436,1.0986 -0.0519,0.93311 -0.045,0.94518 0.50365,0.88188 0.33881,-0.0391 0.58242,-0.22613 0.74886,-0.57496 z m -4.96455,-1.29297 c 0.0474,-0.0474 0.099,-0.35992 0.11464,-0.69445 0.0274,-0.58683 0.002,-0.61019 -0.725,-0.66334 -0.70926,-0.0519 -0.75995,-0.0225 -0.86474,0.50152 -0.17913,0.89561 0.015,1.16543 0.75245,1.04576 0.35004,-0.0568 0.67523,-0.14207 0.72265,-0.18949 z m 1.69942,-0.95511 c 0,-0.39727 -0.0717,-0.45519 -0.50196,-0.40553 -0.55708,0.0643 -0.76189,0.55371 -0.40944,0.97839 0.31857,0.38384 0.9114,0.0112 0.9114,-0.57286 z m -4.58521,-0.0446 c 0.63439,-0.60349 0.74011,-0.81336 0.74011,-1.46933 0,-0.65496 -0.0684,-0.79128 -0.47433,-0.94563 l -0.47434,-0.18034 0.94527,-1.09114 c 1.14765,-1.32473 1.42965,-2.14821 1.01816,-2.97307 -0.34527,-0.6921 -0.27013,-0.75866 1.17799,-1.04356 1.16218,-0.22864 2.57069,-1.03495 3.02852,-1.7337 0.25892,-0.39515 0.26697,-0.52896 0.0575,-0.95586 -0.39423,-0.80353 -0.79556,-0.95245 -1.48297,-0.55027 -0.81973,0.4796 -2.7741,1.45813 -3.97892,1.99219 -1.75415,0.77757 -1.86197,0.92946 -2.02078,2.84662 -0.0765,0.92399 -0.287,2.09112 -0.4677,2.59363 -0.29184,0.81159 -0.30143,1.02133 -0.0858,1.87746 0.36689,1.45655 0.75498,2.33705 1.03007,2.33705 0.13588,0 0.58011,-0.31682 0.98717,-0.70405 z m 4.55736,-1.3872 c 0.61995,-0.32059 1.01924,-0.76984 0.803,-0.90348 -0.087,-0.0538 -0.58753,0.0281 -1.11237,0.18201 -0.90834,0.26627 -0.98535,0.26138 -1.60068,-0.10168 -1.14791,-0.67728 -1.63512,-0.35 -1.07924,0.72495 0.30387,0.58763 0.30971,0.58963 1.39109,0.47661 0.59726,-0.0624 1.31645,-0.23271 1.5982,-0.37841 z m 0.28605,-1.39924 c 1.52023,-0.67247 2.56875,-1.88796 1.95554,-2.26694 -0.0916,-0.0566 -0.56467,0.0677 -1.05124,0.27628 -1.3829,0.59278 -2.8299,0.88168 -3.3199,0.66283 -0.29577,-0.1321 -0.47947,-0.12516 -0.62837,0.0238 -0.1585,0.15849 -0.0196,0.39197 0.56298,0.94614 0.88408,0.84101 1.26477,0.89593 2.48099,0.35794 z m 0.0329,-2.20749 c 1.21597,-0.45495 2.89267,-1.9439 2.79076,-2.47827 -0.099,-0.51927 -0.73435,-0.49747 -1.53412,0.0526 -0.93022,0.63983 -1.82849,0.96458 -2.69602,0.97467 -0.85163,0.01 -1.24713,0.6175 -0.89912,1.38129 0.26498,0.58156 0.91832,0.60103 2.3385,0.0697 z m 0.18762,-2.28909 c 1.03565,-0.49144 2.49213,-1.97112 2.42071,-2.45926 -0.0975,-0.66655 -0.46509,-0.61733 -0.69975,0.0937 -0.24998,0.75744 -0.96921,1.35605 -2.43626,2.02769 -0.57481,0.26316 -1.0451,0.51362 -1.0451,0.55659 0,0.19691 1.19823,0.048 1.7604,-0.21874 z m -3.24109,-3.00848 c 0.98698,-0.71496 0.95195,-1.15873 -0.0976,-1.23566 -0.74034,-0.0543 -0.75279,-0.0451 -0.86613,0.64085 -0.22738,1.37596 -0.16652,1.41353 0.96368,0.59481 z m 1.99695,-1.22825 c 0.0682,-0.47794 -0.41322,-0.57654 -0.58822,-0.12048 -0.18636,0.48564 -0.12624,0.65561 0.20928,0.59166 0.17624,-0.0336 0.34676,-0.24562 0.37894,-0.47118 z m 2.75221,-1.70971 c 0.58242,-0.20304 0.7342,-0.6401 0.46549,-1.34037 -0.28605,-0.74542 -1.35366,-0.0128 -1.35366,0.92891 0,0.6767 0.0547,0.70202 0.88817,0.41146 z m -38.79536,-4.2925 c 0.68234,-0.65874 1.56007,-1.64353 1.95053,-2.18841 0.39045,-0.54489 0.8129,-0.99466 0.93878,-0.9995 0.32783,-0.0126 0.28316,0.23902 -0.13732,0.77358 -0.61117,0.77697 -0.41473,0.75717 0.55663,-0.0561 0.97812,-0.81893 1.28735,-0.84451 0.93791,-0.0776 -0.29391,0.64506 -0.29139,0.64714 0.42213,0.34901 0.34923,-0.14591 0.77129,-0.2653 0.93792,-0.2653 0.48859,0 -0.035,0.50414 -0.66795,0.64317 -0.55436,0.12175 -0.92474,0.45602 -0.50377,0.45465 0.13182,-4.2e-4 1.35201,-0.27715 2.71153,-0.61495 3.18082,-0.79032 5.8592,-1.84704 5.8592,-2.31167 0,-0.0763 -0.74355,-0.27481 -1.65232,-0.44107 -1.94071,-0.35506 -4.42167,-1.10149 -5.24948,-1.57938 -1.03248,-0.59606 -3.16608,-1.27756 -3.99967,-1.27756 -0.45599,0 -1.93132,0.35961 -3.38033,0.82396 -1.41416,0.45317 -2.72937,0.82395 -2.92269,0.82395 -0.19333,0 -0.38781,0.0618 -0.43219,0.13732 -0.16285,0.27716 0.45332,2.1631 0.97015,2.96935 0.45159,0.7045 1.31154,2.57018 1.71179,3.7138 0.19781,0.56521 0.67962,0.34835 1.94915,-0.87728 z m 48.57409,0.56165 c 1.65132,-0.34818 3.59174,-1.39421 4.61439,-2.48751 0.45733,-0.48892 0.83151,-0.95796 0.83151,-1.04231 0,-0.13654 -2.68301,-0.78082 -3.24268,-0.77867 -0.12184,4.6e-4 -0.32056,0.33141 -0.44161,0.73542 -0.12104,0.40402 -0.30974,0.8021 -0.41932,0.88462 -0.10958,0.0825 -1.02319,0.2938 -2.03024,0.46951 -1.00705,0.17571 -2.25692,0.4389 -2.77749,0.58488 -0.52056,0.14597 -1.66391,0.35802 -2.54078,0.47121 -1.3311,0.17183 -1.61864,0.16349 -1.74171,-0.0505 -0.49658,-0.86337 -0.6503,-0.95786 -1.22968,-0.75589 -0.31015,0.10812 -1.04272,0.50287 -1.62794,0.87723 -1.29699,0.82968 -1.22726,0.87504 1.78839,1.16337 1.1478,0.10975 2.37529,0.23289 2.72776,0.27366 1.13848,0.13168 4.81694,-0.0768 6.0894,-0.34505 z m -28.21282,-1.85548 c 1.16568,-0.37469 1.38324,-0.66588 0.86104,-1.15238 -0.40146,-0.37402 -0.91227,-0.51764 -2.17442,-0.61135 -0.56874,-0.0422 -0.63369,-0.0991 -0.57721,-0.50533 0.0889,-0.63924 0.33129,-0.88094 1.09504,-1.09183 0.80756,-0.22297 1.14279,0.004 0.80506,0.54461 -0.31047,0.49714 -0.31149,0.49529 0.50081,0.9097 1.24973,0.63756 1.4721,0.47607 1.4721,-1.06912 0,-1.41393 -0.75104,-2.05422 -2.71535,-2.31493 -0.81544,-0.10822 -1.20224,-0.047 -2.3525,0.37256 -1.67475,0.61081 -2.15024,1.18779 -1.99491,2.42072 0.10772,0.855 0.64713,2.03967 1.09975,2.41532 0.70821,0.58776 2.30491,0.62067 3.98059,0.082 z m 23.59552,-0.14904 c 0.54986,-0.14316 1.7413,-0.39628 2.64765,-0.56249 2.99915,-0.54999 2.92628,-0.50791 3.45191,-1.99398 0.57199,-1.61718 1.11434,-3.75559 0.98525,-3.88469 -0.1116,-0.11159 -2.88951,0.59102 -3.70476,0.93704 -0.67167,0.28508 -3.25437,0.6376 -4.67131,0.6376 -0.57344,0 -1.54908,0.0529 -2.16808,0.11763 -0.89912,0.094 -1.12546,0.18129 -1.12546,0.43414 0,0.17408 0.3574,1.13048 0.79423,2.12534 0.43683,0.99486 0.84622,1.95303 0.90976,2.12926 0.1466,0.40665 1.4457,0.43378 2.88081,0.0602 z m -3.4862,-5.70252 c 0,-0.15767 -0.0907,-0.45608 -0.20146,-0.66311 -0.19644,-0.36706 -0.20985,-0.36363 -0.53887,0.13794 -0.39609,0.6038 -0.3209,0.81186 0.29338,0.81186 0.28356,0 0.44695,-0.1048 0.44695,-0.28669 z m 5.96263,-0.1898 c 0.59769,-0.16006 1.45749,-0.38611 1.91067,-0.50234 0.78143,-0.20042 0.84089,-0.26241 1.15224,-1.20136 0.18056,-0.54451 0.26122,-1.0571 0.17925,-1.13908 -0.082,-0.082 -0.53595,-0.0326 -1.00883,0.10972 -0.47289,0.14232 -1.58349,0.39521 -2.468,0.56199 -2.09546,0.39512 -5.18663,1.12968 -5.32152,1.26458 -0.0582,0.0582 0.0369,0.40534 0.21147,0.77135 l 0.31734,0.66548 1.97033,-0.11966 c 1.08368,-0.0658 2.45935,-0.25063 3.05705,-0.41068 z m 4.41642,-1.27037 c 0.0735,-0.22382 -0.41909,-0.95015 -0.55335,-0.81589 -0.0504,0.0504 -0.15026,0.32519 -0.2219,0.61065 -0.11719,0.46694 -0.088,0.51283 0.2912,0.45738 0.23181,-0.0339 0.44963,-0.14737 0.48405,-0.25214 z m 0.24075,27.39167 c 0,-0.20524 1.47687,-1.1094 1.81211,-1.1094 0.40727,0 0.006,0.36677 -0.90957,0.83051 -0.4964,0.25155 -0.90254,0.37705 -0.90254,0.27889 z m -0.77901,-0.95294 c 0.11535,-0.11535 0.6056,-0.35314 1.08945,-0.52841 0.48384,-0.17528 1.0445,-0.38471 1.24591,-0.4654 0.76874,-0.30799 -0.11957,0.4664 -0.96297,0.83948 -0.92887,0.41088 -1.71764,0.49959 -1.37239,0.15433 z m 0.40185,-1.32727 c 0.33097,-0.4065 2.34926,-1.43711 2.63066,-1.34331 0.19687,0.0656 -1.73159,1.23304 -2.52815,1.53045 -0.33142,0.12374 -0.34116,0.10597 -0.10251,-0.18714 z m -1.60754,-6.33296 c 0.0433,-0.12997 0.61435,-0.37566 1.26894,-0.54596 0.65459,-0.17031 1.61444,-0.54814 2.133,-0.83964 0.91967,-0.51698 1.40885,-0.52814 0.98927,-0.0226 -0.62612,0.75443 -4.59784,2.02808 -4.39121,1.40817 z m -64.746641,-4.07311 c 1.429758,-1.52891 2.097038,-2.06413 2.097038,-1.68202 0,0.24982 -2.279867,2.456 -2.538036,2.456 -0.185431,0 -0.03361,-0.26646 0.440998,-0.77398 z m 9.045761,-0.97641 c -0.16948,-0.20421 -0.18766,-0.42596 -0.0638,-0.77818 0.13535,-0.38486 0.29184,-0.49258 0.71562,-0.49258 0.65574,0 0.80748,0.44791 0.37524,1.1076 -0.33834,0.51636 -0.68786,0.57188 -1.02707,0.16316 z"
       id="path4679"
       inkscape:connector-curvature="0" />
    <flowRoot
       xml:space="preserve"
       id="flowRoot53"
       style="fill:black;fill-opacity:1;stroke:none;font-family:sans-serif;font-style:normal;font-weight:normal;font-size:40px;line-height:1.25;letter-spacing:0px;word-spacing:0px;text-anchor:end;text-align:end"><flowRegion
         id="flowRegion55"><rect
           id="rect57"
           width="454.43396"
           height="137.65012"
           x="-130.10765"
           y="524.77875" /></flowRegion><flowPara
         id="flowPara59"></flowPara></flowRoot>    <rect
       style="fill:none;fill-opacity:1;stroke:#000000;stroke-width:1.12687981;stroke-miterlimit:4;stroke-dasharray:none;stroke-opacity:1"
       id="rect964-6"
       width="168.87311"
       height="258.87311"
       x="20.563442"
       y="17.563457"
       rx="11.061727"
       ry="11.479745" />
  </g>
</svg>
