<?xml version="1.0" encoding="UTF-8" standalone="no"?>
<!-- Created with Inkscape (http://www.inkscape.org/) -->

<svg
   xmlns:dc="http://purl.org/dc/elements/1.1/"
   xmlns:cc="http://creativecommons.org/ns#"
   xmlns:rdf="http://www.w3.org/1999/02/22-rdf-syntax-ns#"
   xmlns:svg="http://www.w3.org/2000/svg"
   xmlns="http://www.w3.org/2000/svg"
   xmlns:sodipodi="http://sodipodi.sourceforge.net/DTD/sodipodi-0.dtd"
   xmlns:inkscape="http://www.inkscape.org/namespaces/inkscape"
   width="210mm"
   height="297mm"
   viewBox="0 0 210 297"
   version="1.1"
   id="svg8"
   sodipodi:docname="KD.svg"
   inkscape:version="0.92.4 5da689c313, 2019-01-14">
  <defs
     id="defs2" />
  <sodipodi:namedview
     id="base"
     pagecolor="#ffffff"
     bordercolor="#666666"
     borderopacity="1.0"
     inkscape:pageopacity="0.0"
     inkscape:pageshadow="2"
     inkscape:zoom="0.53033009"
     inkscape:cx="67.222846"
     inkscape:cy="797.84522"
     inkscape:document-units="mm"
     inkscape:current-layer="layer1"
     showgrid="false"
     showguides="true"
     inkscape:guide-bbox="true"
     inkscape:snap-text-baseline="false"
     inkscape:snap-to-guides="true"
     inkscape:window-width="1866"
     inkscape:window-height="1016"
     inkscape:window-x="54"
     inkscape:window-y="30"
     inkscape:window-maximized="1"
     inkscape:snap-nodes="false">
    <sodipodi:guide
       position="400.1203,316.30458"
       orientation="1,0"
       id="guide12"
       inkscape:locked="false" />
    <sodipodi:guide
       position="474.95576,250.44938"
       orientation="1,0"
       id="guide20"
       inkscape:locked="false" />
    <inkscape:grid
       type="xygrid"
       id="grid979" />
  </sodipodi:namedview>
  <metadata
     id="metadata5">
    <rdf:RDF>
      <cc:Work
         rdf:about="">
        <dc:format>image/svg+xml</dc:format>
        <dc:type
           rdf:resource="http://purl.org/dc/dcmitype/StillImage" />
        <dc:title></dc:title>
      </cc:Work>
    </rdf:RDF>
  </metadata>
  <g
     inkscape:label="Layer 1"
     inkscape:groupmode="layer"
     id="layer1">
    <g
       id="g1414">
      <text
         transform="scale(0.98362084,1.0166519)"
         id="text861"
         y="48.931515"
         x="55.662212"
         style="font-style:normal;font-weight:normal;font-size:10.57309151px;line-height:1.25;font-family:sans-serif;text-align:end;letter-spacing:0px;word-spacing:0px;text-anchor:end;fill:#000000;fill-opacity:1;stroke:none;stroke-width:0.26432729"
         xml:space="preserve"><tspan
           id="tspan1706"
           style="font-size:17.62182045px;text-align:end;text-anchor:end;stroke-width:0.26432729"
           y="48.931515"
           x="55.662212"
           sodipodi:role="line">K</tspan></text>
      <path
         sodipodi:nodetypes="ccccc"
         inkscape:connector-curvature="0"
         id="path22-7"
         d="m 62.78281,36.789927 4.657858,6.451128 -4.657858,6.419028 -4.611275,-6.419028 z"
         style="fill:#ff0000;fill-opacity:1;stroke:#000000;stroke-width:0.06327772;stroke-linecap:butt;stroke-linejoin:miter;stroke-miterlimit:4;stroke-dasharray:none;stroke-opacity:1" />
    </g>
    <rect
       style="fill:none;fill-opacity:1;stroke:#000000;stroke-width:1.12687981;stroke-miterlimit:4;stroke-dasharray:none;stroke-opacity:1"
       id="rect964"
       width="168.87311"
       height="258.87311"
       x="20.563442"
       y="17.563457"
       rx="11.061727"
       ry="11.479745" />
    <g
       id="g213">
      <text
         transform="scale(-0.98362084,-1.0166519)"
         id="text861-8"
         y="-244.62996"
         x="-157.30576"
         style="font-style:normal;font-weight:normal;font-size:10.57309151px;line-height:1.25;font-family:sans-serif;text-align:end;letter-spacing:0px;word-spacing:0px;text-anchor:end;fill:#000000;fill-opacity:1;stroke:none;stroke-width:0.26432729"
         xml:space="preserve"><tspan
           style="font-size:17.62182045px;text-align:end;text-anchor:end;stroke-width:0.26432729"
           y="-244.62996"
           x="-157.30576"
           id="tspan859-9"
           sodipodi:role="line">K</tspan></text>
      <path
         sodipodi:nodetypes="ccccc"
         inkscape:connector-curvature="0"
         id="path22-7-7"
         d="m 146.69691,261.65991 -4.65786,-6.45113 4.65786,-6.41903 4.61128,6.41903 z"
         style="fill:#ff0000;fill-opacity:1;stroke:#000000;stroke-width:0.06327772;stroke-linecap:butt;stroke-linejoin:miter;stroke-miterlimit:4;stroke-dasharray:none;stroke-opacity:1" />
    </g>
    <g
       transform="matrix(0.71149464,0,0,0.71149464,-159.85485,-225.29503)"
       id="g506">
      <path
         inkscape:connector-curvature="0"
         d="m 289.53516,395.11133 c 0.085,79.12598 0.92634,176.36739 0.98437,262.54687 l 163.7168,-0.0391 -0.11719,-28.18555 c -0.0234,-0.094 -0.0301,-0.17408 -0.0195,-0.2539 -0.0558,-0.24512 -0.0454,-0.44543 0.0156,-0.61133 l -0.0254,-5.88867 c -0.0584,-0.26888 -0.11011,-0.53862 -0.125,-0.8125 -0.0499,-0.91731 -0.013,-1.58181 0.11328,-2.25 L 453.14453,395.4941 Z m 164.56445,234.06836 c 0.004,0.0172 0.0131,0.039 0.0176,0.0566 v -0.1211 c -0.004,0.0186 -0.0152,0.0468 -0.0176,0.0645 z M 337.92773,396.79102 c 28.2455,0.76662 56.66622,-0.0615 85.1211,0.16015 0,0 -10.33725,18.00802 -13.47071,23.67578 -0.68601,1.24638 -0.75639,2.12771 -0.38671,2.64453 0.57202,0.79968 0.52552,2.15321 -0.11524,2.93555 -0.27447,0.33517 -0.39918,0.55131 -0.41992,0.75195 -0.0207,0.20023 0.15757,0.42083 0.30273,0.78321 0.50596,1.72644 -0.79876,2.92048 -2.16601,3.47461 -0.91699,0.37166 -2.95828,0.61641 -4.46485,0.54492 -9.44279,-0.4481 -27.96283,-8.42676 -35.59374,-9.04883 -5.29506,-1.47837 -12.13724,-0.96209 -17.77735,-0.64258 -1.06487,0.064 -0.87695,-2.41797 -0.87695,-2.41797 -0.88871,-8.19809 -6.69674,-15.33708 -10.15235,-22.86132 z m 86.65625,0.75 26.69336,0.0273 0.11914,4.31055 -11.23046,11.51171 c -1.05764,1.07667 -1.89258,1.97071 -1.89258,1.97071 l -0.0684,10.38672 c -7.65653,-4.11394 -9.18175,-9.03034 -10.58008,-14.4375 -12.79859,9.44236 -13.39795,30.10663 0.57422,40.74414 0.11431,-4.62082 3.63673,-13.70128 9.87695,-14.375 l 0.0859,35.99414 -7.67383,-7.4961 -16.6875,0.2168 c 2.75066,-4.46349 2.81324,-8.00731 1.0332,-12.19141 -3.00013,-6.83557 -7.62849,-22.44102 -7.27343,-22.38867 0,0 0.13297,-0.3355 0.51172,-0.41992 1.3832,-0.3083 2.26207,-1.64305 1.86718,-3.24805 -0.0749,-0.51687 -0.0729,-0.39503 0.2793,-1.0664 1.35763,-2.31671 -0.25977,-4.83203 -0.25977,-4.83203 z m -88.52929,0.21679 10.01562,18.10547 c 0,0 -0.12946,0.82893 -0.0762,1.31641 0.0787,0.70119 0.31364,1.32674 0.71484,1.98047 0.26546,0.43246 0.46147,1.02283 0.52149,1.56836 0.0989,0.89861 0.0991,0.89809 1.41406,2.08398 0.27627,0.24914 0.32897,0.40332 0.22656,0.66211 -0.43524,1.09994 -0.18112,3.34823 0.67969,6.0332 1.08725,3.39104 1.36825,3.34729 -0.65625,7.88281 -0.42235,0.94734 -0.93355,2.21059 -1.48242,3.37305 -2.49974,5.13374 -2.88369,6.52713 1.40625,9.26367 1.2078,0.77045 1.56143,1.43802 1.25976,2.97266 -0.23734,1.20732 -0.28725,1.9794 0.29297,2.66016 0.37614,0.44133 0.71741,0.5131 0.62305,0.85351 -0.0642,0.23167 -0.34368,1.23563 -0.25,2.08008 0.25248,2.27522 -2.37535,5.62837 -4.77344,6.80273 -0.47979,0.34025 -0.61735,-0.0756 -0.88867,-0.55078 -2.48438,-4.35068 -8.66954,-2.58785 -9.08008,2.60157 -0.10855,1.37216 -0.0659,1.96605 -0.41992,2.25781 -0.11995,0.0989 -0.48242,0.30469 -0.48242,0.30469 0,0 -9.25372,6.01932 -15.14063,9.11328 -0.38381,0.20171 -0.72917,0.53537 -1,0.58984 -0.31282,0.0629 -0.5448,0.005 -0.73828,-0.18945 -2.1727,-4.13273 -0.96758,-9.01382 -0.78125,-10.74414 -0.0468,-0.61303 -0.57107,-0.72514 -1.36133,-0.73438 -1.33816,-0.0156 -3.26493,1.34265 -3.68359,2.60742 -0.35598,1.07531 -0.58529,1.7704 -0.9082,1.76563 -0.32452,-0.005 -0.48293,-0.43811 -1.28906,-1.98828 -1.67722,-3.22544 -1.93588,-3.6345 -3.50391,-5.50781 -1.2507,-1.4942 -2.31719,-1.69127 -3.54297,-0.57813 -0.85216,0.7739 -0.82348,0.10187 -1.54883,-0.28906 -1.2521,-0.85219 -3.13513,-0.0901 -3.18164,1.10937 -0.039,1.0064 -0.0473,1.76371 -1.0664,1.83008 -1.13512,0.0739 -1.6263,1.53884 -1.30664,3.62891 0.16825,1.09997 0.1997,1.27671 -0.13672,1.67968 -1.09774,1.31495 -1.24069,2.22254 -0.63672,4.0586 1.72151,5.23336 4.21664,8.75677 6.56054,13.51562 0,0 -5.95565,3.37971 -9.49023,5.34375 l -0.0918,-97.37109 z m 115.72461,5.17383 0.13867,84.58594 -12.78125,-12.56446 c 0,0 -0.24882,-16.20914 -0.23633,-22.83593 0.0127,-6.6268 0.10886,-13.254 0.082,-14.48633 -0.0267,-1.23233 0.0675,-6.47603 0.10742,-11.85938 0.0838,-11.27801 -0.94853,-9.88314 1.14844,-12.04687 z m -24.97852,10.14063 0.70313,2.04296 c -5.35623,3.07052 -11.9085,20.1694 0.12109,32.72461 l -0.24023,2.58789 c -12.6089,-11.43672 -10.27532,-27.83879 -0.58399,-37.35546 z m 0.91602,2.41406 c 1.83825,3.79381 3.92965,7.15235 6.78125,9.20898 -1.53569,3.66561 -2.19545,7.71066 0.40625,13.16407 -1.8248,1.00132 -4.36038,3.65893 -6.98438,9.10351 -9.49275,-9.58947 -7.38014,-23.49354 -0.20312,-31.47656 z m -70.6211,7.16797 c 5.26459,0.009 10.75621,0.86783 15.78907,2.38476 3.17478,16.04822 8.75,26.83718 8.72656,33.1211 0,0 -0.43886,-0.0736 -1.375,-0.74805 -2.29325,-1.65567 -5.30556,-0.73246 -6.91797,1.375 -1.52852,1.99783 0.0116,4.77803 -0.77148,5.94336 -1.4826,2.17286 -5.29844,6.18951 -5.9375,6.05664 -0.46486,-0.0966 -0.38919,-0.29933 1.24609,-2.80859 1.70316,-2.61342 3.00929,-4.98177 2.44726,-5.56055 -0.23846,-0.24564 -0.36557,0.27285 -1.63671,2.48047 -2.98355,5.18167 -5.60739,8.38516 -6.64649,7.96875 -0.48647,-0.19495 -0.23444,-0.62441 1.97461,-3.54297 2.49494,-3.29615 3.18719,-5.35739 2.93945,-6.26953 -0.19043,-0.701 -0.57747,0.43199 -1.61328,2.45703 -1.10343,2.14327 -3.0982,4.53067 -4.71093,6.82422 -0.51138,0.83008 -1.16739,1.31082 -2.00782,1.68945 -0.6229,0.26989 -1.61547,0.71245 -2.1914,0.63867 -0.29595,-0.0379 -0.0911,-0.21316 0.31445,-0.60937 3.18269,-3.27756 5.91781,-6.93127 7.4707,-10.43946 0.23985,-0.46011 -0.10293,-1.11563 -0.49609,-0.63281 -2.38127,4.19025 -5.69699,9.41823 -9.29688,11.72461 -0.77272,0.49423 -1.93429,0.9123 -2.98242,0.82422 -1.77201,-0.0508 -1.14683,-0.44381 0.4668,-1.48047 3.45421,-2.21906 8.30116,-8.59883 9.08398,-10.85547 0.18501,-0.53331 -0.0203,-0.8396 -0.36132,-0.80273 -2.84202,4.54652 -6.59593,9.5495 -10.96094,11.64258 -2.35225,1.12823 -5.31864,1.34999 -6.77735,0.63672 -1.06888,-0.5227 -0.80083,-0.70144 1.09571,-0.82422 4.56403,-0.45006 9.91043,-4.7343 12.55859,-9.26758 1.55016,-2.50993 0.46381,-1.93471 -1.30664,0.48633 -3.02193,4.13235 -9.02362,8.09441 -12.74414,7.78125 -3.7627,-0.2227 -5.92694,-3.13757 -5.44336,-5.63672 0.29257,-1.51201 1.36647,-3.05251 3.4707,-3.49414 3.60376,-0.75635 5.96237,4.95077 2.66407,6.02734 -1.12333,0.36666 -1.55127,0.0893 -1.14454,-0.36133 2.44658,-1.07065 1.35866,-4.01024 -0.70507,-4.31054 -1.29857,-0.18896 -2.80368,0.68453 -2.86719,2.69726 0.0377,1.50039 1.27233,2.96891 3.75,3.00391 2.9375,0.0415 7.44452,-2.07378 10.17969,-5.9668 1.94092,-2.97532 0.15396,-1.97167 -1.29297,0.0137 -1.27672,1.75174 -5.40051,4.20309 -5.71485,4.11328 l 0.14063,-2.01757 c 0.0628,0.34867 6.3489,-3.95517 5.98047,-7.15821 -0.23577,-2.325 0.10299,-3.03676 2.52343,-3.00781 1.80951,0.0217 4.11082,0.65805 4.7793,1.48828 0.68932,0.82131 1.46101,1.07992 1.11914,-0.30469 -0.55473,-2.24717 0.11053,-2.61768 -1.1914,-2.1914 -0.8984,0.29416 -1.69674,-0.42679 -2.59766,-1.06641 -0.99108,-0.7036 -2.24424,-1.00495 -3.74023,-0.95117 -1.1175,0.0402 -1.62178,-0.0279 -1.44336,-1.08203 0.12583,-0.74349 0.26818,-1.419 0.0527,-1.90625 -0.35011,-0.79234 -1.74909,-1.61097 -3.33008,-2.77539 -1.86669,-1.37482 -1.52084,-1.45504 2.45703,-10.62305 1.67018,-3.84942 1.67726,-4.64023 0.67579,-7.48242 -1.58261,-4.49112 -1.83087,-6.28886 1.13476,-6.91602 1.67884,-0.19266 3.40922,-0.28805 5.16406,-0.28515 z m 16.83985,2.60156 1.54101,0.43945 c 0.0116,10e-4 4.80634,16.41365 7.55274,24.42774 0.83796,2.4451 1.47657,5.75008 1.63672,8.85351 -0.0754,4.27305 -2.48176,7.33839 -5.41602,7.67383 -2.0772,0.23746 -4.32978,-0.84049 -5.36133,-3.15234 -0.87057,-2.19841 -0.21414,-4.79095 2.29297,-5.68555 4.33994,-1.54866 7.51749,3.99004 3.26172,5.69531 -2.20136,0.88207 -4.29251,-0.7081 -3.30078,-2.55859 0.6952,-1.2973 2.65088,-1.15641 3.11328,0.18359 0.37685,1.42627 1.0013,0.75502 0.73437,-0.21093 -0.80709,-3.07707 -4.76083,-2.35239 -5.07812,0.48242 0,3.51235 3.8447,4.33751 6.13867,2.36523 1.77743,-1.57658 1.96526,-4.42644 1.52149,-6.89844 -0.61024,-5.13463 -3.51701,-11.79441 -5.58008,-19.39453 -1.03016,-3.79492 -2.52368,-8.31855 -3.05664,-12.2207 z m 61.26757,0.18359 2.89063,1.14453 -0.0664,9.52735 -2.45312,0.84375 c -3.2085,-4.90238 -0.53955,-11.51128 -0.3711,-11.51563 z m -58.60156,0.61719 2.11914,0.81641 c 1.16056,6.72573 6.63162,19.58222 8.5625,29.17773 0.53792,5.7672 0.62319,7.45864 -3.2832,10.53125 v -0.043 h -2.11328 c 0,0 -0.009,-0.12875 0.91601,-0.82031 5.1161,-3.82612 2.06304,-12.25813 0.13086,-18.73828 -3.36637,-10.34928 -6.37362,-20.93684 -6.33203,-20.92383 z m -19.80468,0.67188 c -0.26844,0.003 -0.54152,0.0145 -0.81641,0.0293 -3.19601,0.17161 -3.72024,0.37523 -3.73047,1.07031 -0.0192,1.3092 0.51775,1.88964 3.49023,1.56836 2.5726,-0.27806 6.29757,0.12171 8.86524,1.22657 2.92905,1.26035 3.62498,1.55767 4.67773,2.09961 2.64285,1.36051 2.1817,0.006 -0.20703,-1.56446 -4.87983,-3.20903 -8.25274,-4.47818 -12.27929,-4.42968 z m 23.05664,0.46289 1.99023,0.75781 c 0,0 0.52431,1.55026 0.71289,2.4375 1.93519,8.58591 7.19857,18.24167 7.81445,28.28516 0.13908,3.29126 -0.42508,6.35989 -2.83789,7.84374 h -1.81836 c 1.94544,-1.93491 3.24095,-2.49326 2.69727,-9.21874 -0.861,-8.6375 -6.55918,-19.43071 -8.55859,-30.10547 z m 3.52929,1.39453 1.83399,0.67578 c 2.11205,11.59456 12.58403,28.91839 5.91797,37.27734 h -1.66602 c 1.48706,-2.3194 2.10187,-4.35656 1.87891,-7.48633 -0.6481,-10.53546 -6.02303,-20.76004 -7.96485,-30.46679 z m 3.07422,1.0664 1.97461,0.60352 c 2.68019,11.74728 12.97879,30.99828 5.63672,36.32226 l -1.44727,-0.0391 c 5.53193,-10.34083 -2.85425,-21.04188 -6.16406,-36.88672 z m 3.44141,1.09571 c 0.60631,0.33715 1.47211,0.49976 2.13281,0.6914 2.07751,8.88248 5.87573,17.61762 7.60352,25.89063 0.58166,4.52937 -0.41191,7.92041 -3.25782,9.20898 h -0.60937 c 2.5538,-3.85541 2.07354,-8.71745 0.71094,-13.97265 -1.83248,-7.06743 -5.39358,-14.84387 -6.58008,-21.81836 z m -31.10352,0.15429 c -0.91713,-0.009 -1.87582,0.13194 -2.89062,0.45508 -1.03928,0.39273 -0.91172,1.21235 0.0527,1.04297 0.32696,-0.0574 0.90576,-0.1617 1.28906,-0.22851 2.36814,-0.41296 5.28565,0.4422 8.82227,2.58398 0.85409,0.51723 1.78333,1.0137 2.01367,1.18555 0.64987,0.4848 1.34323,0.48322 1.10547,-0.13477 -0.0952,-0.24739 -1.46021,-1.30343 -2.66602,-1.97852 -2.57893,-1.55892 -4.97508,-2.89981 -7.72656,-2.92578 z m 34.45899,0.77344 1.98828,0.30469 c 3.74067,17.19062 11.95109,27.87125 4.92773,34.25 h -1.75586 c 1.92165,-1.96287 2.78936,-5.03515 2.15235,-8.66797 -0.65029,-3.70819 -2.56695,-9.59566 -4.15625,-14.77148 -1.84243,-6.00014 -3.32521,-11.073 -3.15625,-11.11524 z m 2.85156,0.48242 1.68555,0.31446 c 1.97345,6.98775 5.32454,15.64845 7.34179,22.86328 1.24063,4.43699 0.74207,9.90332 -2.02734,10.91015 l -1.42383,0.0234 c 2.35055,-3.14073 2.68509,-6.41177 1.61133,-10.64258 -2.20403,-8.68396 -5.5404,-16.26325 -7.1875,-23.46875 z m 10.39844,0.01 c 1.7021,7.24412 5.78591,18.29534 7.2539,22.11133 1.95285,3.89694 1.36749,9.66725 -1.56836,11.95117 l -1.39062,0.0293 c 1.67928,-1.57022 2.25566,-4.21409 1.98828,-6.95508 -0.75567,-7.74607 -6.23882,-18.4888 -8.22461,-26.74024 z m -7.39063,0.3418 1.73828,0.16015 c 1.7401,7.57729 5.12488,14.94245 7.32227,22.52149 0.4093,1.71068 0.76437,3.79979 0.62109,5.33789 -0.30037,3.22469 -1.63559,5.76953 -2.80859,5.76953 h -1.19727 c 2.44486,-2.9132 2.3258,-6.88668 1.2793,-11.15625 -1.72961,-7.05631 -5.91268,-15.56392 -6.95508,-22.63281 z m -45.24219,0.0391 c -0.7241,0.004 -0.7368,0.66665 0.41993,1.67969 0.70766,0.61976 0.65353,0.41362 0.61328,0.80664 -0.17202,1.67821 0.0912,3.21394 0.78125,1.48632 0.18423,-0.46133 0.45455,-0.98259 0.72461,-0.91796 0.50997,0.15732 0.25188,1.09619 0.49804,1.57031 0.41605,0.83601 -0.0274,1.0399 -1.03906,0.78125 -0.72809,-0.18616 -0.76887,0.20742 -1.2207,0.70898 -0.79109,0.87814 -0.66262,1.40377 0.55468,1.13086 0.20081,-0.045 0.37169,0.0111 0.52735,0.0469 0.37969,0.0873 0.72627,0.32918 1.63086,1.01953 1.16207,0.88683 2.80744,2.06747 3.875,2.24805 1.71001,0.28922 1.32887,-0.52967 -0.0723,-1.06641 -1.20022,-0.45981 -2.68877,-1.73653 -2.68359,-2.08985 0.003,-0.27138 0.38207,-0.11073 2.54492,-0.70507 0.93835,-0.25786 2.25648,-0.83373 2.8125,-1.08985 0.91802,-0.42287 0.96296,-0.41987 2.40039,-0.37695 2.44813,0.0731 2.8219,-0.01 1.10547,-1.2832 -3.46861,-2.57348 -8.09859,-4.2494 -10.55273,-3.18164 -0.74417,0.32377 -0.72582,0.12519 -1.26368,-0.1836 -0.70291,-0.40355 -1.27696,-0.58594 -1.65625,-0.58398 z m 49.64844,0.23242 c 2.40438,9.26161 7.05629,17.55868 8.1875,26.34375 0.25597,2.51287 -0.16545,4.96901 -2.25391,7.0918 l -1.41015,0.0234 c -0.20656,0.003 1.96782,-3.35876 1.78125,-6.23632 0.0565,-1.53524 -0.11342,-3.18092 -0.55078,-4.80664 -2.73189,-7.81049 -5.42097,-14.88969 -7.50977,-22.33399 z m -43.41601,3.04102 c 0.0136,-0.002 0.0246,-0.002 0.0371,0 0.65587,0.10294 0.67904,0.3621 0.48829,0.70312 -0.28277,0.50556 -0.78125,1.47852 -0.78125,1.47852 0,0 -0.66638,0.13031 -0.80274,-0.0391 -0.23959,-0.34793 0.63875,-2.09131 1.0586,-2.14257 z m 1.66406,0.29882 c 0.0728,-10e-4 0.16339,0.0362 0.30469,0.0918 0.62952,0.24872 1.72208,0.75973 1.25,1.1543 -0.55924,0.4674 -2.72644,0.6773 -2.6211,0.48242 l 0.72461,-1.33789 c 0.15359,-0.28414 0.22046,-0.38882 0.3418,-0.39063 z m -6.63672,8.09375 c -0.056,0.003 -0.10391,0.0171 -0.14063,0.0391 -0.12572,0.0752 0.16073,0.57828 0.57618,1.14843 1.9173,2.5868 -0.73793,3.35526 -2.61719,1.97071 -1.7842,-1.38732 -4.53811,-1.25735 -4.14063,0.19726 0.14011,0.51281 0.002,0.76268 0.99805,0.77735 0.88511,0.013 1.11419,0.0617 1.91211,0.60742 3.05136,2.08703 6.99425,-0.70574 5.06836,-3.70117 -0.36353,-0.56546 -1.26386,-1.06129 -1.65625,-1.03907 z m 7.5293,4.04102 c -1.10807,-10e-6 -1.80766,0.82677 -0.41993,1.07422 4.95659,0.88993 1.63247,6.02887 -1.86328,3.38086 -3.15013,-2.84348 -7.36169,-2.82422 -7.41211,-0.80664 -0.007,0.5078 0.0151,0.52496 0.76172,0.66601 1.75575,0.3317 4.37882,1.13062 5.38282,1.63672 0.5903,0.2976 1.20965,0.57502 1.3789,0.61719 2.09938,0.76293 4.79337,-0.22799 5.32617,-1.9961 0.48764,-1.61817 0.092,-4.57226 -3.15429,-4.57226 z m -62.17383,16.53711 c 0.66366,0.008 1.36951,0.58766 1.87305,1.4375 1.16354,1.96381 2.57812,5.26605 3.48046,7.08594 0.22747,0.45878 0.23701,0.86805 0.22266,1.08593 0.0709,1.0669 0.42741,1.47065 1.06055,0.99024 0.62267,-0.47247 1.48625,-1.26364 0.47265,-1.39063 -1.01902,-0.76783 -1.58616,-1.89538 -0.95508,-2.58203 0.46454,-0.50543 0.28282,-0.83489 -0.0918,-0.85547 -1.42808,-0.021 -3.55594,-4.26855 -2.55274,-5.18359 1.35363,-1.23468 2.85013,0.29425 6.03711,6.61719 1.4044,2.79234 1.4696,5.84977 0.26563,4.33593 -0.40921,-0.38145 -0.32488,-0.18478 -0.80469,1.01758 -0.36074,0.90388 -0.65805,1.33206 -2.0332,2.6543 -1.67462,1.61021 -2.68897,2.88312 -2.72656,3.16211 -0.0718,0.53327 0.90485,0.0361 1.61718,-0.89258 1.59128,-1.55436 1.6511,-1.96861 1.63672,0.0918 -0.013,1.86348 -0.10911,2.20403 0.22656,2.1914 0.52319,-0.0197 0.80256,-1.49472 1.04688,-3.27343 0.29174,-1.60212 1.12404,-2.40956 2.50976,-3.30078 0.38039,-0.24469 0.38758,-0.41473 0.31446,-1.1211 -0.25586,-2.26328 1.03128,-6.48303 1.61718,-5.43945 0.0826,0.23486 0.33672,0.78364 0.47266,1.16797 0.10954,0.59562 0.48405,1.26939 1.05664,1.31445 0.71161,0.53252 0.70853,0.81935 0.95508,2.76953 0.0806,0.63664 0.36286,1.59177 0.56055,2.09961 0.36801,0.94528 0.69689,1.49918 0.49218,1.78125 -0.12999,0.13892 -0.40429,0.40039 -0.40429,0.40039 l -11.60352,6.87891 c 0,0 -0.91269,0.5023 -1.24219,0.64062 -0.91956,0.41525 -1.47749,0.10934 -1.92968,-0.57812 -2.45881,-3.66184 -4.14754,-7.7761 -5.875,-11.57032 -1.03724,-2.25218 -0.0215,-3.74159 1.31836,-1.92578 0.52075,0.70577 0.2538,1.15563 -0.006,2.51954 -0.0469,0.24671 0.18263,0.15301 0.61328,0.22265 0.67776,-0.0728 1.00532,0.53178 0.98047,1.55859 -0.42794,1.47121 0.16317,0.6769 0.44336,0.60352 0.53631,0.008 0.65656,0.33038 0.95703,0.94141 0.1876,0.86151 0.56593,0.61145 1.11914,0.043 0.45718,-0.46988 0.45922,-0.45791 -0.46289,-1.5586 -1.5927,-1.72562 -3.80126,-5.6221 -4.37305,-7.99414 -0.15772,-0.65432 -0.1,-1.17716 0.0195,-1.52539 0.71962,-1.62026 1.72005,-1.6243 2.8125,0.63867 0.18589,0.38507 0.55326,1.00414 0.8125,1.37891 0.42007,0.60731 0.68024,1.12971 0.66602,2.0957 -0.32304,0.80941 -0.37655,0.82483 -0.0977,0.93555 0.69265,0.27381 1.92313,1.52661 1.97852,2.64648 0.0562,1.13759 0.24937,1.74138 1.14453,1.06641 1.02063,-0.76959 0.58611,-1.07964 -0.41992,-2.06641 -1.0544,-1.25483 -1.11776,-2.34235 -0.49219,-3.24804 0.10231,-0.30394 0.0591,-0.391 -0.32813,-0.35352 -1.22456,0.1185 -2.41561,-1.43022 -1.56445,-2.60937 0.39175,-0.69092 0.34635,-0.86954 -0.20703,-0.88868 -0.28839,-0.01 -0.7653,0.0441 -1,-0.0879 -0.36197,-0.67862 -1.11713,-1.62587 -1.10938,-2.40234 0.35705,-1.09189 0.91053,-1.5324 1.4961,-1.52539 z m 72.72656,0.0566 c 2.01182,1.23368 4.00459,2.51782 6.26563,3.10351 -5.23814,9.4344 -13.66344,14.49013 -20.7129,16.46485 0.23992,1.20749 0.40978,2.41135 1.57813,3.15234 -0.0398,-0.18247 -0.55681,-2.32522 -0.44336,-2.76562 9.71143,-2.47965 18.25922,-11.99305 20.44531,-16.89844 l 42.67969,-0.46484 c -31.63902,30.35031 -32.90016,73.06591 -7.08594,108.86914 l -2.96875,1.73437 c -19.89148,-29.79523 -19.68893,-58.50227 -13.72265,-77.72656 4.23016,-13.63033 11.82158,-24.04313 17.58984,-29.99414 0,0 -23.1392,-0.31875 -34.65625,0.10547 -1.67314,2.55966 -3.22925,4.65006 -5.47852,7.0664 0,0 5.85044,-5.64982 5.69922,-6.63086 10.67368,-0.006 21.68061,-0.62392 32.33985,0.11915 -12.47358,14.9279 -18.62081,30.3403 -19.6875,44.83789 -0.0396,1.88567 -0.15375,0.83217 -0.77735,1.52539 l -1.9707,3.05468 -1.57812,-3.17578 c -1.07293,-0.34654 -3.18249,0.2122 -4.07813,-0.11133 -4.38833,19.57761 0.0456,43.20701 5.82031,58.62696 0,0 -1.44836,0.81218 -3.23242,0.67578 -1.95283,-0.43365 -2.43122,0.10559 -4.12305,0.44922 -1.9454,0.37005 -2.62376,0.36582 -3.05468,0.85742 -0.23963,0.27337 -0.67358,0.65518 -1.16407,0.92187 -4.73922,1.72162 -10.30078,8.17774 -10.30078,8.08594 l -5.21679,-2.3418 c 4.80765,-9.44136 10.45018,-12.83931 20.36914,-17.02929 l -0.92188,-4.2168 c -10.56456,3.93542 -17.2878,8.64635 -22.58984,17.80078 -6.43318,-0.0913 -32.49038,-0.27494 -32.51758,-0.19336 10.62904,-12.08705 19.00767,-30.31917 19.92383,-44.5332 0.22475,-2.76859 -0.16196,-1.43753 1.0625,-2.26367 l 1.92578,-2.29297 1.51172,2.25977 c 0,0 1.09329,1.3933 1.78515,0.23242 1.93841,-19.82145 -0.11285,-42.42324 -9.66406,-58.17774 1.69453,-0.11186 3.38278,-0.15925 5.00586,0.80078 3.73567,8.45977 5.93712,18.91187 6.89258,26.7461 1.20932,9.91577 1.03834,21.09845 -0.19336,30.5957 l 0.63867,0.0879 c 1.8616,-12.34285 1.23015,-25.47111 -0.47851,-36.94531 -0.87702,-5.98584 -3.70113,-15.34622 -5.64258,-19.66797 -0.53644,-1.19419 -0.95401,-1.50283 -0.44531,-1.67969 11.63925,-0.97939 16.99065,-4.86437 21.17187,-11.06445 z m -32.27344,1.04297 c 0.89038,0 1.61328,0.72291 1.61328,1.61328 10e-6,0.89037 -0.7229,1.61133 -1.61328,1.61133 -0.89037,0 -1.61131,-0.72096 -1.61133,-1.61133 0,-0.89037 0.72096,-1.61328 1.61133,-1.61328 z m 87.48243,0.82031 c -3.40761,3.08432 -6.14541,6.28086 -9.02149,9.6875 8.51163,11.70481 17.96973,24.39373 25.92383,34.53125 0,0 2.75343,-1.63087 2.74219,-1.83398 -0.006,-0.10699 -0.21932,-0.6453 -0.26953,-0.52539 -0.11807,0.28161 -2.23047,1.46093 -2.23047,1.46093 L 420.39453,477 c 0,0 1.3635,-1.63418 1.78516,-2.14844 1.956,-0.64298 7.39911,-7.38481 7.66601,-7.24609 4.26429,3.26662 17.12485,17.11442 22.07813,21.35937 l 0.0625,38.43555 c -0.51262,1.53785 -14.22439,7.46416 -23.90821,29.57422 -4.86946,2.72849 -10.26413,4.1975 -15.28124,6.57031 0,0 1.27766,2.00666 1.90234,2.55664 -0.76652,-1.65619 -0.90315,-1.97122 0.83398,-2.67773 l 36.23633,-14.76953 -0.0684,2.98242 -0.58789,5.15039 c -9.86105,6.08114 -18.18368,8.62882 -31.75586,17.80078 -0.96932,0.22553 -1.75059,1.1567 -2.77148,1.20703 -34.67078,-51.06021 -12.50681,-89.53119 7.69922,-108.85937 z m -112.9043,2.61133 c 0.94601,0.0156 0.70725,2.21017 0.35742,2.96875 -0.6986,0.54888 -1.396,0.0619 -1.38086,-0.96485 0.004,-0.33476 -0.0604,-0.65132 -0.14453,-0.70507 -0.5242,-0.33477 0.35303,-1.31084 1.16797,-1.29883 z m 21.17578,1.37109 c 0.79653,0.6046 1.09086,1.4092 1.38476,2.21485 -1.07467,-0.16882 -3.95123,-0.99207 -2.60156,-1.63477 z m -5.23828,2.85352 c 25.00597,37.81759 23.88831,77.98333 -4.01953,108.42969 l 35.30664,-0.0547 c 4.4943,-8.86842 11.98239,-14.27185 21.5625,-17.60156 l 0.83398,2.7832 c -11.01013,3.53457 -16.5793,9.39366 -21.00976,17.51172 h -42.10938 c 16.17859,-17.40748 23.58941,-32.11185 24.75586,-52.00391 1.11085,-18.94428 -3.70788,-36.24544 -18.3457,-57.0625 z m 7.04687,0.43359 5.89844,2.78516 -0.87305,6.05273 -6.17773,-2.84765 z m -10.63281,1.69922 c 31.53742,47.7071 18.01117,81.26359 -7.16797,109.19141 l -4.63867,0.0781 -10.8125,-10.04492 0.19922,61.03516 c 0,0 -10.54263,10.32823 -11.75391,11.5664 -1.19674,1.15211 -2.0957,-0.61914 -2.0957,-0.61914 l 0.0293,-80.91211 0.46875,-3.16992 0.14453,-17.43555 6.71875,-3.54297 25.19726,33.0254 c 0,0 -1.01273,1.49281 -1.48242,1.75781 -0.30546,0.17248 -0.0817,0.46712 0.17383,0.43359 0.70745,-0.0928 2.72685,-2.35022 2.30273,-2.71289 -9.1399,-11.32298 -26.13281,-33.49414 -26.13281,-33.49414 l -7.07617,3.69336 c 0,0 0.20376,-14.47476 0.0762,-20.03125 0.27174,-1.31072 1.25616,-0.95983 1.91797,-1.54492 8.1484,-5.23709 13.8895,-11.62945 17.43359,-17.83008 0.26048,-0.46345 1.82946,-3.2474 1.98438,-3.5 0.55265,-0.90103 1.92423,-3.71666 2.72265,-5.51562 0.44629,-1.0057 0.91985,-2.22506 1.09961,-2.3711 4.90277,-1.59631 10.04887,-3.86261 14.97266,-5.89844 l -7.08984,-10.64257 z m -19.32617,0.60742 c -0.26606,-0.004 -0.94393,0.30417 -1.85938,1.13477 -1.6901,1.53345 -3.9168,4.05379 -3.92382,4.5332 0.45336,0.16361 0.85505,-0.0985 1.21679,-0.46484 1.41361,-2.08664 3.59814,-2.90082 4.87891,-4.72852 0.19905,-0.338 -0.01,-0.47883 -0.3125,-0.47461 z m 15.88476,2.2168 c 0,0 4.89268,7.12814 6.14454,9.02148 -12.89308,5.10498 -26.38382,11.84607 -38.33399,16.20704 v -2.85743 l 1.88672,-5.13086 z m 19.18165,4.71094 4.82226,2.49023 -1.36133,5.43945 -4.86523,-2.72265 z m 3.97656,9.04882 3.96289,2.88672 -1.8086,4.61524 -3.99218,-2.7461 z m -32.33399,3.38477 c 0,0 -0.6111,2.13955 -1.63672,4.05469 -4.90399,8.52029 -9.70126,16.0912 -19.61523,22.66601 -0.37737,-0.33568 -1.45898,-2.22461 -1.45898,-2.22461 l -0.0957,-2.52539 c 5.256,-4.22227 9.79227,-7.32185 16.75391,-19.71289 l 2.01758,-0.82031 1.71875,0.74414 1.16211,-2.07617 z m 20.625,0.0195 c -4.56884,9.6926 -9.06462,19.6893 -16.34375,27.24219 l 19.91992,27.80664 c 6.55474,-19.6334 4.12182,-38.03327 -3.57617,-55.04883 z m -25.0664,2.11328 -0.95508,1.65625 1.65625,0.95508 0.95508,-1.6543 z m -2.70313,0.17969 c -3.60912,8.06913 -9.02468,14.27699 -16.13476,18.74219 l -0.27539,-11.83985 z m 1.26953,2.4082 -0.95507,1.65625 1.65624,0.95508 0.95508,-1.65625 z m 40.71485,0.34766 3.59179,3.4082 -2.13476,3.75977 -3.68164,-3.04688 z m 55.01562,1.67383 c -0.004,0.002 -0.008,0.006 -0.01,0.01 -6.31125,19.61645 -4.41474,38.35403 4.24414,54.66407 4.24817,-10.57233 7.73508,-17.64667 16.02929,-28.90235 -5.10744,-6.68719 -19.75031,-25.98317 -20.26367,-25.77148 z m -97.13867,0.31445 -1.00391,1.62695 1.62696,1.00391 1.0039,-1.62695 z m 27.53711,2.28711 c 5.68946,13.60062 5.18744,25.86485 2.16211,36.49219 l -14.21094,-17.95117 c 5.20605,-6.46209 8.66455,-12.58196 12.04883,-18.54102 z m -29.00586,0.0488 -1.07617,1.57812 1.57812,1.08203 1.07813,-1.58398 z m -1.58789,2.25976 -1.17773,1.50977 1.50585,1.17773 1.17774,-1.50976 z m 46.81641,1.60743 3.21875,3.05468 -2.03125,3.96289 -3.26758,-2.98828 z m -48.67383,0.74218 -1.23633,1.45313 1.45312,1.23633 1.23633,-1.45313 z m 103.79492,0.42969 14.33594,18.49609 c -4.7951,5.70705 -8.77951,12.43166 -12.3418,19.67969 -3.99412,-12.51552 -5.79757,-24.81324 -1.99414,-38.17578 z m -105.80859,1.87305 -1.32227,1.38086 1.38086,1.32226 1.32227,-1.38086 z m 33.48828,1.84961 -6.5586,9.48437 7.51953,9.59961 c 0.80917,-5.19702 0.99056,-11.22858 -0.96093,-19.08398 z m -35.625,0.30859 -1.41016,1.29297 1.29297,1.41016 1.41016,-1.29493 z m -2.07227,1.84766 -1.48633,1.20703 1.20703,1.48633 1.48243,-1.20703 z m 56.02539,0.98047 2.69336,3.14648 -2.73242,3.23828 -2.55664,-2.875 z m 34.24219,0.56445 1.82812,0.0684 c -3.00043,29.59355 2.89805,44.56603 8.11524,57.58789 0,0 -0.0137,0.52206 -0.18945,0.67578 -0.84983,0.29267 -2.56828,0.60877 -3.94727,-0.60351 -7.01908,-18.04116 -8.55007,-40.26409 -5.80664,-57.72852 z m -92.67578,0.38086 -1.54883,1.12109 1.11914,1.54883 1.55078,-1.11914 z m 114.65625,1.05273 c -0.46538,0 -0.86851,12.1747 0.88476,18.11914 l 6.59766,-8.9375 z m -17.05664,2.00782 2.20508,2.96484 -2.3418,3.18945 -2.39258,-3.02148 z m -99.39063,0.80664 c 0.11064,-0.0175 0.29183,0.29028 0.64649,0.53515 0.32967,0.34468 0.28296,0.31918 -0.0859,0.61328 -0.57698,0.45993 -0.74882,0.3849 -0.73828,-0.33398 0.0496,-0.59147 0.0917,-0.80085 0.17773,-0.81445 z m 60.35547,2.22461 2.4375,3.49023 -2.69922,3.4707 -2.30664,-3.65429 z m 38.8418,4.42187 2.5664,3.12695 -2.20507,3.43164 -2.80469,-3.27734 z m 59.45703,0.66016 0.22656,3.60547 -0.88867,-1.31641 -1.63086,1.25 1.13867,1.50977 1.42383,-1.10938 0.0859,1.45312 c -9.04383,6.53576 -12.94386,14.04251 -16.61328,19.67383 l -1.63086,0.68946 -1.85938,-0.58789 -0.90625,1.60742 -1.57812,0.37109 c -0.0481,-0.01 3.16882,-6.9015 8.67383,-13.91601 4.90195,-6.24613 13.53297,-13.28803 13.55859,-13.23047 z m -2.97461,4.08398 -1.47656,1.21094 1.27344,1.46289 1.47265,-1.21094 z m 4.02148,1.55859 0.0762,12.82032 -16.1836,6.25195 c 4.2004,-7.15698 9.15357,-13.79921 16.10742,-19.07227 z m -6.29492,0.37305 -1.42383,1.26953 1.32813,1.41407 1.42383,-1.2793 z m -54.04492,0.70899 3.05078,3.24804 -2.23633,3.83789 -3.17578,-3.04687 z m 51.74805,1.36523 -1.33789,1.36719 1.46289,1.4043 1.33789,-1.36524 z m -2.10547,2.1582 -1.2832,1.41993 1.55468,1.3457 1.28321,-1.41797 z m -2.11328,2.41797 -1.19141,1.4961 1.61524,1.25 1.19335,-1.5 z m -46.48242,2.29883 3.8125,2.47461 -1.86329,4.53711 -3.80664,-2.90039 z m 44.63867,0.0176 -1.11914,1.55469 1.72265,1.17773 1.13477,-1.60742 z m -1.72266,2.45312 -1.03906,1.60743 1.74219,1.11914 1.0332,-1.66016 z m -1.54101,2.42774 -0.95508,1.65625 1.80468,1.02734 0.95704,-1.67578 z m -1.38868,2.50976 -0.95703,1.65625 1.99805,0.86328 0.79297,-1.57812 z m -37.91992,1.02344 3.9043,2.64453 -1.72852,4.75586 -4.12109,-2.91601 z m 56.62305,4.67774 0.19336,97.83007 -42.99219,0.14844 c 0,0 -2.01009,-3.53645 -6.2168,-11.70898 -1.78113,-3.45995 -3.28693,-4.92991 -3.4414,-7.66992 0.16099,-1.60917 -0.58338,-3.43437 -1.90235,-4.16993 -0.44291,-0.247 -1.18517,0.0499 -0.9375,-0.63867 0.27251,-0.7578 -0.56289,-1.92409 -0.79101,-2.17187 -0.26016,-0.43838 -0.0974,-0.54413 -0.125,-2.17579 -0.0266,-1.57704 -0.11117,-2.23721 -0.44922,-3.42773 -0.85426,-3.00851 -1.04361,-4.512 -0.55469,-6.07227 1.26974,-3.95713 2.59272,-6.99226 4.30469,-10.68164 0.99564,-2.15934 0.8434,-3.00224 -2.21094,-4.57031 -2.28689,-1.17407 -2.59112,-1.16191 -2.30273,-2.87695 0.13515,-0.80354 0.26076,-1.31049 0.0918,-1.69922 -0.1029,-0.23678 -0.48103,-0.56792 -0.70312,-0.75781 -0.29841,-0.25513 -0.20963,-0.78228 0.0957,-1.17383 0.29956,-0.38422 0.30262,-0.93192 0.006,-1.84766 -0.6248,-1.92598 0.78724,-4.47903 3.45899,-6.24218 1.18089,-0.77927 1.14916,-0.61785 2.38086,0.67578 3.59969,3.78066 8.94863,1.40589 8.95898,-3.92383 0.003,-1.66124 -0.56372,-1.56224 1.00781,-2.3457 5.32567,-3.38872 16.25779,-9.5514 16.18555,-9.38282 0.71182,1.45067 0.94825,2.68926 1.39844,4.25196 0.38897,1.33977 0.33841,1.44332 0.19336,4.05078 -0.13108,2.3566 -0.20271,2.90366 0.35156,3.05469 3.15481,0.34712 3.87584,-0.76875 4.48047,-2.80469 0.26136,-0.89958 0.76461,-0.71683 1.07617,-0.33789 1.20048,2.18446 2.71915,4.45666 3.7168,6.00976 1.2464,1.9828 3.34615,2.96808 4.44531,2.03125 0.23121,-0.77062 0.42139,-0.79325 1.81445,-0.47656 1.68924,0.38401 2.65227,-0.5638 2.81445,-1.80664 0.0647,-0.49576 -0.29722,-0.47492 0.60743,-0.96484 2.24406,-1.661 1.38899,-3.92903 1.05273,-5.29493 0.0292,0.0722 0.9598,-0.56532 0.98047,-1.84375 0.10724,-6.63881 -5.64694,-16.20016 -5.51758,-15.95312 z m -54.2832,3.82226 4.5664,2.20508 -1.07617,5.45508 -4.69141,-2.10938 z m 44.43164,2.02735 c 2.62937,3.04924 4.53106,8.13174 5.51171,11.44335 0.48424,1.64958 0.54352,3.53324 0.11133,3.79493 -0.4268,0.25847 -0.62544,-0.0183 -0.54492,-1.00391 0.0671,-0.8211 0.0899,-1.45834 -0.26172,-1.44922 -1.02033,0.26349 -1.05951,-1.28125 -0.95508,-1.64453 0.0698,-0.24276 0.19654,-0.41294 0.25196,-0.54492 0.2515,-0.59905 -0.40729,-0.51922 -1.08789,-0.52735 -0.60211,0.0145 -0.75723,-0.35134 -0.72852,-0.92187 -0.0174,-0.63291 -0.85528,-0.50961 -1.33203,-0.0293 -0.43574,0.43897 -0.34442,0.95681 0.24609,1.31836 0.84815,0.51927 1.64956,1.79551 3.625,6.19727 1.14684,2.55547 0.80829,4.36971 -0.55859,4.34961 -0.94779,-0.0281 -2.05287,-2.62413 -2.94531,-4.53711 -0.23056,-0.49419 0.34788,-1.04635 0.55078,-1.3125 0.52459,-0.68816 0.4441,-0.90654 -0.33399,-0.91797 -0.72847,-0.0107 -1.0374,0.0549 -1.47656,-0.84375 -0.16541,-0.33825 -0.28479,-0.85526 -0.22656,-1.18359 0.37543,-0.99104 -0.39627,-1.23049 -1.14453,-0.84961 -0.94309,0.39313 -0.93613,1.23448 0.50195,2.61132 0.92624,1.51962 0.68404,1.41396 -0.19336,2.4375 -0.18346,0.36132 -0.0723,0.58427 0.31445,0.58985 1.11271,-0.33967 2.32513,1.66315 1.99415,2.34961 -0.34088,0.29509 -1.27427,1.36368 -0.37305,1.1582 1.83197,-0.4981 2.94819,2.18413 1.86914,3.09375 -1.60943,0.80728 -1.99189,0.55572 -4.4707,-4.39648 -0.76981,-1.53783 -1.69475,-3.19016 -1.8086,-3.35938 -0.11389,-0.16922 -0.16508,-0.62422 -0.16015,-0.99023 0.10793,-0.896 -0.27473,-1.09813 -1.05274,-0.74219 -0.58445,0.13991 -1.11129,0.62013 -0.37109,1.07617 0.86421,1.49099 1.17022,1.73118 0.69531,2.10938 -1.08078,0.86065 -0.61277,0.82556 0.59766,1.0664 0.59251,0.17815 0.89354,0.48346 1.05664,0.84961 0.62549,1.4044 1.73594,3.38546 1.8457,3.78906 0.36662,1.03014 -0.29679,1.49182 -1.20312,1.44727 -0.94852,0.0228 -1.38259,-0.72566 -1.84375,-1.36523 -1.72441,-2.39612 -2.96521,-4.77083 -4.72461,-7.49219 l 0.23632,-2.54297 c 0,0 0.46062,0.10053 0.71875,-0.0234 0.50643,-0.24342 0.80701,-1.03903 1.09571,-2.0957 0.46262,-0.91872 3.19349,-3.00788 4.23828,-4.13086 0.19302,-0.12698 0.35518,-0.33804 0.35742,-0.46484 -0.007,-0.41145 -1.18587,-0.13552 -1.96094,0.7539 -1.13866,1.01094 -1.62411,0.66471 -1.58789,-0.62695 -0.11199,-1.59515 -1.08378,-0.79643 -1.13281,0.76172 -0.12523,1.23084 -0.55463,1.98119 -1.41602,2.66992 -1.62564,1.29982 -1.35296,0.9706 -1.27734,2.77539 0.13175,3.14748 -1.08434,5.73507 -1.87891,4.01953 -0.28221,-0.6093 -0.61237,-1.30112 -1.32226,-1.33203 -0.50273,-0.0219 -0.75061,-0.51446 -1.02734,-1.73242 -0.41141,-1.97044 -0.98704,-3.23788 -1.51172,-5.05274 z m -40.47266,6.78124 5.26172,2.09571 -0.98633,5.50195 -5.21289,-1.99414 z m 40.11523,0.50782 c -0.0353,0.002 -0.0769,0.009 -0.12109,0.0273 -1.48218,1.1201 -2.84946,2.37834 -4.46484,3.3418 -0.60576,0.35774 -1.3121,1.28199 -1.31641,1.5293 -0.004,0.24102 0.719,0.23559 1.42383,-0.0723 0.6689,-0.2919 4.48402,-3.87585 4.48828,-4.20508 0.26314,-0.28992 0.23801,-0.63693 -0.01,-0.62109 z m -48.31054,6.67968 c 1.24402,-0.003 0.5172,0.3669 -2.19727,2.25 -2.64998,1.83836 -7.01824,7.64977 -7.52539,9.80665 -0.23027,0.97944 0.39204,1.05592 1.0918,-0.28907 3.21746,-6.18443 9.30271,-11.83512 14.875,-11.58398 2.72991,0.12299 4.2047,0.85857 1.94531,1.18164 -6.19447,0.76022 -10.8228,4.29336 -14.875,11.33398 -0.003,0.15787 0.36677,0.14952 0.79102,-0.12109 3.70911,-4.53464 7.88766,-10.54077 15.22851,-10.05469 5.29517,0.31895 6.80015,6.61611 2.4043,8.76563 -3.83205,1.87378 -7.36566,-2.68951 -4.18945,-5.39649 1.03122,-0.87895 1.67598,-0.49243 0.68554,0.40625 -2.12528,1.92851 0.47859,5.36259 3.06836,4.0586 1.57611,-0.66042 2.21531,-2.91602 0.82617,-4.61914 -3.09007,-3.78853 -9.74659,-0.90797 -14.38476,5.21289 -0.48627,0.64406 -0.90631,2.0431 -0.4961,1.89258 0.71995,-0.29665 1.15454,-0.86089 1.57813,-1.4961 1.65561,-2.29565 2.92793,-3.4474 5.16992,-4.68164 1.7319,-0.95349 1.83786,-0.77428 1.19141,0.87891 -0.27233,0.69654 -0.48957,0.92816 -1.16211,1.36133 -2.82407,1.92879 -4.57847,4.51187 -4.64844,6.1582 -0.0511,1.20199 0.82721,2.77165 -0.12695,3.09375 -1.61771,0.76415 -6.02983,0.14046 -7.22071,-1.38086 -0.85653,-1.09414 -1.18814,-0.4599 -0.54492,1.31836 0.42478,1.17439 0.40601,1.83857 1.04688,1.71875 0.81058,-0.42901 1.36714,-0.32826 2.93945,0.53125 0.75788,0.41426 2.10332,0.79944 2.92188,0.98828 1.49239,0.34424 1.8043,0.19979 1.77148,0.8457 -0.01,0.19798 0.0572,0.75505 0.0137,1.10547 -0.24225,1.94535 1.38158,2.60615 3.59571,3.88477 1.29383,0.74716 0.78258,1.51699 -0.71485,5.21875 -0.77836,1.67458 -1.4417,3.92642 -2.40234,5.62695 -0.89764,1.9105 -0.97503,4.00273 -0.39649,6.38672 1.0738,4.42436 1.84629,6.67169 -0.0684,7.07031 -4.92665,0.74535 -15.80756,0.71529 -21.74804,-1.56836 -1.51967,-11.40319 -9.57196,-28.32271 -8.53907,-32.69726 2.0607,3.10692 10.70201,2.28489 8.09961,-6.40039 0,0 0.70701,-1.05786 2.11328,-2.48438 3.62685,-3.67899 4.52112,-4.28889 2.79883,-1.04883 -1.32409,2.49093 -3.01099,5.74109 -3.04883,6.3711 -0.0302,0.5019 0.36097,0.61994 0.66602,0.21875 0.22611,-0.29732 0.49405,-1.02128 0.72852,-1.57032 2.16139,-5.06028 5.85557,-9.62044 8.40234,-10.71875 0.65589,-0.28285 0.62358,0.0183 0.16992,0.57422 -2.99649,3.7282 -5.28506,7.17563 -6.91211,11.67578 -0.0724,0.46407 0.58663,0.65746 0.79688,0.2168 2.81074,-5.89043 3.65151,-7.22723 7.10547,-11.37695 1.35773,-1.6312 2.61967,-2.4544 3.6289,-2.36524 0.87291,0.0771 0.61412,0.22136 -0.19336,1.08203 -0.61678,0.65746 -1.52771,1.57056 -3.00195,3.42579 -2.59994,3.27169 -5.21468,8.59681 -4.25195,8.31835 0.16592,0.44327 0.98615,-0.97185 1.67968,-2.32226 1.9002,-3.19029 3.9167,-7.40562 8.42969,-10.17774 0.94262,-0.39003 1.9745,-0.61478 2.88477,-0.625 z m -87.2793,1.02735 8.03711,8.0332 16.16406,-0.20898 c -2.66586,4.14242 -1.24253,10.56381 0.22657,14.3164 2.87997,7.35661 7.10093,19.50259 6.79101,19.67969 0,0 -2.35004,0.60513 -2.5625,2.0957 -0.31489,2.20942 0.64312,2.04427 -0.73828,4.03907 -0.31072,0.44874 -0.11016,1.29537 0.22266,1.96875 0.21925,0.49367 0.42889,1.23819 0.0195,1.8164 l -14.25977,25.4375 -27.05859,0.12891 v -5.08789 l 13.54883,-13.7168 -0.16407,-10.09375 c 7.38996,2.1967 9.92716,9.82198 10.56055,15.47071 13.34879,-12.18184 13.01963,-30.52181 0.40625,-42.02735 -2.45879,12.16065 -11.26505,14.68824 -11.07227,14.44727 z m 100.52734,1.44336 c 0.86463,0.0624 2.03232,0.20279 2.82422,0.6289 -0.53623,0.3209 -0.91671,0.70303 -1.27343,1.09571 -0.43303,-0.7683 -1.01784,-1.18944 -1.55079,-1.72461 z m 22.40625,0.0879 c 0.71976,-0.003 1.60326,2.10287 1.09571,2.5957 -0.28597,0.27776 -1.21383,0.38292 -1.54492,0.17383 -0.42446,-0.31462 -0.20765,-2.76725 0.44921,-2.76953 z m -25.49414,3.6543 c 0.9277,-5e-5 1.67969,0.752 1.67969,1.67968 0,0.92769 -0.75199,1.67969 -1.67969,1.67969 -0.92769,5e-5 -1.67968,-0.752 -1.67968,-1.67969 -1e-5,-0.9277 0.75199,-1.67968 1.67968,-1.67968 z m -71.0957,2.39257 1.21289,0.0293 c -2.20227,2.94419 -2.49958,5.47943 -1.71875,9.15234 0.87807,4.13307 7.57516,19.66708 8.00781,23.94532 0.0196,0.19342 0.0391,0.73828 0.0391,0.73828 l -1.64649,0.11133 c 0,0 -0.12304,-0.44261 -0.17383,-0.61328 -2.3034,-7.74555 -4.5955,-13.65261 -6.19726,-18.16797 -1.59622,-4.86908 -4.04115,-12.08881 0.47656,-15.19532 z m 8.85352,0.0293 c 0.0114,-0.002 0.0212,0.003 0.0293,0.006 l 1.16211,0.01 c -0.0429,0.0257 -1.73569,3.6565 -1.85742,5.85937 -0.13805,2.49711 0.46517,5.21591 1.29297,7.90039 1.95455,5.8077 4.81644,12.27685 6.40625,19.60742 0.0185,0.0854 0.19141,0.79688 0.19141,0.79688 l -1.72266,-0.23242 c 0,0 -0.16833,-0.74964 -0.1875,-0.85352 -1.18984,-6.44771 -4.50921,-13.14571 -6.48828,-19.49219 -1.01405,-2.88493 -1.71806,-6.4297 -1.35547,-9.14062 0.25581,-1.91233 2.17461,-4.4235 2.5293,-4.46094 z m 14.07031,0.0156 c -1.23213,1.90771 -2.35467,4.29698 -2.4336,6.17187 -0.0711,3.48791 0.94624,6.43217 1.96094,9.51367 3.12409,9.48738 4.63841,14.49436 6.20117,22.10352 l -1.66015,-0.71094 c 0,0 -0.0648,-0.4259 -0.10156,-0.54883 -0.88707,-4.76472 -0.94315,-4.35012 -6.1543,-20.375 -1.22124,-3.84628 -2.38364,-7.21764 -2.15625,-10.41992 0.0516,-1.8242 1.64277,-5.43632 3.32031,-5.72461 z m 1.99219,0 h 1.55078 c 0,0 -0.85424,0.90301 -1.10157,1.24023 -2.70652,3.75401 -1.92219,7.78227 -0.57812,12.58398 1.84936,6.60695 5.2684,13.9957 7.05664,24.06641 0.0331,0.18635 0,1.1582 0,1.1582 l -1.84375,-0.74414 c -1.67521,-9.23359 -5.80899,-18.80665 -7.80078,-27.11132 -1.17127,-4.87644 -0.83875,-7.95949 1.86719,-10.61524 0.67808,-0.52378 0.84961,-0.57812 0.84961,-0.57812 z m -18.90625,0.0527 h 1.1582 c 0,0 -1.93711,3.1802 -1.93555,5.05273 -0.32376,3.35238 0.89001,7.05609 2.28321,10.9375 2.14119,5.96548 4.97269,13.17957 5.84179,16.97657 0.0342,0.14919 0.14844,0.83008 0.14844,0.83007 l -2.02148,-0.10546 c 0,0 -0.10573,-0.91915 -0.22657,-1.3418 -2.33408,-8.16477 -4.60817,-13.44616 -7.28906,-20.90039 -0.40576,-1.12823 -1.05295,-5.58922 -0.28906,-8.48047 0.59965,-2.2695 2.33008,-2.96875 2.33008,-2.96875 z m -3.10352,0.004 1.25,0.0351 c 0,0 -0.18779,0.33929 -0.66602,1.15821 -2.28111,4.13009 -1.25902,7.89886 0.1543,12.0996 1.8858,5.60505 4.84691,12.44889 6.69531,18.92579 0.10425,0.36523 0.2461,1.46875 0.2461,1.46875 l -1.80469,-0.0254 c 0,0 -0.36641,-1.31781 -0.39062,-1.46094 -1.01554,-6.00384 -6.50392,-16.0126 -7.93164,-23.62891 -0.78276,-4.08544 -0.11008,-6.6157 2.44726,-8.57226 z m 16.74414,0 c 0,0 -1.97212,3.41976 -2.15234,5.32422 -0.35339,3.7344 0.83026,6.82656 2.18554,11.03906 2.33829,7.26761 5.63915,15.79532 5.9336,19.69336 0.01,0.12859 0.0566,0.60351 0.0566,0.60351 l -2.03125,-0.72461 c 0,0 -0.0916,-0.40531 -0.13086,-0.54882 -1.77127,-7.05338 -3.86481,-14.07829 -6.67969,-21.9961 -0.69424,-2.67126 -1.6056,-5.35989 -1.52539,-7.65625 0.41245,-3.0664 0.93513,-3.89241 2.76172,-5.70898 z m 8.93945,0.006 1.63672,0.0332 c 0,0 -0.48944,0.26209 -1.65625,1.50586 -6.45521,5.89864 4.01956,22.55308 6.43555,37.7168 0.0265,0.1625 0.0996,0.73437 0.0996,0.73437 l -1.79883,-0.64648 c -0.17041,-0.75524 -0.29935,-1.67638 -0.50781,-2.50196 -1.95717,-7.75156 -4.56825,-15.72155 -6.96484,-22.95117 -1.34466,-5.26781 -1.8351,-9.90808 0.58007,-12.50195 0.75657,-0.89609 2.17578,-1.38867 2.17578,-1.38867 z m -16.83007,0.01 1.74218,0.0469 c -1.25937,1.57883 -1.9987,4.03853 -2.0664,6.22656 -0.0672,2.5879 0.62446,5.10532 1.47656,7.76758 1.74759,5.46019 4.24369,11.39419 5.95703,18.76172 0.0967,0.48784 0.17807,0.80079 0.22266,1.01367 0.0708,0.33772 0.26367,0.87304 0.26367,0.87304 l -1.83789,-0.36718 c 0,0 -0.19056,-0.47704 -0.31445,-0.72852 -0.18591,-0.37722 -0.35463,-0.85814 -0.50586,-1.43359 -0.89052,-3.8433 -4.16837,-12.56391 -6.16407,-18.67969 -1.58265,-3.85389 -2.01335,-10.58879 1.22657,-13.48047 z m 21.7539,0.0664 c 2.22877,-0.0819 4.24413,1.80874 4.72071,3.58593 0.46252,1.88694 -0.13068,4.01672 -2.20704,5.06836 -3.36688,1.70524 -6.99103,-2.83076 -4.33398,-5.32812 2.01378,-1.8927 4.9923,-0.49297 4.34375,1.92969 -0.41829,1.57713 -2.81033,1.67978 -3.20508,0.0879 -0.10821,-0.52982 -0.37384,-1.05902 -0.56445,-0.76758 -1.23815,2.90775 2.92563,4.2701 4.6543,1.56445 1.02509,-2.16862 -0.92649,-4.96252 -3.79883,-4.43164 -3.93823,0.72789 -4.39119,5.72505 -2.75586,11.55469 2.28118,9.2143 7.72245,21.60842 7.71289,27.29687 -6e-5,0.0751 0.0195,0.3086 0.0195,0.3086 l -1.72852,-0.51563 c 0,0 -0.0112,-0.0968 -0.0234,-0.17968 -1.03614,-7.94487 -6.93821,-21.09942 -8.63086,-31.21094 -0.73365,-4.61038 1.06196,-7.95622 5.10156,-8.8711 0.23366,-0.053 0.46475,-0.0833 0.69531,-0.0918 z m -17.08789,0.0723 c -1.21206,1.61977 -2.00356,4.05496 -2.04101,5.79297 -0.0366,2.54561 0.87633,5.02334 1.63086,7.67383 1.90952,6.54541 6.36981,18.63311 6.20703,20.89648 0.0464,0.24303 0.16992,0.99415 0.16992,0.99415 l -1.72266,-0.51172 c 0,0 -0.0699,-0.10878 -0.19922,-0.41993 -0.57423,-2.24666 -3.30489,-11.87289 -6.36523,-20.19531 -1.17751,-3.34627 -1.75036,-5.95326 -1.66992,-8.17187 0.24875,-3.06107 1.12349,-4.33882 2.46484,-6.04297 z m 32.8125,10.85157 c -4.46656,0.25478 -4.03674,5.69858 -1.26953,6.62109 0.9902,0.27289 1.57135,0.0379 1.72852,-0.17773 0.17875,-0.24528 -0.0205,-0.62063 -0.66993,-0.71485 -1.87785,-0.6166 -2.54926,-2.82671 -0.85351,-3.75391 0.92584,-0.48532 2.40378,-0.17249 4.1875,1.14844 3.18688,2.36014 7.09359,2.50888 6.58398,0.1211 -0.12366,-0.57927 -0.37273,-0.65874 -2.70703,-0.97657 -1.89571,-0.25815 -2.74959,-0.85697 -3.57617,-1.30273 -1.30261,-0.70254 -2.45198,-0.99354 -3.42383,-0.96484 z m -63.94531,5.0625 c 11.53909,11.26938 9.82864,28.93262 -0.0293,37.77539 -0.20279,-0.7139 -0.63269,-2.46362 -0.67968,-2.41407 7.41354,-7.71373 10.90533,-20.35766 0.17382,-33.31836 0.0557,0.0495 0.23797,-0.93657 0.53516,-2.04296 z m 72.32031,0.30078 c -0.10905,0.002 -0.20402,0.0139 -0.28906,0.043 -2.98823,0.81735 -3.60768,3.77099 -1.66992,4.98632 1.18797,0.74509 2.10083,0.28811 0.62304,-0.61328 -1.26685,-0.77275 -0.64238,-2.80396 0.89258,-2.78125 0.67092,0.0101 1.1284,0.30287 2.83399,1.56055 1.40392,1.03517 2.72526,1.11721 3.02539,-0.28516 0.17909,-0.83669 -0.10063,-1.20916 -0.99414,-0.99023 -0.3952,0.0969 -0.62799,-0.13354 -1.16407,-0.50586 -1.19228,-0.82809 -2.49466,-1.43103 -3.25781,-1.41406 z m -73.51172,2.20898 c 10.40137,12.07256 7.06294,24.66405 0.0488,32.04102 -1.9258,-5.68305 -6.64844,-9.22852 -6.64844,-9.22852 1.77889,-3.94669 2.84071,-8.06825 -0.48632,-13.27344 3.09503,-2.79675 5.66037,-5.87128 7.08593,-9.53906 z m 67.58008,4.4082 c -0.48806,-0.009 -0.32969,0.46074 0.82031,1.26368 2.74139,1.86457 2.97562,2.20196 0.31836,2.1582 -0.67347,-0.0397 -1.72852,0.43732 -2.32617,0.63672 -3.46819,1.15692 -3.63571,1.06485 -5.29492,0.67578 -0.5531,-0.12901 -1.11308,-0.36154 -1.35547,-0.14063 -0.3747,0.3415 -0.79587,0.56897 -0.32422,1.07813 0.34383,0.37122 0.9837,0.65392 1.76172,1.09961 4.02712,2.30697 4.39233,2.85886 9.12695,2.98242 0.54222,0.0142 0.82032,-0.26588 1.13868,-0.26953 0.77325,-0.009 1.1795,0.17945 1.96093,0.89258 1.43083,1.30572 1.49755,0.35759 0.64649,-1.35547 -0.44634,-0.89834 -0.83603,-1.11373 -0.61719,-1.79688 0.49899,-1.55783 -0.21258,-1.86637 -1.14453,-0.48632 -0.69848,1.08042 -0.77671,1.05452 -1.4375,-0.33399 -0.87604,-1.73397 -0.4654,-2.534 0.86328,-1.4043 1.00691,0.85615 1.26453,0.21909 1.65625,-0.45898 0.51501,-0.89145 0.43523,-1.69065 -0.48438,-1.62109 -0.52888,0.04 -1.02207,-0.20316 -1.4375,-0.65625 -0.81425,-0.88821 -2.37538,-2.00252 -3.87109,-2.26368 z m 1.13867,4.69141 c 0.10941,0.006 0.18585,0.0506 0.22266,0.16406 0.009,0.57106 -0.38353,1.73704 -0.70508,2.34961 -0.10285,0.27282 -0.27838,0.30718 -0.52539,0.35742 -0.83001,0.15337 -0.88766,-0.10283 -0.73828,-0.61718 0.30436,-0.79391 0.55423,-1.92418 1.625,-2.25 0.0445,-0.005 0.0846,-0.006 0.12109,-0.004 z m -2.10937,0.39649 c 0.33596,-0.0247 0.34748,0.11504 0.21289,0.41992 -0.23961,0.51446 -0.66103,1.00106 -0.97461,1.40429 -0.66533,0.43024 -1.74851,-0.88576 -1.26953,-1.22656 0.66846,-0.26429 1.17022,-0.53706 1.86719,-0.58008 0.0618,-0.0104 0.11607,-0.014 0.16406,-0.0176 z m -74.51172,0.85742 c 0.17909,-2e-5 0.36237,0.037 0.55078,0.11718 2.51704,3.3977 2.34519,8.56876 0.39063,11.42969 -0.14574,0.21373 -0.2948,0.25118 -0.54102,0.16797 -0.84123,-0.49795 -1.90888,-0.68114 -2.70703,-0.96875 v -9.94922 c 0.82198,-0.17412 1.53058,-0.79882 2.30664,-0.79687 z m 66.33008,0.8125 c -0.1922,0.009 -0.27257,0.13913 -0.0293,0.39062 3.67038,2.65589 8.72196,5.73328 13.38086,4.54102 0.42768,-0.0928 0.77164,-0.3267 0.68945,-0.76758 -0.0512,-0.27472 -0.52409,-0.51036 -1.03711,-0.375 -1.06832,0.28186 -3.11608,0.31847 -3.95703,0.18359 -3.20379,-0.5258 -6.03466,-2.57552 -8.49609,-3.77539 -0.18262,-0.13941 -0.4013,-0.20405 -0.55078,-0.19726 z m -1.07031,2.5332 c -0.16411,-0.008 -0.15209,0.15564 -0.0488,0.46289 0.51663,1.53835 5.71016,5.12334 9.8125,6.30859 3.52214,1.01763 8.58138,0.0183 8.28711,-1.65429 -0.15355,-0.87244 -0.79207,-1.08138 -3.03907,-0.79688 -4.94867,0.96164 -9.71353,-1.0612 -13.32812,-3.31054 -0.97429,-0.61368 -1.47268,-1.00004 -1.68359,-1.00977 z m -32.40821,2.10547 c 2.16137,-0.0258 4.30495,0.14913 6.62305,0.53515 4.50926,0.76941 9.73466,2.16515 14.15625,4.2129 7.51406,2.82042 16.96135,4.9959 24.97851,4.70117 1.95691,0.0543 5.49502,-0.11233 6.17969,-0.33789 1.78718,-0.40078 2.28044,-0.02 2.70703,2.19726 0.0751,0.48239 0.22511,0.62277 0.84571,1.04297 0.94939,0.64283 0.79108,1.27771 0.67578,2.69727 -0.097,1.19432 0.62344,1.86557 3.51758,7.20703 3.29377,6.07921 6.50781,13.14258 6.50781,13.14258 -28.87289,-0.0198 -56.41872,-1.09118 -85.96094,-0.17383 2.65692,-6.29935 9.89966,-17.65898 14.43945,-26.77735 -1.09787,-2.80581 0.2582,-3.28197 -0.31054,-3.94726 -0.91956,-1.55949 -0.25598,-3.74743 1.6875,-4.24024 1.3541,-0.1557 2.6563,-0.24429 3.95312,-0.25976 z"
         style="fill:#131f67;fill-opacity:1;stroke-width:0.15445836"
         id="path3995" />
      <path
         id="path3997"
         style="fill:#e2cf00;fill-opacity:1;stroke-width:0.15445836"
         d="m 338.05079,397.14453 9.46875,17.57422 c 0.27018,-1.35085 57.81257,12.2106 60.4707,9.00391 5.1088,-9.31677 9.5177,-16.96592 14.32422,-26.42969 z m 113.54492,6 c 0,0 -8.31086,9.02184 -12.45117,12.48633 l 0.0332,59.4375 3.19141,3.05859 -0.0957,-60.55273 9.42968,-9.80664 z m -23.95117,12.47656 c -5.98099,3.73436 -10.4803,21.67238 0.44531,31.4336 1.61392,-4.47198 4.99878,-8.45271 6.69727,-9.26172 -2.53795,-4.91077 -1.65293,-9.07049 -0.49805,-13.17188 0.11629,0.10908 -4.90911,-5.08306 -6.64453,-9 z m -3.69141,51.72657 c -9.31052,10.02863 -20.91807,23.17933 -24.08789,41.54687 -2.0775,10.13662 -2.20155,24.65517 2.31641,38.67774 2.35212,8.93933 7.93665,19.49423 14.30859,28.33398 -0.13994,0.25655 1.38753,-0.59552 3.07618,-1.68945 -14.87597,-18.9874 -23.1255,-46.1733 -14.66993,-72.06055 0.3579,-0.0511 18.70093,24.69216 20.35743,26.05859 4.02164,0.56183 -17.12592,33.71536 -11.80664,35.01563 0,0 11.18934,-4.8242 14.56445,-6.07227 5.50649,-12.87228 13.17768,-20.86801 23.85156,-29.70312 -0.42583,0 -0.0117,-14.08789 -0.0117,-14.08789 l -13.73437,2.96679 -24.09375,-31.49414 c 0,0 4.36732,-7.21644 7.38281,-10.67578 1.75716,-1.81832 6.58594,-6.81445 6.58594,-6.81445 z m -9.43945,3.89648 c -0.67819,-0.0568 -32.53906,0.2168 -32.53906,0.2168 -6.55703,10.89174 -17.21666,14.41526 -22.13867,16.80273 l -1.16992,-3.71484 6.33984,-2.6836 -2.50195,-7.92578 c 0,0 -9.29513,1.77736 -10.36719,2.58985 11.26682,26.47028 6.98061,59.54026 6.02734,58.06445 0,0 -5.51678,1.32103 -8.21094,0.83789 -2.75802,18.01793 -7.93775,31.64668 -20.63671,45.42578 l 32.92773,-0.0371 c 7.36305,-13.11296 22.39518,-17.65962 22.42188,-17.66211 l 1.10351,4.16211 -6.82422,3.14063 2.52149,7.375 c 0,0 7.05183,-1.78566 6.33398,-1.61328 0.34133,0.68264 4.59961,-0.27539 4.59961,-0.27539 -0.2246,0.15931 -6.61271,-19.62976 -6.86133,-31.5 -1.28817,-14.84541 0.25461,-28.01895 1.47071,-27.73243 5.95373,1.28141 -20.81853,-5.4588 -25.19532,-19.47851 12.0011,-4.15406 16.99132,-8.73721 24.95117,-17.43555 5.11847,-0.14969 12.44532,0.26563 12.44532,0.26563 -4.77501,9.02497 -9.56569,18.04976 -11.35742,27.21679 0,0 7.18749,10.85027 7.28906,8.94727 0.51398,-9.63012 2.98077,-17.83796 6.08203,-24.18164 6.78959,-13.88825 13.95003,-20.74934 13.28906,-20.80469 z m -86.69531,4.57227 c -0.29665,-0.004 -2.9668,1.24023 -2.9668,1.24023 0,0 6.61258,9.35345 7.25196,10.99609 0.1058,0.18492 -15.00796,5.02016 -15.37696,6.27735 -5.13609,17.49864 -24.61325,30.74011 -24.98633,30.03125 l 0.0352,14.16601 c 6.16936,2.18772 37.50151,-28.5163 40.68945,-48.78711 0.0729,-0.26566 9.50149,13.24185 10.74414,35.30469 0.38951,8.6234 -1.10406,16.0919 -3.14453,24.3418 -0.46336,0.23169 -20.60156,-26.13086 -20.60156,-26.13086 -3.9508,5.0554 -9.03018,8.13177 -12.81836,12.31836 -0.38192,0.54662 24.17479,31.73831 23.80274,32.27148 -4.54342,6.55533 -9.08819,11.11862 -14.82032,16.97657 l 4.95313,0.0859 c 28.87266,-29.56178 27.14654,-56.6289 24.47656,-71.02734 -2.20058,-13.3681 -8.66787,-27.40803 -17.23828,-38.06445 z m -25.97266,98.36718 0.40039,59.54688 -9.63476,10.7832 0.0703,3.5918 12.80469,-12.25977 -0.67969,-59.8125 z m 14.93164,30.47461 c -0.43796,-0.26993 -5.36802,9.08283 -7.13672,8.64649 -5e-4,-0.003 3.40508,7.49272 0.35547,13.63086 0.0299,0 4.08933,3.36418 6.41602,9.30273 9.21751,-8.54345 7.90932,-22.32826 0.36523,-31.58008 z m 26.125,23.41602 c -3.4348,0.004 -6.12661,0.7136 -7.56054,2.53125 -3.98653,5.73044 -13.44922,24.85937 -13.44922,24.85937 l 85.44922,-0.28125 -10.13868,-18.27539 c 1e-5,0 -12.13032,0.47373 -17.36328,-0.53515 -9.65623,-1.9545 -26.6331,-8.31031 -36.9375,-8.29883 z"
         inkscape:connector-curvature="0" />
      <path
         inkscape:connector-curvature="0"
         d="m 319.10352,398.87891 c -5.90208,9.61572 -12.00728,19.28661 -21.4043,28.45703 9.3094,8.85281 15.55933,18.44022 21.49609,28.66601 6.04025,-9.70163 12.32974,-19.34 20.60938,-28.33984 -8.03261,-8.94803 -15.52522,-18.20281 -20.70117,-28.7832 z m 132.35546,9.34179 -8.77539,8.86524 0.23829,61.86718 8.8125,8.38672 z m -95.17578,7.35157 c -3.26112,-0.0138 -6.38896,0.34472 -9.30859,1.23046 5.4e-4,-9e-5 1.53233,2.61685 1.16992,3.77344 -0.12017,0.89286 0.97461,1.52735 0.97461,1.52735 7.38494,-0.15478 14.72846,-0.8806 23.76953,1.96679 11.08192,3.2724 23.03919,10.1184 34.38477,6.90821 2.20655,-1.37975 1.84661,-1.4529 1.33789,-3.7129 0.4576,-1.06313 0.27138,-2.40746 0.40625,-3.53515 -13.62591,2.8311 -35.12432,-8.08348 -52.73438,-8.1582 z m 17.28516,49.33789 c -3.08854,3.54 -6.40405,7.11484 -10.7832,8.75586 l 2.7832,7.84375 c 4.85506,-1.20551 15.01822,-13.40509 13.73437,-13.70508 -0.938,-0.36037 -3.64056,-1.02042 -5.73437,-2.89453 z m 45.61719,12.19336 -5.48828,7.46679 24.26757,31.40625 c -2.05089,3.85146 -12.7253,4.90674 -28.68164,40.3711 -0.13362,0.71682 2.79297,5.35156 2.79297,5.35156 0,0 8.80885,-33.4631 39.63672,-48.70899 -0.31949,0.11411 0.52015,-2.6065 -0.3125,-5.1289 -2.12103,0.92458 -3.59625,1.92361 -6.18359,3.11523 z m -27.21875,2.79687 c -1.51099,0.005 -3.21011,0.0402 -5.05664,0.12891 -6.87507,7.69678 -15.39156,13.31881 -25.03125,17.52343 l 0.9375,8.4668 24.79687,0.61524 c 4.66043,-16.25309 11.70043,-26.57542 11.6875,-26.56055 0.0301,0.0752 -2.80103,-0.18746 -7.33398,-0.17383 z m -59.4043,10.9707 c -6.15993,18.59221 -20.14865,38.44631 -40.53516,48.95118 -0.17055,0.30772 -0.14062,4.70507 -0.14062,4.70507 l 7.54883,-3.82226 c 0,0 17.78744,22.70915 25.74218,33.375 2.67557,-2.25427 5.50977,-6.88867 5.50977,-6.88867 l -24.07422,-31.15235 c 13.86111,-11.03014 23.28852,-25.73673 28.80078,-40.40234 0.43161,-1.4169 -2.85156,-4.76563 -2.85156,-4.76563 z m -24.47656,7.09961 -15.87891,6.83399 -0.13476,12.03711 c 5.663,-4.1713 11.62306,-9.30066 16.01367,-18.8711 z m 144.10547,37.14453 c -5.37229,3.75992 -10.76456,9.22564 -15.99219,18.62696 l 15.73242,-6.21875 z m -96.07813,10.43946 c -1.36142,8.9574 -6.92154,17.85233 -10.92383,26.62109 l 12.20703,0.21289 c 7.60484,-7.8028 15.73862,-14.54932 25.59375,-17.85156 l -1.14062,-8.94727 z m -64.17187,18.34961 0.56054,79.50586 9.58594,-9.14454 -0.56836,-61.05859 z m 86.68164,6.72265 c -6.57027,3.25839 -10.50361,8.46598 -13.75196,14.17969 1.85123,0.31401 3.72498,0.58141 5.72071,2.02734 3.43223,-4.29144 7.22544,-6.65605 11.08984,-8.64257 z m 46.51953,26.30078 c -5.76879,10.00533 -12.52064,19.16445 -20.61719,28.00586 8.13218,8.42164 15.22289,18.16891 20.74414,28.92383 5.6381,-9.87148 12.42786,-19.57704 21.4668,-28.47461 -9.12008,-9.09298 -15.65028,-18.49573 -21.59375,-28.45508 z m -82.74414,23.23047 c -5.85909,-0.068 -7.15238,0.65892 -7.17774,2.38477 -0.004,0.29681 0.93618,1.21162 0.73438,2.18359 -0.36221,1.74445 -1.48429,3.57978 0.49804,3.27735 17.63455,-2.13517 41.80469,11.77154 60.7461,8.03906 0.41712,-0.57861 -1.82857,-6.35965 -2.44141,-6.71289 -8.37306,0.19291 -15.89458,0.23231 -23.48242,-1.73633 -7.9236,-2.05575 -15.06347,-6.47708 -28.87695,-7.43555 z"
         style="fill:#d40000;fill-opacity:1;stroke-width:0.15445836"
         id="path3993" />
      <path
         id="path3991"
         style="fill:#100f08;stroke-width:0.15445836"
         d="m 337.0879,396.0293 3.41406,6.42773 -0.58984,0.40039 c 0.92929,1.54821 1.71763,3.28859 2.66797,4.82422 l 0.68554,-0.0781 c 1.12116,2.14806 1.57634,2.94327 3.04297,5.48828 l -0.66211,-0.004 c 0.34088,1.1313 1.21455,1.88338 1.23243,2.69531 0.009,1.01017 -0.25142,2.03494 0.36914,2.71875 0.73507,0.81001 0.82483,1.03518 0.67383,1.50977 -0.40113,1.26058 0.73931,2.65626 1.89843,2.53125 8.16869,-1.0917 16.49336,-0.16679 24.81446,2.34765 5.98433,1.88704 11.29699,4.00222 16.32617,5.48829 1.58565,0.47348 4.79031,1.2198 7.54883,1.42187 7.65194,0.56052 11.94508,-0.9992 10.65625,-4.18164 -0.1021,-0.25483 -0.33139,-0.44118 -0.35157,-0.57226 -0.0373,-0.24213 10e-4,-0.5034 0.43555,-0.85938 1.25552,-1.28211 0.55437,-2.21529 -0.21094,-3.63477 0,0 9.8263,-17.55587 14.73438,-26.30273 z m 1.35742,1.57226 83.72461,0.004 -7.17187,12.38281 c -3.83377,-0.69461 -4.73487,2.52895 -4.79297,2.98242 -4.97908,-1.27638 -4.21461,5.1791 -1.7168,5.61524 0.16159,0.93651 -4.09208,2.10001 -6.33398,-0.0937 3.44521,0.46146 4.66527,-4.09651 0.45703,-5.10938 5.54792,-4.12419 -4.86056,-10.29913 -4.98438,-1.76758 -4.89435,-0.86186 -4.2588,5.60655 -1.15429,6.10938 -1.58811,1.75084 -6.25654,1.79989 -8.69727,-1.89063 4.15159,2.15616 6.39658,-3.40883 2.08399,-4.96679 5.32258,-4.66748 -5.09954,-8.97176 -4.85547,-1.42969 -3.92864,-2.32813 -6.62941,3.60693 -1.38477,4.51758 -0.29906,1.06807 -7.1671,1.07746 -8.91016,-1.6836 4.86979,1.11121 5.09436,-4.81832 0.79688,-5.30078 4.31353,-5.47421 -6.6369,-8.24214 -4.79883,-0.77148 -4.23046,-1.67308 -5.82887,3.60106 -1.70898,5.29492 0.22862,0.83932 -6.67078,1.55323 -9.08594,-1.47461 5.30351,-0.79585 3.4469,-5.93648 0.0117,-5.52539 0,0 0.0504,-0.14643 0.24414,-0.64648 1.62195,-5.15931 -7.09854,-5.59203 -5.89063,-0.1211 0.19341,0.50359 0.40625,1.17578 0.40625,1.17578 -2.40392,-0.48966 -3.87326,0.48871 -3.69921,2.74414 0.59861,2.99467 2.18136,2.7742 4.20507,2.17774 0.84879,0.88696 -4.88245,3.85055 -8.48047,1.20312 4.40662,-1.26624 2.17365,-6.42955 -1.51367,-5.73242 -0.15251,-1.64818 -1.94368,-3.95982 -4.27929,-2.83203 z m 113.76367,3.83008 -13.50976,13.86133 0.0527,59.63281 13.75391,13.74805 c 0,0 -0.12573,-58.83319 -0.29688,-87.24219 z m -0.81836,2.16992 -0.0332,3.43164 -9.54687,9.84961 0.10742,60.61524 -2.45313,-2.41797 V 416.0957 Z m -94.33203,1.23633 c 0.56848,-0.004 1.14269,0.30089 1.40039,0.73633 0.28537,0.50316 0.16179,1.20064 -0.29687,1.76953 -1.95234,2.42159 4.17974,6.62787 8.5918,5.89648 3.35807,-0.55667 6.22118,-2.57305 4.98632,-4.10742 -1.00571,-1.24966 -0.34876,-2.51234 0.85938,-2.5039 1.24247,0.009 2.23903,0.99595 1.16211,2.34961 -2.39567,3.01127 1.25898,6.54406 6.8457,6.61718 3.95058,0.0517 5.26569,-0.91978 5.05274,-3.73437 -0.0997,-1.31807 0.15883,-1.68278 1.07617,-1.88281 1.46512,-0.3195 2.20507,1.35983 0.99023,2.64062 -2.62338,2.76578 0.357,6.83328 5.31836,7.0957 1.81535,0.096 2.17372,-10e-4 4.19922,-1.14453 1.58309,-0.89357 2.14294,-2.24424 1.36719,-3.29297 -0.99836,-1.34967 0.34823,-2.9611 1.90234,-2.29687 1.11085,0.47478 1.65641,1.32744 0.42774,2.77148 -1.61415,1.89713 -0.8491,3.46175 2.25976,4.51758 2.42166,0.82244 4.09869,0.71966 5.23242,-0.31445 0.35285,-0.32185 1.13843,-0.99434 1.12696,-0.78906 -0.76205,1.31602 -1.4375,2.53906 -1.4375,2.53906 -5.07236,2.26287 -9.03269,-1.9728 -8.90235,-2.13086 -5.2256,3.01522 -9.85818,2.37969 -13.77343,-2.68555 -1.01803,0.56412 -8.30658,1.89178 -13.56836,-3.88281 -5.30927,2.66374 -10.24495,1.54734 -14.63086,-1.43164 -3.24098,3.0595 -6.65725,3.54158 -10.20703,2.07226 l -1.05274,-2.11328 c 0.2652,-0.0994 1.41118,2.12069 6.9668,1.08594 1.86523,-0.34741 5.07446,-3.4836 3.27734,-5.01172 -0.82298,-1.16382 -0.84779,-1.68697 -0.12109,-2.39258 0.2681,-0.26068 0.60618,-0.37478 0.94726,-0.37695 z m -13.27539,2.73633 c 0.4376,-0.0365 0.87145,0.4163 1.06641,0.77344 0.30999,0.60029 0.3512,1.59714 0.01,0.99804 -0.18032,-0.31613 -1.12069,-1.72825 -1.07618,-1.77148 z m 107.57813,1.2539 0.0625,78.22461 -8.12891,-8.06445 -0.39062,-61.28125 z m -94.14063,3.78907 2.5586,1.60937 -4.58203,-0.0273 z m 14.38868,1.3457 2.15039,2.08789 -4.51954,-0.94726 z m 56.32617,0.73828 c -8.43183,7.44463 -9.78598,22.73645 0.18359,32.86524 1.63157,-3.6627 3.81425,-8.32701 7.34766,-9.81055 -2.63029,-5.22639 -2.28988,-10.45194 -0.42383,-13.31641 -2.66854,-2.48398 -5.40735,-5.45917 -7.10742,-9.73828 z m -16.06055,0.34571 -0.96094,1.96874 c -0.55404,-0.61933 -0.71464,-1.9334 0.96094,-1.96874 z m 15.99219,1.08398 0.58008,1.42969 c -7.50937,9.18979 -5.19097,21.25356 0.24804,27.6914 l -0.78125,1.6211 c -6.64713,-7.01056 -9.55673,-21.82836 -0.0469,-30.74219 z m -68.02344,0.24414 c 4.80201,0.012 9.13859,0.84968 23.13086,4.95508 8.70102,2.55292 15.67062,6.53186 25.73047,2.98633 l 0.0469,1.95898 c -6.40274,4.11011 -19.15825,-0.23357 -27.77539,-3.41406 -13.85149,-5.11244 -24.63083,-4.81265 -32.33203,-4.22852 -0.67792,-0.13273 -1.21696,-1.90404 -0.13086,-1.91601 5.40064,-0.0596 8.44888,-0.34902 11.33008,-0.3418 z m 25.09766,1.49023 2.85742,3.03125 c -2.14607,-0.67326 -4.23287,-1.42193 -6.17383,-2.35156 z m 43.61328,0.74805 0.56054,0.77149 c 0.24245,0.33441 -1.58131,0.50921 -1.27539,0.11718 z m -72.30469,1.26172 c 7.68811,-0.10837 15.16121,1.24309 23.20898,4.28516 10.38642,3.9001 21.82281,7.79351 29.32813,4.30273 0,0 0.0474,1.48536 -0.81055,1.90625 0,0 -0.79241,0.64144 -3.4414,1.00586 -12.14409,0.99662 -20.02605,-4.03272 -29.82813,-7.00391 -3.71815,-1.12704 -9.69267,-2.49205 -15.82617,-2.74609 -3.64221,-0.1657 -9.21289,0.35742 -9.21289,0.35742 -1.21373,-0.10107 -1.19659,-0.81682 -1.20703,-1.51953 2.63964,-0.35198 5.22636,-0.55177 7.78906,-0.58789 z m 73.43359,0.54688 c 0.13397,-0.006 0.27143,0.003 0.40625,0.0234 l 1.0625,1.35742 -1.25976,2.00196 c 0,0 -1.11207,-1.0231 -1.67578,-2.02735 -0.31056,-0.65027 0.52904,-1.31188 1.46679,-1.35546 z m -30.60156,0.38085 3.28906,2.48243 c -2.47282,0.12138 -5.25509,0.21335 -8.00976,-0.88086 z m 27.85938,1.26563 c 0.25906,-0.006 0.53109,0.2671 0.84961,0.81055 0.61231,1.0447 0.53167,1.24517 -0.65625,1.62695 -1.56013,0.50139 -1.68264,0.39031 -1.17774,-1.00977 0.34382,-0.95347 0.65126,-1.41974 0.98438,-1.42773 z m 4.99609,0.63867 2.22266,1.86719 c -1.22793,3.19493 -2.03066,7.25092 0.43554,13.07226 -0.27364,0.0182 -1.87338,1.59412 -2.375,1.86329 -1.40858,-0.59038 -4.50775,-12.12576 -0.2832,-16.80274 z m -3.28711,2.40235 c 0.27106,0.0106 0.53279,0.0333 0.75781,0.043 l -0.56445,3.53321 c -0.0463,0.28974 -2.46159,-1.67251 -2.23633,-2.6543 0.32243,-0.87451 1.22978,-0.95355 2.04297,-0.92187 z m -3.23242,1.2832 c 0.29186,0.002 0.74973,0.70767 1.3125,1.63086 0.43904,0.72023 0.34871,0.99348 -0.62305,1.86914 -1.43073,1.44656 -1.71155,0.97273 -1.39453,-1.48828 0.15665,-1.21601 0.37431,-2.01414 0.70508,-2.01172 z m 2.95898,3.20117 c 0.19415,0.004 0.36281,0.0516 0.48633,0.15039 l 0.16406,3.44141 c 0.0148,0.31067 -2.68609,-0.12241 -3.04101,-1.4336 -0.44848,-0.83951 1.34219,-2.17975 2.39062,-2.1582 z m -3.5664,2.91016 c 0.19351,-0.0276 0.79905,0.37354 1.37109,0.71289 0.99453,0.58998 1.01678,0.85063 0.16016,1.95117 -1.00633,1.29282 -1.50786,1.08469 -1.66211,-1.16406 -0.0566,-0.82563 -0.11794,-1.46458 0.13086,-1.5 z m 3.96484,1.31445 c 0.087,-1.2e-4 0.16378,0.025 0.23047,0.082 0.47853,0.4092 1.21203,3.85887 0.9043,4.21875 -0.43839,0.51267 -2.74542,-0.16775 -3.25977,-0.97852 -0.48938,-0.77143 1.28417,-3.3217 2.125,-3.32226 z m -2.82227,4.0625 c 0.26493,-0.018 0.74214,0.16427 1.4629,0.51172 0.43343,0.20893 1.15648,0.6023 1.3164,0.9375 0.28148,0.58999 -0.1864,1.46348 -0.79101,2.18945 -0.4,0.48033 -0.77373,0.12333 -1.54883,-1.48633 -0.6234,-1.29463 -0.88099,-2.12225 -0.43946,-2.15234 z m 4.6543,1.54297 c 0.0531,-0.001 0.10093,0.009 0.14453,0.0332 0.78511,0.43518 0.65324,1.72755 -0.27539,2.68359 -1.11468,1.14758 -2.0825,0.28218 -1.3125,-1.17382 0.48776,-0.9223 1.07169,-1.53417 1.44336,-1.54297 z m -57.2168,24.71679 c -1.89498,2.72151 -5.07624,6.31145 -7.55859,7.375 -0.67904,0.0306 -1.73864,0.64516 -2.20117,1.24024 -0.58445,0.75197 -1.09413,0.65279 -1.74219,0.59766 -0.77102,-0.0114 -1.94438,0.1606 -3.5332,0.88476 -0.90035,0.41036 -1.31119,0.50168 -2.63086,0.56836 -0.86131,0.0435 -1.72437,0.16114 -1.91602,0.26172 -0.19163,0.10058 -0.81099,0.31727 -1.375,0.48242 -1.153,0.33762 -0.74348,0.66428 -0.082,2.15039 3.36464,8.62626 5.77578,18.67854 6.6543,26.86524 0.98638,9.39236 0.68855,20.78061 -0.625,29.47851 -3.22079,0.0217 -5.24464,-0.14315 -8.63672,-0.0859 -2.31347,18.80953 -8.59209,33.74695 -21.13867,47.17969 l 33.91797,0.0859 c 3.88594,-10.36424 21.6202,-18.27042 22.20312,-17.6875 l 0.9336,3.7832 c 0,0 -12.75602,1.82383 -21.34766,18.01172 0.87868,-0.53153 4.07903,-0.16344 6.19141,2.0293 4.21896,-5.34945 11.13865,-8.84584 11.18359,-8.76367 l 0.23242,-0.64454 c 0,0 1.26917,-0.43029 2.38477,-0.64257 0.35788,-0.0681 1.09106,-0.20659 1.57812,-0.37696 0.75275,-0.26349 1.12537,-0.54499 2.28711,-0.44531 2.41819,0.23115 4.84619,-0.4696 4.79492,-0.48242 -7.19978,-19.85649 -8.90243,-37.78138 -6.08984,-58.60352 2.65261,0.0207 8.46875,0.1211 8.46875,0.1211 0.58517,-5.85032 1.32598,-11.70481 3.12305,-17.22852 2.30726,-7.09193 5.09022,-13.68284 9.57031,-19.71094 2.52971,-3.78585 4.73858,-6.48101 7.35351,-10.02929 l -33.20117,0.0762 c -4.39399,7.38482 -12.86,13.55346 -19.66406,16.12305 -2.3158,0.86995 -2.64165,0.74125 -3.02539,-0.34766 -0.6856,-1.94552 -0.65301,-1.86236 1.1582,-2.37891 0.60488,-0.1725 2.54041,-1.19255 5.56055,-2.60742 6.40941,-3.25345 10.81616,-9.21007 13.4082,-13.23047 1.03139,-1.58795 0.339,-1.22817 -1.42383,-1.24414 -1.61466,-0.12628 -2.35163,-0.62693 -3.80273,-1.98047 -0.53483,-0.49886 -0.76562,-0.85314 -1.00977,-0.82422 z m 0.23438,1.0879 c 1.49216,1.59766 3.26315,2.53157 5.59375,2.83593 -3.7248,5.84478 -8.2747,10.41666 -13.50391,13.19532 l -2.6582,-7.47852 c 6.51691,-3.0342 8.25901,-6.07343 10.56836,-8.55273 z m 55.75195,1.16601 -5.17773,0.0762 c -3.63608,3.71233 -29.9657,27.96668 -25.53125,64.60352 1.89666,15.66998 6.27151,29.2268 17.9707,45.24219 l 3.12695,-1.83594 0.47852,0.32031 32.41992,-18.65039 0.0176,-5.66211 -37.63281,15.78711 c -0.74673,-0.79439 -1.18578,-1.68016 -1.81445,-2.6582 l 15.08007,-6.41016 c 0,0 0.36204,-0.9163 0.47852,-1.33789 4.95804,-12.54413 15.03025,-21.62456 23.79883,-28.64062 -0.0465,-12.35027 -0.10352,-38.20704 -0.10352,-38.20704 l -22.6758,-22.58206 c -2.90764,2.6584 -5.48529,5.39285 -8.06445,8.35938 l 26.0332,34.26758 -2.30859,1.50195 -25.75782,-34.08984 c 3.05046,-3.66845 6.36148,-6.86585 9.66211,-10.08399 z m -4.65625,1.07422 3.02149,0.13867 c -35.11437,32.46344 -33.04862,73.38919 -8.45899,106.63281 l -2.57617,1.54883 C 393.61238,544.84144 389.434,499.06163 424.72071,467.46875 Z m -42.24804,4.05859 21.7832,0.10157 -4.78711,7.54882 -12.91211,0.16602 c -7.72695,9.52609 -16.02745,14.17265 -24.47656,17.34375 l -0.63672,-3.14062 3.90625,1.05468 0.82422,-3.85547 -3.89453,-1.20312 -0.83985,3.98242 -1.00781,-4.97266 c -9e-5,7e-5 13.37681,-3.22428 22.04102,-17.02539 z m 31.74023,0.0215 -5.85937,7.5957 -7.86329,-0.0293 5.11524,-7.54882 z m -16.30078,0.62695 -3.03125,3.15234 2.36328,3.17188 3.14258,-3.08008 z m -6.77734,0.0781 -2.99219,3.31054 3.10742,3.16211 2.83789,-3.20898 z m -8.17188,0.49804 -0.51758,4.95703 3.90039,1.2793 0.57032,-4.23828 z m 23.72461,0.1836 -2.83008,4.42578 4.26172,0.0664 2.98047,-4.40429 z m -44.55664,1.13086 2.76367,7.65625 -2.42578,1.16992 -2.46094,-7.9961 z m -34.01563,0.68359 -3.5039,2.12891 6.92187,10.42968 -14.66211,6.49805 c -5.83936,12.31097 -12.76198,23.67291 -25.42382,30.17969 l -0.0703,15.93359 -0.22265,0.33008 0.16797,5.00195 7.75976,-4.13867 25.76953,33.4668 -1.7832,2.17187 -26.06055,-34.11328 c 0,0 -4.11403,2.01489 -5.32422,2.6875 l 0.16211,17.31055 -0.70312,-0.0352 0.10547,87.67383 14.3789,-14.33984 -0.1875,-59.48828 c 3.0512,2.87038 5.66211,5.93277 9.1543,8.74609 l 5.98047,-0.0469 c 15.61195,-15.87877 24.16245,-29.46783 26.03906,-53.80273 1.25546,-16.28005 -4.15226,-36.75366 -18.49805,-56.59375 z m 30.7461,0.54492 2.84961,7.91992 -2.38477,0.78711 -2.61719,-8.24414 z m -3.10352,0.58594 c 3.26651,9.91151 6.16235,20.57334 6.51758,30.6875 0.31777,11.01577 0.47443,17.65516 -1.36719,27.33789 -0.0963,0.50608 -2.07422,0.0586 -2.07422,0.0586 0.25029,0.0834 1.11554,-10.94181 1.04688,-17.86718 -0.13075,-13.18842 -2.36706,-26.2361 -7.54297,-39.30664 0.9867,-0.60357 3.41992,-0.91016 3.41992,-0.91016 z m -27.95898,0.14453 c 11.33569,15.03958 19.43949,35.44427 18.08398,55.57617 -1.29836,23.40991 -10.17449,36.90016 -25.76172,53.11133 l -4.02148,0.0937 c 18.45147,-17.69196 26.61423,-32.83291 27.25781,-52.80859 0.74021,-22.97433 -6.27594,-38.25332 -18.09375,-54.53711 z m -3.16797,1.38281 -33.08984,19.29102 0.0391,5.47851 38.62109,-16.5625 z m 94.90039,0.54102 25.02539,32.81836 -6.19141,4.59961 -23.85937,-30.83789 z m -37.47656,0.80664 -4.20313,0.21289 0.13867,4.24219 4.38282,-0.10547 z m 17.85937,1.43555 7.49219,0.11523 -2.89648,4.80664 -7.24024,-0.0586 z m -1.38281,0.11718 c -3.44432,6.40561 -8.19537,13.70957 -10.86328,25.51368 l -24.66016,0.0215 c -0.0455,-2.69498 -0.39521,-5.38901 -0.79687,-8.08398 10.62656,-3.88906 18.85862,-9.70286 24.91211,-17.38672 z m 4.56055,0.33985 -3.21485,1.85351 1.96485,2.25782 3.54297,-1.35547 z m -29.35352,2.35937 -1.0625,4.17969 3.99805,1.54102 0.73828,-4.9668 z m 40.10742,2.33203 23.68164,30.69922 -2.21875,1.75586 -23.14453,-30.00781 z m -17.11328,0.79102 7.1875,0.043 -3.02539,6.04297 -7.11914,-0.10547 z m 2.72852,0.48828 -3.23828,2.69727 2.4375,2.81445 2.98632,-2.38477 c 0.0631,-0.0503 -2.18554,-3.12695 -2.18554,-3.12695 z m -31.4336,0.2207 -0.99414,4.06446 4.15625,1.10547 0.74414,-4.35743 z m -38.06836,2.30274 c 0.20085,-0.0402 -0.65313,4.76117 -1.9121,5.62695 -0.60153,0.41365 -0.91378,0.3231 -1.43555,-0.24023 -0.35936,-0.38797 -1.98828,-3.04297 -1.98828,-3.04297 l 1.39062,-0.69922 c 1.68795,2.6991 1.68741,1.39215 2.32617,-0.9082 z m 3.12305,2.38476 2.20899,3.78321 c -8.86103,22.56204 -23.15308,38.74752 -42.82618,48.54101 l -0.0449,-3.75 c 23.1947,-13.20231 32.7055,-28.79807 40.66211,-48.57422 z m -9.61328,0.38086 c 0.55129,-0.004 1.21967,0.68082 1.97461,2.00782 1.09169,1.91896 1.05366,2.04492 -0.74024,2.59765 -3.22917,0.85446 -4.42893,1.05861 -3.43554,-1.07226 1.06951,-2.29414 1.49234,-3.528 2.20117,-3.53321 z m 86.06055,0.99414 c 4.12968,0.11326 8.47168,4.61513 8.03125,8.32618 -0.31035,2.61526 0.19042,4.55707 0.90234,3.48632 1.57315,-2.36593 6.20976,-0.79415 6.16797,2.04688 -0.0222,1.51198 -1.03366,1.7611 -1.61328,0.39648 -0.85654,-2.0165 -3.26198,-2.06652 -3.61719,0.0469 -0.33294,1.98096 1.34716,3.43647 5.83594,5.05859 5.26006,1.23385 8.42532,5.94777 6.55469,8.65821 -0.64967,0.71651 -1.03974,0.89292 -1.16211,0.52148 -0.0352,-0.10655 -0.16441,-0.66539 -0.28516,-1.24024 -0.5966,-2.84045 -1.95724,-4.03398 -3.61133,-3.05859 -0.82902,0.48888 -0.72379,1.13655 -0.24023,1.99024 0.64387,1.13672 0.24094,1.57911 -0.91211,1 -1.82026,-0.9146 -2.42324,-3.08228 -0.6582,-4.08204 2.09857,-0.83912 1.38869,-1.01974 -1.29297,-1.92578 -5.7079,-1.95012 -8.15742,-5.52672 -8.45703,-12.34179 0.10961,-3.10655 -0.31445,-4.21436 -1.7754,-4.63868 -1.33768,-0.38851 -2.85284,1.30996 -1.89257,2.20508 0.52163,0.48622 0.94656,0.92865 0.66992,1.19727 -0.88706,0.86133 -3.10613,-0.53711 -3.08399,-2.03711 0.0144,-0.98068 0.38571,-1.18274 1.85352,-2.33594 0.40711,-0.31985 0.0607,-0.92287 -0.53516,-0.93164 -2.24364,0.72296 -2.08574,-2.24509 -0.8789,-2.3418 z m -88.15625,0.0234 c -5.67712,13.52865 -13.43378,25.33173 -28.94336,35.29688 l -0.0625,-3.59375 c 17.41764,-10.49662 24.94653,-30.15795 24.94531,-30.16407 z m 71.95703,0.23242 6.97461,0.12696 -1.86328,5.33203 -7.41407,-0.0527 z m 3.26953,0.53125 -3.48633,2.00391 1.81445,2.53711 3.86133,-1.8125 z m -67.8418,1.96875 c 0.40059,0 0.73048,0.32402 0.73047,0.72461 3e-5,0.40059 -0.32988,0.72852 -0.73047,0.72852 -0.4006,0 -0.72263,-0.32793 -0.72265,-0.72852 -4e-5,-0.40059 0.32205,-0.72461 0.72265,-0.72461 z m 7.14844,0.31446 c 7.35914,16.06072 9.10918,34.426 3.98828,52.77929 l -19.87305,-25.85547 c 7.62453,-8.58411 12.7501,-18.41148 15.88477,-26.92382 z m -9.83203,1.06836 c 1.74741,-0.0543 0.88426,4.66396 -1.38477,6.27343 -0.83228,0.63926 -1.39163,0.55974 -1.66601,-0.71875 -0.14218,-0.66248 -0.83985,-2.06458 -1.71875,-3.19336 -1.02243,-1.31311 -1.01095,-1.34443 0.48242,-1.4375 1.64891,0.0249 3.0003,-0.76799 4.28711,-0.92382 z m -17.04492,0.11132 -17.73438,7.45118 -0.0976,13.29492 c 9.90764,-6.76119 14.11068,-13.6825 17.83203,-20.7461 z m -1.45703,1.47071 c -3.04226,6.59363 -8.67427,13.13079 -15.20899,17.66992 l 0.043,-11.28516 z m 99.13867,0.0762 20.37109,26.71094 -2.02148,2.03125 -19.57617,-25.52149 z m -82.36328,0.34766 c -1.28903,-0.019 -1.67588,0.58292 -0.90821,1.4082 0.64642,0.69491 1.16024,0.54553 1.59375,-0.45899 0.26422,-0.61225 0.0274,-0.93873 -0.68554,-0.94921 z m -4.55664,0.54882 c 0.65672,0.01 2.14491,2.28609 2.5625,3.91992 0.3098,1.21209 -0.018,1.46871 -2.31641,1.81055 -0.95246,0.26074 -3.52533,0.009 -3.31641,-0.67578 0.37338,-0.98852 2.83878,-5.05815 3.07032,-5.05469 z m 70.92382,0.26172 7.14258,0.0762 -1.63672,5.85938 -7.48047,-0.10938 z m 3.15625,0.35742 -3.32617,2.30078 2.63086,2.5918 3.52344,-2.17578 z m 11.20703,2.51954 19.80469,25.70312 c -5.90871,7.51553 -11.80359,16.14893 -15.67773,27.56055 -7.05111,-16.49234 -9.63134,-32.54593 -4.12696,-53.26367 z m -80.43554,2.1875 c 0.40059,-2e-5 0.72852,0.32402 0.72851,0.7246 4e-5,0.4006 -0.32792,0.72852 -0.72851,0.72852 -0.40061,0 -0.72461,-0.32793 -0.72461,-0.72852 -3e-5,-0.40059 0.324,-0.72461 0.72461,-0.7246 z m -8.14453,0.87695 c 0.30249,-0.0245 0.80757,0.0555 1.54297,0.22461 1.36895,0.26543 3.05873,-0.058 4.32421,-0.1211 1.23662,0.0876 0.0682,4.02478 -1.79296,5.46094 -1.467,1.13201 -2.09647,0.60667 -2.43555,-1.46484 -0.12253,-0.74857 -0.90894,-2.02134 -1.60156,-3.02539 -0.48367,-0.70114 -0.54127,-1.03338 -0.0371,-1.07422 z m 72.05468,1.06445 7.49024,0.0449 -1.1543,8.89844 z m -73.21875,0.27149 c 0.0773,0.0197 0.15755,0.0643 0.24024,0.14062 1.18035,1.10026 2.67093,4.96035 1.90625,5.23828 -0.88947,0.32326 -4.91661,-0.14338 -5.36719,-0.60742 -0.31038,-0.31965 -0.31116,-0.32068 0.34766,-1.20117 0.36234,-0.48428 1.05017,-1.45079 1.5332,-2.14844 0.38071,-0.44584 0.7985,-1.55945 1.33984,-1.42187 z m 4.41016,0.27343 c -1.14071,0.0383 -1.21685,0.19447 -0.67578,1.42383 0.44138,1.00284 0.74739,1.09147 1.50586,0.43359 1.05529,-0.91532 0.61242,-1.90578 -0.83008,-1.85742 z m 131.46875,0.77149 0.27149,4.38867 c -28.79231,14.28122 -39.5754,47.99864 -39.73047,47.99805 l -2.08985,-3.89063 c 13.21155,-32.55614 30.78233,-41.98397 41.54883,-48.49609 z m -139.88477,4.61328 c 0.0688,-0.001 0.16041,0.0158 0.27735,0.0527 0.93551,0.29525 2.86655,0.54575 3.93555,0.52344 1.71452,-0.0358 2.21639,-0.15292 2.20703,0.48242 0.0199,1.70845 -1.57806,4.13388 -3.5293,5.04883 -1.31359,0.61596 -1.34382,0.62949 -1.49219,-0.91797 -0.11416,-1.19064 -0.50174,-2.72298 -1.11914,-3.94336 -0.16958,-0.39599 -0.76091,-1.23908 -0.2793,-1.24609 z m 8.0586,0.17969 c 0.4006,0 0.72459,0.32206 0.72461,0.72265 3e-5,0.40059 -0.32401,0.72461 -0.72461,0.72461 -0.40059,0 -0.72265,-0.32402 -0.72266,-0.72461 -3e-5,-0.40059 0.32207,-0.72265 0.72266,-0.72265 z m -9.17383,1 c 0.31101,-0.009 0.60728,0.6292 0.96094,1.56836 0.76901,2.04213 1.00485,3.14848 0.77734,3.6289 -0.35059,0.74038 -5.07776,0.26265 -5.88086,-0.56445 -0.15284,0.11438 3.47709,-4.22247 4.14258,-4.63281 z m 3.40234,0.50586 c -0.67731,0.0463 -0.31862,0.45462 0.1836,1.63671 0.34768,0.81836 0.81732,0.95058 1.35547,0.37696 0.71986,-0.76734 0.8175,-1.37747 0.36328,-1.70508 -0.66695,-0.26787 -1.15952,-0.30505 -1.90235,-0.30859 z m 137.7461,0.49609 0.008,1.66406 c -2.11288,0.93627 -1.90819,1.80166 0.0469,2.2793 l 0.0254,1.46875 c -1.1214,-0.3346 -1.8171,-0.80902 -3.09571,-1.23438 -0.78362,-0.26308 -1.24681,-0.45022 -0.55468,-1.27539 1.08443,-1.2929 2.24863,-2.10128 3.57031,-2.90234 z m -83.17383,2.44922 h 7.95508 v 5.25195 h 6.2207 l -0.48242,5.98438 h -5.73828 v 5.25195 h -7.95508 v -5.25195 h -5.68164 l 0.45898,-5.98438 h 5.22266 z m 17.96484,0.0176 c -4.02836,19.95897 -0.33182,41.14845 5.88282,58.41211 l -3.13672,0.3457 c -4.84407,-13.80578 -8.69394,-33.46065 -4.77735,-58.7461 0,0 1.40217,-0.0258 2.03125,-0.0117 z m 59.04297,0.38671 c 0.40059,0 0.72267,0.32402 0.72266,0.72461 3e-5,0.40059 -0.32207,0.72461 -0.72266,0.72461 -0.40059,0 -0.72462,-0.32402 -0.72461,-0.72461 -3e-5,-0.40059 0.32402,-0.7246 0.72461,-0.72461 z m -139.93554,1.67579 c 0.26364,-0.008 1.07291,0.34144 1.79101,0.54101 1.07977,0.30016 1.93179,0.43024 2.91602,0.44922 1.97724,0.0381 2.23565,0.0189 1.38476,1.64453 -0.61303,1.17106 -1.9933,2.71979 -2.95898,3.19141 -1.36736,0.72999 -1.89194,0.63055 -1.81055,-0.71485 0.01,-0.91232 -0.38613,-2.49776 -0.90234,-3.6289 -0.40135,-0.87944 -0.85934,-1.46922 -0.41992,-1.48242 z m 142.20898,0.54492 c 0.56064,-0.012 1.52155,0.33163 2.39844,0.75781 2.32512,1.1299 2.26222,1.38932 -0.88867,3.625 -2.28784,1.736 -2.82878,1.92993 -2.91016,-0.80664 -0.0824,-2.30626 0.16697,-3.5498 1.40039,-3.57617 z m -133.84375,0.0957 c 0.4006,0 0.73048,0.32402 0.73047,0.72461 3e-5,0.40059 -0.32986,0.72849 -0.73047,0.72852 -0.40059,10e-6 -0.72265,-0.32793 -0.72266,-0.72852 -3e-5,-0.40059 0.32207,-0.72461 0.72266,-0.72461 z m 131.0625,0.36719 c 0.55168,-0.0242 0.62475,0.4093 0.57422,1.9414 -0.0267,0.81125 0.11342,2.13516 0.16992,2.75196 0.11721,1.28064 0.007,1.3674 -1.00391,0.79492 -0.64781,-0.36698 -1.96429,-0.96651 -3.38867,-1.08984 -1.16707,-0.10106 -1.2523,-0.58199 -0.89062,-1.35157 1.03079,-1.70506 2.89667,-2.9021 4.53906,-3.04687 z m -140.61914,0.19922 c 0.92289,0.0133 1.94469,4.81776 1.11523,5.24609 -1.29148,0.66692 -5.29152,-0.63308 -5.27539,-1.72851 0.005,-0.35635 3.75299,-3.52353 4.16016,-3.51758 z m 3.42578,0.52539 c -0.80534,-0.006 -0.60505,0.4228 -0.10547,1.62695 0.35399,0.85329 0.96727,0.93419 1.59766,0.20703 0.88267,-1.01819 0.7093,-1.55675 -0.57422,-1.75195 -0.27154,-0.0411 -0.73213,-0.0807 -0.91797,-0.082 z m 136.12695,1.14453 c -0.33497,0.0312 -0.79326,0.29609 -1.01367,0.43945 -0.75696,0.47454 -1.06506,0.81526 0.0332,1.19141 0.97739,0.33475 1.49752,0.48109 1.41993,-0.36133 -0.0467,-0.50744 -0.007,-1.24391 -0.43946,-1.26953 z m -74.66211,0.62305 v 5.23242 h 6.33399 v -5.23242 z m 69.00586,0.45312 c 0.40059,0 0.72265,0.32402 0.72266,0.72461 3e-5,0.40059 -0.32207,0.72266 -0.72266,0.72266 -0.40058,0 -0.7246,-0.32207 -0.72461,-0.72266 -3e-5,-0.40059 0.32402,-0.72461 0.72461,-0.72461 z m 13.57813,0.69531 0.043,3.34961 c -2.25725,1.65142 -16.59058,12.0393 -24.00586,29.52149 l -3.88086,1.65234 c 5.46478,-15.04581 17.15245,-27.9326 27.84375,-34.52344 z m -132.125,0.1211 19.97656,25.64062 -1.32617,3.34375 -20.57617,-27.06836 z m -19.85352,1.29687 c 1.30058,0.39551 2.54203,1.3002 3.76953,1.46289 1.41118,0.17182 1.89792,0.0816 1.51563,0.81055 -0.85583,1.63226 -2.47138,3.3419 -4.17578,3.90039 -1.21853,0.39946 -1.79319,0.25108 -1.60156,-0.50586 0.35879,-1.41712 0.41957,-2.58019 0.37109,-3.87109 0.19296,-0.70362 -0.40777,-1.69079 0.12109,-1.79688 z m -1.67383,0.30078 c 0.0596,-0.011 0.1093,-0.0105 0.14844,0 0.82914,0.709 0.66557,5.18978 -0.25976,6.1543 -0.48381,0.50424 -1.88765,0.0423 -3.99219,-1.15039 -1.37584,-0.77952 -1.63184,-1.25479 -0.94531,-1.73242 1.09095,-0.66233 4.1541,-3.10673 5.04882,-3.27149 z m 142.39649,0.0664 c 0.1431,-0.009 0.30271,5.8e-4 0.48047,0.0293 0.43115,-0.009 0.96477,0.0659 1.60742,0.21289 2.48973,0.5593 3.04468,1.1282 0.92188,2.81445 -0.78473,0.62334 -1.6156,1.39683 -1.85743,1.69336 -1.14191,1.40023 -1.93758,0.38425 -2.1875,-2.1582 -0.15307,-1.55723 0.0335,-2.52748 1.03516,-2.5918 z m -2.63672,0.27148 c 0.40448,0 0.66365,0.20966 0.65625,0.7129 -0.009,0.64294 0.45138,3.42354 0.70898,4.18945 0.44876,1.30244 0.12397,1.59766 -0.95507,1.02929 -0.78595,-0.42366 -2.86683,-0.74482 -3.99219,-0.65624 -1.28067,0.10058 -1.24402,-0.24285 -0.86914,-1.31836 0.6644,-1.906 3.23765,-3.95608 4.45117,-3.95704 z m -136.86914,0.92579 c -0.48658,-0.002 -0.5068,0.65509 -0.17383,2.1582 0.10592,0.47828 0.51659,0.44771 1.29297,-0.0977 0.91849,-0.64494 0.88108,-1.04978 -0.1543,-1.66992 -0.42651,-0.25552 -0.74369,-0.38998 -0.96484,-0.39062 z m 5.66211,0.16406 c 0.40059,0 0.72265,0.32402 0.72266,0.72461 3e-5,0.40059 -0.32209,0.72265 -0.72266,0.72265 -0.40059,0 -0.72462,-0.32206 -0.72461,-0.72265 -3e-5,-0.40059 0.32402,-0.72461 0.72461,-0.72461 z m 130.29297,0.98047 c -0.75874,0.13518 -1.83056,1.36497 -1.45117,1.83398 0.34781,0.33879 1.6322,0.32516 1.85351,0.1211 0.33936,-0.31291 0.18128,-1.76689 -0.10156,-1.94141 -0.0905,-0.0308 -0.19239,-0.033 -0.30078,-0.0137 z m -122.19336,1.03711 c 0,0 0.5878,2.43476 0.83398,3.5625 0.43681,2.07167 3.35017,1.95687 3.02149,-0.20313 -0.19191,-1.26112 -0.23597,-1.23523 0.39648,-1.20703 3.00833,0.14734 2.48623,4.89003 -0.98047,4.52344 -0.72329,0.0864 -0.81906,0.38212 -0.20703,0.63672 0.608,0.25308 2.93785,0.85083 3.29688,0.84961 3.77185,-0.0128 9.21197,5.78701 9.07812,10.93359 -0.0875,3.3658 1.05391,5.78814 2.2207,6.0625 0.92771,0.21812 2.27479,-0.62574 2.15821,-1.65625 -0.16085,-1.42177 0.99482,-0.97833 1.66015,0.043 1.01531,1.41101 -0.29475,3.44669 -2.71289,3.28711 -1.02895,0.20066 0.75726,0.85411 2.08008,1.23633 1.19992,0.0686 0.18586,1.54718 -0.0371,1.81054 -0.67817,0.78766 -2.90156,0.18451 -4.64453,-1.22265 -2.13981,-1.72784 -3.05805,-4.04333 -3.31055,-8.5918 -0.16231,-2.92391 -0.37993,-3.51657 -1.23046,-2.31055 -1.52925,2.68956 -5.19141,1.37211 -5.64844,-1.46875 -0.25607,-1.50406 1.06825,-2.58813 1.49609,-1.22461 1.13494,2.8337 3.9128,2.15198 3.46094,-0.66211 -0.29812,-1.85662 -2.15594,-2.88045 -5.82617,-3.91406 -4.41209,-1.24252 -5.72414,-2.75247 -6.58399,-6.37109 -0.38059,-1.60167 -0.31918,-2.43981 0.52735,-3.27735 0.41818,-0.4139 0.95117,-0.83593 0.95117,-0.83593 z m 116.24609,1.26562 c 0.40059,0 0.72461,0.32402 0.72461,0.72461 3e-5,0.40059 -0.32402,0.72266 -0.72461,0.72266 -0.40059,0 -0.72461,-0.32207 -0.72461,-0.72266 -3e-5,-0.40059 0.32402,-0.72461 0.72461,-0.72461 z m -138.48437,0.6875 c 1.31363,0.47578 2.44238,1.18167 3.79687,1.64258 0.87877,0.29878 0.63901,1.00106 -0.27148,2 -1.01507,1.19834 -2.01102,1.78925 -3.41797,2.45703 l 0.0137,-2.02734 c 1.71018,-0.59693 2.79846,-2.0201 -0.0742,-2.47657 z m 141.32031,1.10742 c 0.16539,-0.01 0.35836,-0.002 0.58203,0.0234 0.49753,0.004 1.20269,0.0227 2.0293,0.19336 2.09356,0.43261 2.33773,0.61857 1.08008,2.08984 -0.46622,0.54538 -1.15931,1.36856 -1.53907,1.83008 -1.23794,1.72451 -1.90412,1.13286 -2.48046,-1.0957 -0.62601,-2.03608 -0.82961,-2.974 0.32812,-3.04102 z m -2.34375,0.55078 c 0.77231,-0.004 0.55952,0.9332 0.81641,1.87891 0.19967,0.73514 0.50126,1.67253 0.73242,2.33594 1.13612,2.50563 0.41863,1.53549 -1.61719,1.31445 -1.36844,-0.14858 -3.54712,0.0813 -4.08594,-0.29687 -0.23502,-0.30519 -0.0191,-1.10976 0.41993,-2.01758 0.6179,-1.27772 1.74203,-2.36718 2.58007,-2.86133 0.53057,-0.24505 0.89686,-0.35221 1.1543,-0.35352 z m -132.41211,0.30274 c 0.40059,0 0.72462,0.32402 0.72461,0.72461 3e-5,0.40059 -0.32402,0.72461 -0.72461,0.72461 -0.40059,0 -0.72265,-0.32402 -0.72266,-0.72461 -3e-5,-0.40059 0.32207,-0.72461 0.72266,-0.72461 z m 10.91211,0.68555 22.82031,30.17187 -1.78906,2.55078 -23.47266,-31.02148 z m 143.01172,0.11328 c -11.86186,8.57204 -16.41661,18.97664 -17.3418,20.33593 l 17.39063,-6.71093 z m -22.64844,0.98242 c -0.65022,0.17875 -1.58303,1.38592 -1.18164,1.85937 0.24006,0.24706 1.19545,0.27971 1.6543,0.11133 0.70607,-0.25909 0.22421,-1.97424 -0.47266,-1.9707 z m 21.38477,0.78906 0.17773,11.25977 -14.875,6.20312 c 4.98097,-8.41442 9.86136,-13.61785 14.69727,-17.46289 z m -145.1836,0.5918 23.79688,31.24804 -4.86133,6.12696 -25.32617,-32.75977 z m 43.47266,0.36328 5.95703,7.75781 -7.2793,-0.16601 z m 75.33203,0.63476 c 0.40059,0 0.72462,0.32403 0.72461,0.72461 3e-5,0.40059 -0.32402,0.72461 -0.72461,0.72461 -0.40059,0 -0.72267,-0.32402 -0.72266,-0.72461 -3e-5,-0.40058 0.32209,-0.7246 0.72266,-0.72461 z m 4.36719,1.83594 c 2.72489,0.0375 3.63381,0.18433 2.8418,1.52344 -1.05737,1.30707 -1.6825,2.54894 -2.83594,3.75781 -0.66554,0.67755 -1.49789,-0.71957 -2.19336,-2.95508 -0.56165,-1.80527 -0.27586,-2.26039 0.79101,-2.27539 1.06688,-0.015 1.24799,-0.0528 1.39649,-0.0508 z m -3.91016,0.95899 c 0.39615,-0.007 0.46772,0.54149 0.76172,1.48242 0.22278,0.71318 0.74581,1.88579 1.16016,2.60156 0.41435,0.71578 0.87838,1.51183 0.84961,1.65039 -0.0699,0.33583 -0.38797,0.3618 -1.10547,0.0918 -1.55268,-0.69997 -5.20247,0.0405 -5.29883,-0.30469 -0.54209,-0.77229 0.27037,-2.87908 1.80273,-4.33789 0.7485,-0.71256 1.43394,-1.17662 1.83008,-1.18359 z m -0.5293,2.07226 c -0.68428,0.0513 -1.7538,1.5265 -1.26367,2.03125 0.57772,0.27399 1.46719,0.2542 1.83985,-0.24023 0.25493,-0.48423 0.19045,-1.50788 -0.57618,-1.79102 z m -4.98242,3.41797 c 0.40059,-3e-5 0.72461,0.32207 0.72461,0.72266 3e-5,0.40059 -0.32402,0.72462 -0.72461,0.72461 -0.40059,3e-5 -0.7246,-0.32402 -0.72461,-0.72461 -3e-5,-0.40059 0.32403,-0.72267 0.72461,-0.72266 z m -71.89258,0.0273 7.56836,0.0449 -1.97851,6.49023 -7.37109,-0.13867 z m 33.33594,0.16993 0.97852,8.43164 c -8.25484,3.00146 -17.15679,8.09263 -24.94141,17.45508 -1.33013,-0.0874 -11.94336,0.0918 -11.94336,0.0918 0.26554,0.038 9.83562,-18.01958 10.9375,-25.85742 z m -29.97461,0.78515 -3.4707,2.38477 2.71289,2.89062 3.58984,-2.43164 z m 72.22852,0.0352 c 0.73792,-0.004 1.72671,0.0863 2.51953,0.22656 1.27928,0.24792 1.46824,0.27226 1.03711,1.32813 -0.57559,1.4008 -1.87339,3.92571 -2.20117,4.12695 -1.17261,0.7264 -3.77681,-4.48394 -2.88867,-5.38477 0.23504,-0.18466 0.73293,-0.29295 1.5332,-0.29687 z m -3.31836,1.60156 c 0.33526,-0.0292 0.78181,0.62362 0.91406,1.18555 0.16058,0.6822 1.34141,2.4002 2.08594,3.22461 0.93618,1.03656 0.88771,1.18193 -0.45313,1.28906 -1.59689,0.12738 -3.15758,0.44288 -4.05664,0.76953 -1.39373,0.50638 -1.58291,0.39326 -1.40429,-1.23633 0.26884,-2.45249 1.90825,-5.14524 2.91406,-5.23242 z m -0.14649,2.30469 c -0.86489,0.13519 -1.22826,2.09739 -1.07812,2.76953 0.1742,0.47482 2.33684,-0.39685 2.45703,-0.9668 -0.0206,-0.25563 -0.86834,-1.7355 -1.37891,-1.80273 z m -74.10742,2.43555 7.1543,0.0684 -2.34766,5.89257 -7.07031,-0.0195 z m 3.20313,0.79101 -3.42774,2.16602 2.66993,2.58203 3.28125,-2.26367 z m 72.74219,1.06836 c 0.60735,-0.006 1.24967,0.0528 1.38476,0.27539 0.37975,0.62567 -1.16797,4.12305 -1.16797,4.12305 l -2.52148,0.99805 c -0.54215,-1.11581 -1.46865,-2.27551 -1.69336,-3.48438 -0.0894,-0.5283 0.178,-0.72127 0.76172,-1.04883 0.86998,-0.48822 2.22403,-0.85346 3.23633,-0.86328 z m -6.75391,0.28516 c 0.40059,-3e-5 0.7246,0.32403 0.72461,0.72461 3e-5,0.40059 -0.32404,0.72265 -0.72461,0.72265 -0.40059,4e-5 -0.72462,-0.32207 -0.72461,-0.72265 -3e-5,-0.4006 0.32402,-0.72461 0.72461,-0.72461 z m -32.62109,0.10156 c 0,0 1.28769,7.26901 1.57421,7.79297 -11.8944,4.49237 -18.85719,11.11108 -22.1582,17.56836 l -22.38281,-0.0176 4.99609,-7.75195 13.25196,-0.0664 c 6.40469,-7.77181 14.30414,-13.96913 24.71875,-17.52539 z m -2.86524,2.05469 -1.10547,3.52929 3.34571,2.13282 1.25976,-3.78907 z m 36.66406,0.0684 h 0.002 c 0.28311,-0.0244 0.56491,0.45396 1.13867,1.47265 0.42489,0.7544 0.98437,1.85157 0.98437,1.85157 l -1.00195,0.37109 c -0.80697,-2.75833 -1.5463,-1.73138 -1.63281,0.70312 l -1.37305,0.54493 c 0,0 0.15029,-2.34593 0.93359,-3.7168 0.44938,-0.78628 0.69941,-1.20183 0.94922,-1.22656 z m -72.95703,2.41211 6.9375,0.0879 -2.90234,6.00976 -7.05078,-0.19336 z m 30.25586,0.48437 -0.55078,4.45899 3.73633,0.79101 0.51172,-4.23633 z m -27.30664,0.0527 -3.42578,2.21484 2.24805,2.95898 3.29687,-2.21484 z m 21.94727,3.90429 -0.70899,4.10742 3.50391,0.79688 0.79687,-4.13086 z m -76.15625,0.24219 8.76953,8.69141 0.48242,60.65039 -8.7207,8.74609 z m 47.71484,2.21875 c -0.0314,0.0485 6.99609,0.20117 6.99609,0.20117 l -2.8125,5.07617 -2.40234,-0.10742 3.16211,-2.15625 -2.02734,-2.59375 -3.24805,2.11914 1.81055,2.6211 -4.7461,-0.10157 z m 45.24219,1.50195 2.38086,7.86914 -2.86328,0.49805 -2.15039,-7.4043 c 0.87753,-0.45418 1.75528,-0.67872 2.63281,-0.96289 z m -22.5,0.49219 0.0488,4.7207 3.82226,0.32422 0.14844,-4.42773 z m 19.0039,0.75391 2.17774,7.47656 -1.81641,0.51758 -2.60351,-7.09766 c 0.71221,-0.42131 1.45718,-0.72995 2.24218,-0.89648 z m -3.31836,1.54297 2.80079,7.32031 c -3.8678,1.56814 -7.87941,4.9249 -10.89844,8.27539 -2.23806,-1.64444 -3.55497,-1.8176 -4.93555,-2.18945 3.80752,-7.09356 8.30432,-10.81709 13.0332,-13.40625 z m -42.25585,1.83593 7.35546,0.22071 -5.11718,7.64062 -8.32032,-0.01 z m 21.89843,0.28321 -0.47851,4.4707 3.93945,2.32617 0.59766,-4.58984 z m -4.74609,0.6289 -2.79883,2.95899 2.97266,3.39258 2.72851,-3.54297 z m -6.25977,0.1543 -3.32617,3.05078 2.64453,3.45117 3.04102,-3.4707 z m -44.76172,0.48242 2.39063,2.36328 0.32422,59.25 -12.21875,11.8418 -0.0918,-3.1875 9.71485,-10.14453 c 0.0109,-20.04138 -0.0519,-40.08183 -0.11915,-60.12305 z m 34.9004,0.44922 -3.37305,4.59961 4,0.01 2.90234,-4.45507 z m -20.8086,28.66992 c -1.33052,4.78725 -7.46455,9.9803 -7.57422,9.89258 3.03676,4.35205 2.93584,10.55799 0.25782,13.61523 0.0125,-0.0686 4.88102,3.97309 5.56445,6.07227 0.38542,0.83586 0.53926,1.85373 1.02734,2.68359 0.12914,0.21958 0.54102,0.76563 0.54102,0.76563 11.89403,-12.06095 6.23051,-26.19664 0.18359,-33.0293 z m 0.17774,1.25195 c 11.54867,14.32797 3.93549,27.44321 -0.0937,31.10157 l -0.76953,-1.27149 c 8.58163,-9.97331 4.94558,-22.22459 -0.0547,-28.02539 z m -1.25,2.78907 c 0.0771,0.23263 0.5269,0.9068 0.19336,0.86328 l -0.57813,-0.11524 z m -0.0859,1.59765 c 0.25091,10e-6 0.46046,0.0772 0.57422,0.25 0.23523,0.39121 -0.95792,3.68579 -1.69532,2.91797 -0.22234,-0.43488 -0.4848,-0.81113 -0.68945,-1.26172 -0.24039,-0.53751 -0.0817,-0.79742 0.46875,-1.33203 0.37949,-0.36853 0.92359,-0.57373 1.3418,-0.57422 z m 1.66016,0.89258 c 0.58396,0.0453 1.41501,1.88256 1.49218,3.19531 0.036,0.13617 -1.97219,-0.30869 -2.50586,-0.92187 0.0645,-0.53788 0.5681,-1.90542 1.01368,-2.27344 z m -4.51758,1.5 c 3.47717,6.9913 3.25885,12.45195 0.19726,17.47266 l -2.39648,-2.05274 c 1.61283,-3.81768 2.41079,-7.89175 -0.30469,-13.08007 z m 2.3457,1.74805 c 0.24074,-0.021 0.98296,0.0906 1.64062,0.30078 2.32711,0.74374 2.41411,2.26564 0.17383,3.38281 -0.92798,0.46271 -1.2171,0.2583 -1.75195,-2.07031 -0.26451,-1.15158 -0.46374,-1.5783 -0.0625,-1.61328 z m 4.49414,2.67969 c 0.44861,-0.002 0.65437,0.84501 0.70898,2.30664 0.0519,1.3882 -0.24328,1.4982 -1.36132,0.50781 -1.20861,-1.07063 -1.41632,-1.32609 -0.3086,-2.20703 0.32438,-0.25795 0.75704,-0.60647 0.96094,-0.60742 z m -3.17187,2.29296 c 0.22097,-0.0192 0.86437,0.39082 1.49218,0.86915 1.59102,1.21221 1.23738,2.0443 -0.57031,2.63085 -1.25236,0.40626 -1.1901,0.4572 -1.1582,-1.70898 0.0158,-1.07115 -0.0478,-1.76629 0.23633,-1.79102 z m 26.85742,1.62305 c -0.55423,-0.0102 -1.10425,-0.01 -1.64649,0.002 -1.44596,0.0319 -2.84178,0.14505 -4.14648,0.34766 -1.94212,0.4928 -2.75767,2.22373 -2.11328,3.7832 0.29275,0.70851 0.73892,0.71499 0.21679,1.14844 -0.5831,0.67283 -0.89342,2.23168 -0.25195,2.79883 0.75685,0.43373 0.95147,-0.31586 0.1543,1.14844 l -14.62891,26.87304 87.81445,-0.16211 -10.55468,-19.76757 c 0.0243,-0.0283 0.84469,-3.26265 -0.84375,-3.65235 -0.54244,-0.12518 -0.85284,-0.6289 -0.96289,-1.11132 0.13759,-1.37527 -0.48778,-1.95967 -1.01368,-2.66993 -8.34785,1.17898 -15.59788,0.59151 -21.58789,-0.75586 -8.62832,-1.94079 -14.79675,-5.29999 -18.80664,-6.35547 -3.62895,-0.95521 -7.74929,-1.55577 -11.6289,-1.62695 z m -1.0625,0.53321 v 0.002 c 6.80417,-0.0407 14.4213,2.04062 19.75195,4.34765 5.53051,2.28431 11.38922,3.98744 17.30859,4.86133 4.88559,0.61459 9.75744,0.30627 14.42969,-0.0644 0.51073,-0.0766 1.04144,-0.008 1.42188,0.39648 0.96818,1.07604 0.30771,1.75049 -2.11524,1.97461 -3.89022,0.32116 -8.71483,0.18325 -12.99414,-0.45898 -6.77611,-0.77863 -13.95872,-2.82745 -20.15625,-5.39649 -7.74539,-2.90626 -14.85923,-3.87899 -20.48047,-3.02148 -3.08696,0.4709 -3.53955,0.54628 -3.52734,-0.2832 0.0238,-1.61781 1.36196,-2.35862 6.36133,-2.35742 z m -21.99024,0.52148 c 0.0531,0.023 0.0484,0.13607 0.0508,0.30273 0.0119,0.84546 -0.0552,3.02922 -0.35546,3.86719 -0.29868,0.68527 -2.41589,-1.55654 -2.39454,-2.18945 0.0448,-0.27897 1.75766,-1.39724 2.4375,-1.85156 0.0822,-0.0631 0.14322,-0.10255 0.1875,-0.1211 0.0332,-0.0139 0.0565,-0.0155 0.0742,-0.008 z m -3.5625,2.51562 c 0.97649,0.13135 2.582,2.76741 1.16797,3.17579 -1.25196,0.36158 -2.39039,0.59377 -2.54297,-0.2461 0.64473,-2.06223 0.88545,-2.8786 1.25782,-2.92578 0.0379,-0.005 0.0795,-0.005 0.11718,-0.004 z m 28.12891,1.04493 c 10.91628,0.0432 18.41359,6.0342 28.65625,7.95898 6.23334,1.07791 14.41595,1.72264 19.76367,1.30469 3.06568,-0.30839 3.71024,-0.20975 3.69141,1.06836 -0.0118,0.80069 0.0757,0.78126 -3.88086,0.77734 -3.28803,0.21925 -6.24852,-0.13438 -9.43164,-0.29883 -6.58629,-0.32716 -12.5689,-1.45519 -18.09961,-3.375 -6.13495,-1.59121 -11.45165,-4.64806 -17.45508,-5.27929 -5.5059,-0.53986 -10.4574,0.43294 -11.49609,1.00976 -0.34659,-0.004 -0.52829,-0.51829 -0.50782,-0.99219 0.0201,-0.46349 0.19328,-0.83513 0.58008,-1.13085 2.95894,-0.74644 5.66055,-1.05294 8.17969,-1.04297 z m -26.06836,2.68554 c 0.52589,0.006 0.35872,0.78474 -0.50195,2.4336 -0.73171,1.40167 -1.01987,1.39496 -1.4336,-0.043 -0.44194,-1.53601 -0.39877,-1.70673 0.47852,-1.93164 0.51646,-0.12402 0.95246,-0.39438 1.45703,-0.45899 z m -3.68359,0.78321 c 0.61653,0.009 1.49201,2.79909 1.04297,3.32422 -0.35489,0.415 -1.63763,0.13482 -2.01172,-0.35547 -0.60188,-0.78877 0.16685,-2.98042 0.96875,-2.96875 z m 27.58984,0.7539 c 2.44792,-0.0247 4.88814,0.23742 7.13086,0.62305 -1.29137,0.47724 -2.57701,0.91665 -3.91797,1.69141 -0.92599,-0.79592 -1.97821,-1.56996 -3.21289,-2.31446 z m -3.67773,0.54102 c 0.22471,-0.0104 0.45185,-0.007 0.67968,0.01 3.03777,0.22073 6.2254,2.67105 6.17774,2.83789 8.65094,-4.82333 12.30458,1.83446 13.55468,2.90821 7.56315,-1.67383 9.04427,-0.84944 13.26368,3.70898 7.57319,-3.70282 11.24329,-0.55373 14.40429,1.4375 3.70865,-3.46549 8.4107,-3.56153 10.86133,-1.82226 0.4588,0.76669 1.0963,1.73899 1.14844,2.02929 0.0406,0.22615 -0.30574,-0.0365 -1.1582,-0.64648 -4.44768,-3.18239 -11.82958,0.7808 -9.85743,4.97656 0.531,1.13035 0.44636,1.61688 -0.34765,2.07031 -1.12808,0.7632 -2.51236,-0.50244 -1.72656,-1.79492 1.312,-2.15793 0.32429,-3.96419 -2.86719,-5.63281 -4.49804,-2.35173 -11.8461,0.28235 -10.33399,3.75 0.96769,1.10745 0.0699,1.88738 -1.20703,1.84766 -1.44585,-0.045 -1.93706,-1.01079 -1.00976,-2.04493 1.15683,-1.32063 0.85333,-2.66047 -0.49414,-4.18554 -4.03882,-5.75307 -12.21115,-3.47083 -11.12891,1.57031 0.47452,1.25269 -0.8752,1.75607 -2.27734,1.19922 -0.89228,-0.35417 -0.75926,-1.73192 0.21679,-2.21875 1.12349,-0.11367 1.28253,-1.74063 1.14844,-2.78516 -0.19507,-1.51949 -2.43563,-3.01839 -4.65234,-3.8125 -1.60452,-0.57481 -3.09498,-0.69743 -4.27149,-0.58984 -2.48342,0.2271 -3.86986,1.91219 -3.46094,4.43945 0.24127,1.49101 -0.17573,3.03651 -1.92578,2.2168 -0.95766,-0.44857 -0.71801,-1.53078 0.25977,-2.5293 3.43844,-3.35786 -3.48416,-7.44397 -7.66406,-4.62891 -0.70848,0.58251 -1.22657,0.6836 -1.22657,0.6836 0.86011,-2.14112 2.32154,-2.9212 3.89454,-2.99414 z m 18.25195,1.96875 5.22265,1.96679 c -1.20464,0.23784 -2.05288,0.5759 -2.90624,0.91407 z m -17.60938,0.51172 c 2.26615,0.11583 4.15406,1.45064 3.9668,1.60937 -4.82083,-0.9134 -5.08299,4.47277 -1.94141,5.35156 -4.32174,5.93776 6.99433,8.24278 4.91797,0.91602 5.7348,1.03306 4.6981,-5.49342 0.4336,-5.43359 0.99748,-2.43131 8.87047,-0.5876 8.53125,1.21875 -5.3222,0.56443 -3.19508,5.41251 -0.89258,5.41796 -5.5653,5.2687 5.57121,10.12593 5.27539,2.1836 4.46811,0.9392 4.99214,-4.99261 0.69727,-5.38281 1.57307,-2.21293 7.19206,-0.81799 8.75,1.71289 -4.4338,0.58809 -4.15717,4.48235 -0.6875,5.11132 -4.39739,5.59908 6.4256,7.66918 5.30078,1.16016 3.878,1.33328 6.00684,-3.84123 0.98242,-5.32031 5.14678,-3.06581 10.73423,1.50453 10.1289,1.59765 -5.87333,-0.34735 -4.70349,5.53816 -0.45312,5.21876 -2.7041,6.11129 8.01058,6.45135 5.29297,0.11328 4.81957,0.0884 4.39678,-5.49606 -0.22071,-5.86914 2.90766,-2.1198 6.18756,-2.30556 8.29688,-0.32227 -4.39462,1.15603 -2.56917,6.26371 1.85156,4.84961 0.40899,4.27402 3.88346,3.36739 3.96094,3.23828 l 3.10938,5.80078 -84.25782,0.13477 7.19141,-13.27149 c 4.25072,0.21791 4.09854,-3.87423 3.91211,-3.97461 2.82645,2.018 5.86798,-2.99775 1.73242,-4.43554 1.26681,-1.32567 2.76141,-1.6945 4.12109,-1.625 z m -23.71289,0.59961 c 0.31369,-0.0112 0.62586,0.19286 0.25,0.63867 -0.17596,0.18005 -0.22153,0.28794 -0.51172,0.0195 -0.36725,-0.42026 -0.052,-0.64699 0.26172,-0.6582 z m 17.67188,2.86328 c 0.37119,0.30389 0.1158,1.13545 -0.18555,1.41992 -0.75939,0.81323 -1.01416,0.74778 -0.3457,-0.65625 0.197,-0.42495 0.38259,-0.76834 0.53125,-0.76367 z m 36.91601,0.375 4.38086,1.06054 -2.08007,1.17188 c -0.76821,-0.83453 -1.50834,-1.55566 -2.30079,-2.23242 z m 13.69141,1.76562 4.76367,0.30274 c -0.62957,0.42834 -1.24715,0.82689 -2.01758,1.60742 -0.59972,-0.63714 -1.73559,-1.27302 -2.74609,-1.91016 z m 15.87305,4.85742 c 0.26493,0.55247 1.31585,2.47509 1.21679,2.5254 -1.54088,0.26841 -1.95278,-2.02529 -1.21679,-2.5254 z"
         inkscape:connector-curvature="0" />
    </g>
  </g>
</svg>
