<?xml version="1.0" encoding="UTF-8" standalone="no"?>
<!-- Created with Inkscape (http://www.inkscape.org/) -->

<svg
   xmlns:dc="http://purl.org/dc/elements/1.1/"
   xmlns:cc="http://creativecommons.org/ns#"
   xmlns:rdf="http://www.w3.org/1999/02/22-rdf-syntax-ns#"
   xmlns:svg="http://www.w3.org/2000/svg"
   xmlns="http://www.w3.org/2000/svg"
   xmlns:sodipodi="http://sodipodi.sourceforge.net/DTD/sodipodi-0.dtd"
   xmlns:inkscape="http://www.inkscape.org/namespaces/inkscape"
   width="210mm"
   height="297mm"
   viewBox="0 0 210 297"
   version="1.1"
   id="svg8"
   sodipodi:docname="QD.svg"
   inkscape:version="0.92.4 5da689c313, 2019-01-14">
  <defs
     id="defs2" />
  <sodipodi:namedview
     id="base"
     pagecolor="#ffffff"
     bordercolor="#666666"
     borderopacity="1.0"
     inkscape:pageopacity="0.0"
     inkscape:pageshadow="2"
     inkscape:zoom="0.53033009"
     inkscape:cx="366.09331"
     inkscape:cy="646.99577"
     inkscape:document-units="mm"
     inkscape:current-layer="layer1"
     showgrid="false"
     showguides="true"
     inkscape:guide-bbox="true"
     inkscape:snap-text-baseline="false"
     inkscape:snap-to-guides="true"
     inkscape:window-width="1866"
     inkscape:window-height="1016"
     inkscape:window-x="54"
     inkscape:window-y="30"
     inkscape:window-maximized="1"
     inkscape:snap-nodes="false">
    <sodipodi:guide
       position="400.1203,316.30458"
       orientation="1,0"
       id="guide12"
       inkscape:locked="false" />
    <sodipodi:guide
       position="474.95576,250.44938"
       orientation="1,0"
       id="guide20"
       inkscape:locked="false" />
    <inkscape:grid
       type="xygrid"
       id="grid979" />
  </sodipodi:namedview>
  <metadata
     id="metadata5">
    <rdf:RDF>
      <cc:Work
         rdf:about="">
        <dc:format>image/svg+xml</dc:format>
        <dc:type
           rdf:resource="http://purl.org/dc/dcmitype/StillImage" />
        <dc:title></dc:title>
      </cc:Work>
    </rdf:RDF>
  </metadata>
  <g
     inkscape:label="Layer 1"
     inkscape:groupmode="layer"
     id="layer1">
    <g
       id="g1414">
      <text
         transform="scale(0.98362084,1.0166519)"
         id="text861"
         y="48.931515"
         x="55.662212"
         style="font-style:normal;font-weight:normal;font-size:10.57309151px;line-height:1.25;font-family:sans-serif;text-align:end;letter-spacing:0px;word-spacing:0px;text-anchor:end;fill:#000000;fill-opacity:1;stroke:none;stroke-width:0.26432729"
         xml:space="preserve"><tspan
           id="tspan1706"
           style="font-size:17.62182045px;text-align:end;text-anchor:end;stroke-width:0.26432729"
           y="48.931515"
           x="55.662212"
           sodipodi:role="line">Q</tspan></text>
      <path
         sodipodi:nodetypes="ccccc"
         inkscape:connector-curvature="0"
         id="path22-7"
         d="m 62.78281,36.789927 4.657858,6.451128 -4.657858,6.419028 -4.611275,-6.419028 z"
         style="fill:#ff0000;fill-opacity:1;stroke:#000000;stroke-width:0.06327772;stroke-linecap:butt;stroke-linejoin:miter;stroke-miterlimit:4;stroke-dasharray:none;stroke-opacity:1" />
    </g>
    <rect
       style="fill:none;fill-opacity:1;stroke:#000000;stroke-width:1.12687981;stroke-miterlimit:4;stroke-dasharray:none;stroke-opacity:1"
       id="rect964"
       width="168.87311"
       height="258.87311"
       x="20.563442"
       y="17.563457"
       rx="11.061727"
       ry="11.479745" />
    <g
       id="g213">
      <text
         transform="scale(-0.98362084,-1.0166519)"
         id="text861-8"
         y="-244.62996"
         x="-157.30576"
         style="font-style:normal;font-weight:normal;font-size:10.57309151px;line-height:1.25;font-family:sans-serif;text-align:end;letter-spacing:0px;word-spacing:0px;text-anchor:end;fill:#000000;fill-opacity:1;stroke:none;stroke-width:0.26432729"
         xml:space="preserve"><tspan
           style="font-size:17.62182045px;text-align:end;text-anchor:end;stroke-width:0.26432729"
           y="-244.62996"
           x="-157.30576"
           id="tspan859-9"
           sodipodi:role="line">Q</tspan></text>
      <path
         sodipodi:nodetypes="ccccc"
         inkscape:connector-curvature="0"
         id="path22-7-7"
         d="m 146.69691,261.65991 -4.65786,-6.45113 4.65786,-6.41903 4.61128,6.41903 z"
         style="fill:#ff0000;fill-opacity:1;stroke:#000000;stroke-width:0.06327772;stroke-linecap:butt;stroke-linejoin:miter;stroke-miterlimit:4;stroke-dasharray:none;stroke-opacity:1" />
    </g>
    <g
       transform="matrix(0.71862746,0,0,0.71862746,-162.4899,-228.47486)"
       id="g325">
      <path
         inkscape:connector-curvature="0"
         d="m 440.38281,396.56641 -39.68945,0.13086 c 0,0 25.29278,36.55997 33.87109,43.04882 0.63082,0.29592 11.20703,-1.72461 11.20703,-1.72461 -5.42078,-12.97702 -8.90642,-26.40303 -5.38867,-41.45507 z m -25.63476,57.95117 c -17.43748,4.92163 -34.84237,9.54993 -53.7461,1.52734 l -20.64453,19.94531 c -0.17143,0.5143 26.75265,12.11316 27.17578,10.84375 l -6.62695,21.15235 15.2793,3.36328 7.01367,-22.50195 c 0,0 21.09319,-2.02197 30.88281,-5.38086 7.44336,-2.55388 15.14058,-4.4068 21.78711,-9.95508 -13.72864,-8.25108 -21.13539,-19.0923 -21.12109,-18.99414 z m -99.76758,3.48828 c -1.49972,0.0298 -3.24161,0.72284 -5.11328,2.41016 -6.609,-4.0556 -11.77484,4.29106 -6.93555,8.45898 -0.56885,2.43472 -0.76196,6.0583 1.59375,7.65039 2.16463,1.36829 6.20237,-0.0503 6.78516,-0.0352 0.0415,0.001 0.10408,4.3824 -0.23243,4.3711 -0.62596,-0.021 -2.98952,-2.03366 -4.44726,-2.47071 -4.92583,-1.4768 -11.85494,-2.20726 -11.73242,-1.95312 0.20551,0.4263 -1.22712,1.43733 4.26953,4.88867 2.04173,1.282 8.49331,-0.16158 13.63086,1.45899 3.13003,0.98732 6.2068,2.62812 7.90625,1.81054 2.14851,-0.89791 4.65444,-3.73157 5.46289,-6.04101 0.21462,-2.37639 -11.41277,2.32866 -12.0918,2.95508 l -0.043,-5.01563 c 5.28605,0.58175 10.05831,-3.24859 4.86328,-9.81641 2.90163,-2.88414 0.58314,-8.76127 -3.91601,-8.67187 z m 16.9082,25.66016 c -13.00041,13.10485 -39.57422,37.69921 -39.57422,37.69921 l 0.28516,18.35547 25.96094,23.23047 c 2.0566,-24.6605 16.07025,-47.67562 29.41406,-59.18945 1.22556,-3.50155 -13.25997,-18.86707 -16.08594,-20.0957 z m 92.625,4.5332 c -1.95881,15.16341 -3.73795,35.84239 -29.46289,58.82812 4.45767,7.59158 10.13119,15.31813 18.29688,19.00586 0.57965,1.30426 23.60242,-23.82306 37.76562,-35.70312 l -0.0762,-16.0918 z m -114.20703,0.86133 c -0.54749,-0.0176 -1.18743,1.46815 -1.73437,2.39453 -0.0535,0.33027 -1.0031,4.31244 -1.24805,4.20703 0.0192,0.21683 2.63406,-0.97035 2.92969,-2.0625 0.25923,-0.95757 0.85925,-2.25612 0.89843,-2.43945 -0.22108,-1.53755 -0.5172,-2.08906 -0.8457,-2.09961 z m -11.36523,12.99414 c -0.93463,2.25683 -1.80892,6.40346 -1.48633,9.10156 4.60558,2.30529 5.85784,-7.2845 4.61914,-8.20117 -0.74181,-0.31341 -2.50112,-0.92249 -3.13281,-0.90039 z m 145.88476,37.45898 c -2.18276,-0.0228 -3.36224,5.24584 -3.64844,6.50977 -0.42713,1.91241 -0.33564,2.48029 0.51563,2.85351 1.49053,0.6535 2.16027,-0.13548 3.35742,-3.25 0.71253,-1.85373 1.34817,-4.64278 0.77344,-5.75195 -0.35312,-0.24637 -0.68622,-0.35807 -0.99805,-0.36133 z m -73.30078,2.01758 c -0.9038,0.007 -1.77476,0.0814 -2.58008,0.26563 -7.60245,1.73892 -7.02622,15.02142 -8.3164,20.31835 -23.88073,3.40764 -30.19649,5.03056 -36.74024,7.71875 -10.17406,4.17951 -13.39757,6.73033 -16.08984,8.83399 1.69159,-0.19804 19.94909,16.82537 20.89062,19.22851 -1.1614,-3.29472 35.31689,-11.31383 54.7461,-3.25976 2.38279,0.85348 20.53605,-17.61674 19.96289,-19.67774 2.35622,-4.12483 -22.88009,-8.7594 -26.0625,-11.33593 -2.61113,-14.0544 17.62994,-21.75293 3.61328,-21.34375 -2.55102,0.0745 -6.19595,-0.77437 -9.42383,-0.74805 z m 63.51367,15.78906 c -0.44902,0.53068 -0.90353,0.8116 -1.48828,1.4336 l -1.33203,1.75781 0.9707,1.57031 2.48633,-2.74414 z m -9.92187,9.73047 c -4.71586,0.42979 -9.11701,4.56953 -7.88477,7.94336 2.62016,-1.18213 11.91891,-5.69064 12.31836,-4.64844 l -0.19531,4.51368 c -1.42297,-0.46556 -10.60585,1.05223 -5.29492,10.53124 -3.34468,7.52995 4.10693,11.41445 9.32812,6.43555 10.94254,3.75411 9.47852,-7.19566 7.22071,-8.96484 1.77949,-2.76389 -0.45713,-8.64955 -1.57032,-8.66992 0,0 9.54897,2.15318 8.61524,0.45312 -0.42619,-0.77598 -0.95995,-2.11444 -3.08203,-3.53125 -2.44573,-1.63289 -6.741,-1.04005 -10.21875,-1.76758 -3.71763,-0.77772 -6.11207,-2.10739 -9.23633,-2.29492 z m -114.29883,43.48047 -13.15625,3.51563 c 0,0 4.25603,9.87553 5.72851,18.68164 1.80116,10.77163 0.36133,22.48437 0.36133,22.48437 l 38.18555,0.19336 z"
         style="fill:#e2cf00;fill-opacity:1;stroke:none;stroke-width:0.1545569"
         id="path3012" />
      <path
         inkscape:connector-curvature="0"
         d="m 396.00195,396.64258 -8.40625,0.0801 c 0,0 42.66864,60.94342 64.11524,91.125 0,0 -0.67248,-17.35091 -0.16797,-19.39844 -15.14131,-20.11538 -55.54102,-71.80664 -55.54102,-71.80664 z m -76.5,2.91406 c -6.6036,9.87959 -13.03893,19.90626 -21.62304,28.02539 6.8923,6.6827 14.80692,16.22438 21.39257,28.81445 5.21253,-9.08396 12.74613,-20.17658 20.71875,-28.00586 -7.94806,-9.00132 -15.03678,-18.47088 -20.48828,-28.83398 z m 44.48828,34.98438 c 0.0881,-0.3633 -8.40472,13.85146 -8.53515,25.83007 0.40175,0.75072 10.93841,-9.77716 11.3789,-10.42773 -1.63245,-3.69229 -2.94205,-15.42574 -2.84375,-15.40234 z m -52.81054,31.00781 c -1.395,0.0934 -2.6077,1.62966 -1.05469,3.29687 1.19131,1.27891 4.14373,-0.49774 2.82812,-2.40625 -0.46676,-0.67715 -1.13934,-0.9331 -1.77343,-0.89062 z m 39.83398,24.95312 -3.62109,11.47852 c 1.85168,2.6931 6.61328,3.03675 10.0957,4.26562 l 4.25391,-12.45312 z m 72.79102,0.084 c -16.47317,6.56745 -25.39339,30.4272 -17.82227,45.50195 12.48474,-14.73004 17.22881,-30.21457 17.82227,-45.50195 z m -30.04297,5.57226 c -2.88287,6.2e-4 -7.44277,0.63594 -9.00977,0.58594 -2.25309,3.72094 -3.29016,7.54194 -4.45703,12.13281 -0.56947,2.41923 8.03965,0.93552 9.93946,1.13672 1.81042,-3.61053 3.13199,-9.35035 5.89648,-12.88672 0.48619,-0.74075 -0.63942,-0.96911 -2.36914,-0.96875 z m -55.94141,18.41211 c -14.72927,16.12298 -20.09415,47.32127 -18.17578,46.0918 11.32875,-6.04104 27.13481,-20.43003 18.17578,-46.0918 z m 16.25586,1.29688 c 0.74057,4.9727 1.35477,10.5832 1.02149,15.9375 l 34.61523,3.08593 -1.20312,-14.43359 z m 13.36914,23.42383 -13.9082,1.92773 c -1.8515,4.91304 -3.86287,9.71346 -6.51172,14.06836 l 12.35938,-0.36133 z m 19.95313,4.93359 -4.8711,13.68164 9.78321,2.64063 c 0,0 0.94021,-2.08201 3.49023,-11.33008 0.78331,-2.84077 -8.40234,-4.99219 -8.40234,-4.99219 z m -95.09375,20.01562 c -0.0723,9.61045 -0.0899,19.30079 -0.0899,19.30079 20.61152,25.07058 36.13623,47.81748 52.89063,71.73046 l 10.51953,-0.23632 z m 140.17773,17.17383 c -2.01107,-0.004 -4.1379,2.37953 -1.63086,4.70508 1.6488,1.52944 6.01504,-0.37779 3.42774,-3.81445 -0.46854,-0.62235 -1.12652,-0.88935 -1.79688,-0.89063 z m -44.6914,9.69141 -11.5625,10.90039 c 1.33032,4.67801 2.25719,10.11442 2.79687,14.65625 5.60356,-8.34154 7.51786,-15.81588 8.76563,-25.55664 z m 36.13867,4.50391 c -5.58139,9.80844 -11.8691,19.40935 -20.16992,28.41796 10.40725,10.45218 16.44382,19.68894 21.09765,28.54297 5.72496,-11.58624 12.95513,-20.80405 20.92578,-28.86133 -8.12988,-7.59883 -15.49223,-16.80282 -21.85351,-28.0996 z"
         style="fill:#d40000;fill-opacity:1;stroke-width:0.1545569"
         id="path3082" />
      <path
         inkscape:connector-curvature="0"
         d="m 290.64258,394.5293 -0.31446,262.08008 163.06641,0.0312 -0.0547,-261.6875 z m 149.02344,2.05078 c -1.3249,14.50122 -1.5571,25.86495 5.96679,40.9043 -1.35922,1.42529 -11.59761,1.82998 -14.82422,3.51757 -0.0591,0.40513 0.82813,1.10547 0.82813,1.10547 3.37552,-1.5664 16.53906,-2.99414 16.53906,-2.99414 -5.51243,-9.60794 -10.04658,-28.08871 -6.63281,-42.26172 l 9.5,0.0293 -0.0606,69.83008 c 0,0 0.74774,13.47808 1.0293,21.07226 -5.05826,-6.53693 -11.76622,-15.66589 -16.14649,-22.44336 -5.31422,-7.47581 -11.23149,-16.24712 -17.30664,-24.47461 -1.79115,-2.59218 -4.34394,-5.95411 -6.42773,-8.98242 -3.27161,-4.67671 -5.97796,-8.30537 -9.37109,-13.33984 -3.62317,-5.21275 -7.09562,-9.94513 -11.40235,-15.99805 -3.65069,-5.15165 -3.82031,-5.76172 -3.82031,-5.76172 z m -56.24219,0.24219 c 2.19509,3.16746 5.6348,5.38853 7.57226,6.90429 1.04199,0.81675 2.41763,2.4853 2.28907,2.81641 -4.31489,-1.36365 -9.3617,-6.14748 -11.67774,-9.69141 z m -90.80274,0.0293 h 71.55664 c 0,0 0.0747,0.91048 -0.0957,5.36133 -0.3098,9.04575 -0.68935,18.52065 -0.0957,27.74219 0.0997,3.19138 0.0338,6.34421 0.49219,9.50195 0.44663,3.07624 0.64447,6.39258 2.08203,9.25781 0.57767,1.55322 0.59577,1.43459 -1.60547,3.46875 -1.07981,0.99786 -1.99717,2.0588 -1.95703,2.2461 0.0133,0.0623 -0.0484,0.29651 0.11718,0.16406 0.11025,-0.0882 0.90774,-0.87629 0.9961,-0.98047 0.59632,-0.70307 1.59394,0.19804 4.99805,1.1582 0.66764,0.18832 1.60838,0.81693 2.32812,1.3379 5.08829,4.28784 12.24935,2.95175 17.60156,0.61328 1.51894,-0.66365 1.89097,-0.7321 4.33203,-1.02149 9.03963,-1.07169 18.69811,-5.02198 18.67774,-5.00976 l 1.17969,1.93359 c 0,0 0.44352,-0.082 0.75976,0.4043 5.19943,9.81975 22.17475,21.03932 21.87305,20.51953 l -11.09571,6.14258 c 8.07748,9.98032 26.54883,26.91211 26.54883,26.91211 l -0.42383,24.33593 c -4.95888,3.96643 -9.32113,8.51331 -13.68164,12.95313 -1.25368,1.24103 -2.13819,1.94912 -1.6621,1.97265 1.13184,-0.17251 2.10819,0.94451 3.02929,1.71875 0.58347,0.65042 0.44258,0.59002 -0.23047,1.47852 -0.47287,0.62418 -0.64658,0.80464 -0.64843,1.25586 0.0166,0.87309 0.0114,1.4585 -0.76563,2.11328 -0.48274,0.60581 -0.75849,0.99474 -0.8457,1.71289 -0.0871,0.71693 -0.0808,1.17628 -0.57422,1.81055 -0.83568,0.17763 -0.91472,1.39524 -0.76758,1.93945 0.87504,0.86779 0.47519,1.80658 0.55664,1.60938 -1.67118,1.81401 -3.42478,3.38572 -2.30469,0.84961 0.50501,-0.94425 0.67969,-1.72657 0.67969,-1.72657 0,0 -0.80355,0.83293 -1.22461,1.22657 -0.64433,0.59657 -0.88115,0.24625 -0.90039,-1.60547 -0.0827,-1.4013 -0.67357,-3.35695 -0.9082,-3.73047 -0.13122,-0.20887 -0.15338,0.15265 -0.0918,1.50195 0.081,1.77485 0.29289,2.29041 -0.33203,4.0625 -0.84419,2.39381 -1.44556,2.73299 -0.0742,2.65039 1.29904,-0.0783 2.39839,-0.0935 2.9668,0.68164 0.19153,0.26125 0.43808,0.71083 0.96289,0.97461 1.06869,0.58396 1.9178,1.23112 2.51172,1.87695 1.92122,2.08921 1.37079,3.95591 -2.34375,2.68946 -1.95561,-0.66676 -0.67633,-1.50483 1.42578,-1.31055 1.29125,0.12097 1.51003,-0.35727 0.39258,-0.69922 -2.07917,-0.3844 -2.41432,-0.61851 -3.78516,1.01172 -5.75723,-0.56972 -8.98944,-3.78805 -10.54297,-6.41015 -0.64968,-1.09656 -0.84896,-1.30675 -0.39648,-1.92774 0.1782,-0.24454 0.0704,-0.16893 -0.23633,0.16992 -0.30672,0.3388 -1.14334,0.62135 -1.41992,0.86524 -1.93395,1.92934 -3.8943,4.00293 -5.63672,5.57226 -5.95596,-3.37982 -13.31092,-9.47365 -17.51563,-16.39844 -2.09039,3.92211 -4.54687,11.0586 -4.54687,11.0586 l -9.34766,-2.61133 -0.11133,0.19531 9.24024,2.66211 -0.90039,3.08399 c -0.0973,0.33319 -1.52735,3.84179 -1.52735,3.84179 l 14.43164,6.73438 c -0.89409,1.39926 -1.86979,2.30443 -3.10937,3.60937 -0.7007,0.73589 -0.7207,1.68946 -0.7207,1.68946 l 20.00976,-19.08594 c 0,0 2.58082,3.82721 3.54102,4.69531 0.90042,0.81402 1.17934,1.01271 0.1289,1.25586 -4.70127,0.68892 -8.35024,4.24841 -7.07812,9.02344 0.2056,0.53123 0.62008,0.334 1.51172,-0.22656 3.12143,-2.82671 10.75128,-5.44352 11.01172,-4.7793 l 0.0312,3.04101 c -8.21397,0.11889 -7.37293,6.15765 -6.77149,9.39649 0,0.0699 -2.375,2.14648 -2.375,2.14648 0.83999,0.44044 1.66321,0.8967 2.43946,1.43946 -0.7219,4.02826 2.70893,9.86582 9.45117,6.87695 0.58291,0.59798 1.13455,1.20051 1.77734,1.95117 0.6898,-0.79887 1.48438,-2.68164 1.48438,-2.68164 3.34892,1.51536 10.2984,-1.87679 6.74414,-9.64648 l 1.95898,-1.86914 -1.88281,-1.18555 c -0.0488,-1.9754 -0.35367,-3.73997 -1.5332,-5.46094 0,0 3.16229,0.80561 5.50195,0.94141 1.44467,0.1306 2.66243,0.16642 2.54101,-0.70703 -0.0357,-0.25706 -0.25136,-1.5137 -0.39257,-1.92578 -0.69772,-2.03519 -4.31878,-3.5292 -7.83399,-3.72657 -0.57339,-0.0322 -1.18996,-0.0152 -1.3125,-0.16406 -0.22984,-0.27918 0.18278,-0.6751 0.56055,-0.60937 1.92508,0.33494 3.77588,-1.08844 4.10937,-2.89844 0.0662,-0.31738 0.4589,-0.89758 1.02344,-1.51563 1.00168,-1.0966 1.0814,-1.06796 1.0625,-2.65234 -0.0131,-1.09984 0.17831,-1.34286 0.68555,-2.08008 0.65467,-1.0512 0.95995,-2.42282 0.63086,-3.8418 -0.10425,-0.44956 -0.53089,-1.08652 -0.16797,-2.20703 0.59033,-1.82261 -0.70552,-3.48983 -2.40625,-4.43945 -0.13598,-0.0388 -0.0963,0.0957 -0.20899,0.23047 -1.54278,0.48033 -3.42187,-0.62695 -3.42187,-0.62695 -0.38769,-0.19044 1.31434,-10.07653 4.83984,-9.19336 0.58621,0.3555 0.83335,2.07316 0.78907,2.10351 0.16236,-0.004 0.25159,-1.01121 0.0234,-1.68359 -0.23894,-0.70457 -0.78625,-1.37635 -1.83789,-1.17774 -0.81536,0.154 -1.75761,1.23647 -2.18359,1.7793 -1.64685,2.09871 -1.66476,3.4392 -2.21484,5.67188 -0.26448,1.05529 -0.29337,0.99483 -1.75391,-0.14649 -1.04832,-0.81923 -1.55621,-1.08208 -1.19141,-1.5625 0.16392,-0.2159 0.8418,-0.89844 0.8418,-0.89844 l 12.76367,-12.27929 v 122.97461 h -72.16992 l 0.50586,-15.80274 c 1.35429,-11.11202 -1.02926,-34.44792 -2.83203,-36.64258 1.39038,-1.562 5.70466,-5.32619 5.46679,-5.49609 l -0.57031,-0.33984 -2.28125,2.09961 -5.63281,-1.70704 c -2.40285,-1.65944 -4.85474,-3.19271 -7.39844,-3.8457 -4.15362,-1.06629 -12.15305,2.33016 -12.16015,2.36524 -12.78023,0.94631 -23.01636,6.13538 -22.87305,6.0957 -0.55659,-0.51093 -1.29307,-2.14252 -1.3125,-2.13281 -6.58777,-9.16791 -13.06403,-14.30182 -21.91211,-20.56836 l 11.20703,-6.19141 -26.55664,-27.74805 -0.23438,-22.53125 38.47266,-36.77929 c 0.22683,-0.6351 12.27425,8.50826 16.75977,15.94922 0.86004,-3.63742 2.46212,-6.94025 3.79687,-10.51172 0.13958,-0.32667 7.65368,2.77851 9.88281,2.91015 0.33327,0.0197 0.60157,-0.33203 0.60157,-0.33203 l -9.91797,-3.22461 2.02929,-5.80859 c 0,0 0.70529,-1.57805 -0.0918,-1.83985 -4.52088,-1.46228 -8.76222,-4.04023 -13.08594,-6.23632 0,0 2.0185,-2.24442 2.04883,-2.34375 0.0285,-0.0935 0.84756,-1.29957 0.65234,-1.71485 -2.19947,2.13392 -20.14842,18.7793 -20.14844,18.7793 -0.51058,-2.85689 -1.31363,-3.85436 -3.05859,-5.61719 0.9508,-0.0457 2.4388,-0.98478 3.29883,-1.61133 2.63045,-1.91633 4.06321,-5.33616 3.71875,-7.33398 -2.52523,0.80326 -4.80579,1.7442 -7.96875,2.31836 -1.77719,0.3226 -3.464,1.1253 -4.48633,1.98633 l -0.15625,-3.1875 c 0.006,0.0363 4.25462,0.74419 6.22266,-2.10742 1.69603,-2.45747 1.00088,-5.26892 0.61133,-6.70313 0.0438,-0.31847 -0.0498,-0.28343 0.68164,-0.95703 0.53994,-0.49726 1.38086,-1.14063 1.38086,-1.14063 0.0362,-0.1809 -2.19341,-1.0067 -2.57032,-1.76171 0.59376,-5.90802 -4.12742,-8.18844 -8.12304,-7.13868 -0.74666,0.22523 -1.10224,0.36405 -1.99024,-0.625 -0.1323,-0.14735 -1.19726,-1.27148 -1.19726,-1.27148 0,0 -0.47192,1.08349 -0.71289,1.55859 -0.7836,1.54508 -0.99822,1.08127 -2.6875,1.16407 -4.27934,0.20975 -6.18923,3.66464 -5.20704,7.90625 0.23055,0.99562 0.12824,0.84266 -0.52539,2.10156 -0.33386,0.64292 -0.8789,1.46289 -0.8789,1.46289 0,0 0.78366,0.43544 1.3125,0.67187 0.7833,0.35017 0.82534,0.76015 0.82226,1.54102 0.10929,1.72129 0.48699,2.87311 1.47657,4.35156 -3.35218,0.0771 -5.92363,-0.23604 -8.95899,-1.24414 0.46457,4.66747 3.90503,6.40594 8.11914,7.08984 0,0 -0.44302,0.4117 -0.9082,0.59571 -0.98586,0.28569 -1.60293,1.15215 -1.59375,1.92773 -0.14194,0.7407 -0.62111,1.48507 -1.0625,1.88086 -0.65614,0.5678 -1.19391,1.36814 -0.93555,2.91602 -0.0662,1.12155 -0.33869,1.44486 -0.66797,1.87304 -0.66124,0.85994 -0.88359,1.71549 -0.71875,2.84571 0.0767,0.52591 0.23963,1.65257 0.13086,2.8164 -0.18131,1.93993 0.51246,2.66569 1.39453,4.03125 0.57147,0.88471 0.45051,0.9088 0.31836,1.55078 -0.31729,1.5415 -0.6456,2.33532 -0.98828,3.50782 -0.76673,2.6234 -0.79701,4.61102 -0.16992,5.12304 0.94482,0.77148 2.01406,0.54036 2.51172,0.38672 3.72828,-1.151 3.08286,-4.81272 3.2793,-7.26953 0.10645,-0.63165 0.32175,-0.93588 0.53125,-0.90625 1.05423,1.23376 2.1685,1.94895 3.60351,2.72656 -4.96191,5.04982 -8.20213,8.13953 -14.47461,13.64844 z m 72.6543,0 h 2.99219 c -0.63154,1.17621 -2.98805,4.72843 -3.20117,3.74414 z m 4.15625,0 h 1.74609 c -1.70325,4.04109 -4.08814,6.36326 -6.34765,8.81055 l 0.0781,-2.59961 c 0.0698,0.16292 3.38265,-3.51296 4.52344,-6.21094 z m 3.00391,0 h 1.72265 c 0,0 0.0514,0.69045 -0.15429,1.25782 -1.30544,4.21363 -9.40879,12.21216 -9.17579,11.01367 l -0.082,-2.06446 c -0.0355,0.0887 6.08594,-5.82861 7.68946,-10.20703 z m 4.83789,0 c 6.15838,10.70214 17.18148,14.32713 19.95508,15.04883 l 1.61132,2.35547 c -12.99647,-2.54694 -19.95653,-10.89138 -23.22461,-16.05078 -0.25423,-0.40136 -0.2246,-1.32422 -0.22461,-1.32422 z m 1.31054,0 1.99024,0.006 c 4.12155,6.84515 11.51626,10.4867 14.07617,11.2832 0.68269,0.7526 1.419,2.12916 1.70508,2.4336 -6.90225,-1.86935 -14.63515,-7.70535 -17.77149,-13.72266 z m 5.80079,0 h 2.39453 c 1.02117,1.47788 1.94793,2.55888 3.02148,4.07032 0.20011,0.28813 0.32179,0.6282 0.27149,0.75781 -0.16298,0.41977 -0.64914,0.10868 -1.99024,-1.08008 -2.19984,-1.94994 -3.69726,-3.74805 -3.69726,-3.74805 z m -9.41993,1.93164 1.19922,1.90821 c -2.90583,4.79122 -6.55025,9.1076 -11.41015,12.50976 l -0.0254,-2.50195 c 5.51496,-3.97145 7.89768,-7.96186 10.23632,-11.91602 z m 1.94532,2.76758 c 3.46469,4.66685 10.92971,11.88873 22.90234,14.04688 0,0 0.67996,0.61441 1.67188,1.96484 1.25824,1.71312 1.27926,1.78031 1.44531,4.58789 0.11136,5.13827 1.78157,12.11077 3.43945,16.49805 -0.20539,1.09074 -0.39841,1.64794 -2.45508,4.42578 -8.57033,11.57553 -26.82716,22.52348 -35.82226,7.58008 -2.99981,-4.78744 -3.29214,-13.96609 -3.48242,-19.68946 0,0 0.0554,-0.4029 0.0781,-0.51172 0.21649,-1.03897 0.51483,-0.8747 2.13867,-0.42968 1.64624,0.7066 3.35948,0.13605 5.10156,-0.33789 1.98363,-0.80119 2.14928,-0.1838 0.23633,1.60156 -0.66154,0.61742 -1.47191,1.561 -1.38672,1.51562 0.0852,-0.0454 1.19757,-0.50056 1.68946,-0.875 1.52858,-1.16361 1.8907,-0.71813 1.32422,0.5625 -2.40304,5.43248 -2.82944,5.64922 0.55078,7.15821 0.70461,0.31454 1.18479,0.66668 1.58008,1.01172 2.31123,2.17511 1.4821,1.00198 0.83593,0.004 -0.99436,-1.56307 -0.0966,-2.38782 1.58203,-1.41992 1.12167,0.64677 2.59507,1.16743 3.39649,0.91992 1.55535,-0.50636 2.02982,-2.2092 1.56836,-4.08398 -0.36931,-1.03686 -2.49405,-2.86804 -2.00391,-0.95117 1.27725,-0.0575 2.37959,1.75426 1.26953,2.98047 -0.83758,1.12954 -2.3302,0.51843 -4.62109,-0.9961 -1.26588,-0.95143 -2.80383,-0.46514 -2.74414,0.70508 0.0401,0.78574 -1.07189,0.60467 -1.79492,-0.39648 -0.40147,-0.55591 -0.12926,-2.15552 0.625,-3.67188 4.74956,-9.54854 0.74471,-18.80741 -7.48047,-16.19727 -0.9045,0.28703 -1.71875,0.51954 -1.71875,0.51954 l -0.0449,-3.65235 c 4.72257,-3.29086 9.73235,-8.5382 12.11914,-12.86914 z m 11.23242,14.82031 c -2.46277,-0.0802 -4.77717,0.55484 -6.43164,2.32032 -1.2401,1.49701 -0.79903,2.83017 1.92383,1.48828 2.21721,-1.0927 2.52289,-1.22126 4.93945,-1.3086 3.42966,-0.12394 6.50722,0.96598 10.3164,3.30274 2.52466,1.54875 2.89421,1.66571 2.20899,0.69531 -1.402,-2.68296 -7.53895,-6.32158 -12.95703,-6.49805 z m -20.02344,2.59375 c 0.65536,-7.7e-4 1.36976,0.0334 1.94531,0.17383 2.38035,0.59961 4.66547,2.17097 4.26758,2.82227 -0.14311,0.23428 -0.2829,0.27923 -0.58594,0.12109 -1.74141,-0.86013 -4.51673,-2.26682 -8.52929,-0.55078 -0.44233,0.18917 -0.68765,-0.10339 -0.68555,-0.63672 0.004,-1.03527 1.74688,-1.86293 3.58789,-1.92969 z m 21.56836,1.37696 c -1.78275,-0.0201 -3.66991,0.57975 -5.79492,1.82422 -1.41887,0.73731 -1.90691,1.1303 -2.50977,0.80078 -1.43998,-0.78711 -1.13455,-0.17065 -0.24023,1.41406 0.63107,1.11826 0.62491,1.34794 0.53125,2.0332 -0.10176,0.74473 -0.0872,0.77414 0.63672,1.57032 1.35415,1.77942 2.70112,3.49579 4.72851,4.8457 0.63212,0.42089 1.47728,0.9004 1.54102,0.90234 0.20182,0.006 0.12514,-0.15547 -0.23633,-0.50781 -2.59649,-2.49756 -4.6459,-4.73597 -2.00195,-3.78516 3.07864,1.00377 6.00732,-0.24614 8.4082,-1.0625 0.97877,-0.30187 2.00672,-0.55679 2.26172,-0.55664 2.21745,0.002 2.74227,-0.92086 1.32422,-2.32812 -2.99801,-3.36185 -5.67718,-5.1169 -8.64844,-5.15039 z m 0.0273,0.63672 c 1.87501,0.0256 3.86914,0.71588 5.5586,2.19531 0.99177,0.91585 1.51517,1.4138 1.41601,1.65234 -0.10637,0.25594 -0.87089,-0.17722 -2.15039,-0.85937 -2.57383,-1.37225 -5.49051,-1.69535 -9.13672,-0.64258 -2.83075,0.81734 -1.99622,-0.48105 1.15821,-1.70117 0.94707,-0.43672 2.02929,-0.65992 3.15429,-0.64453 z m -20.87304,0.34375 c 2.16231,-0.0347 4.41398,0.67426 5.91992,1.97265 1.05058,0.9058 0.28152,1.1163 -1.42578,0.41016 -2.58255,-1.06811 -4.75788,-1.2381 -6.87696,-0.2461 -0.66517,0.31138 -1.43272,0.68235 -1.64257,0.66211 -0.35418,-0.23973 -0.50407,-0.93653 -0.19727,-1.42968 0.85179,-0.83593 2.54088,-1.34219 4.22266,-1.36914 z m 35.63867,0.74023 c 0.15864,0.007 0.39639,0.26067 0.75195,0.75977 0.64681,0.908 0.67285,1.35552 0.13672,2.94531 -0.65464,1.94118 -0.91746,1.62611 -1.08203,-1.08203 -0.1068,-1.75708 -0.10956,-2.63614 0.19336,-2.62305 z m 2.14453,2.92773 c 0.24678,-0.035 0.53365,0.39964 0.99414,1.29883 0.32143,0.62756 0.24575,0.81639 -0.75781,3.75391 -0.42001,1.22942 -0.81549,2.20833 -0.82617,2.2168 -0.30882,0.24327 -0.26837,0.22154 -0.40039,0.0527 -0.71563,-0.91434 -0.66502,-2.6968 -0.0488,-4.83398 0.46691,-1.61972 0.72172,-2.44329 1.03906,-2.48829 z m -19.48438,0.22266 c 0.0779,-0.007 0.55665,0.0977 0.55665,0.0977 -0.0496,4.35105 3.31644,3.4753 3.76171,0.38476 0,0 0.83009,-0.0849 0.95704,0.1211 0.39871,0.64708 -0.52708,2.5081 -1.91211,3.11718 -1.01078,0.45112 -2.38445,0.34139 -3.20508,-0.41406 -0.22957,-0.42566 -0.92663,-2.04242 -0.79688,-2.71289 0.16156,-0.39149 0.40492,-0.57357 0.63867,-0.59375 z m -15.36328,0.49219 c 0.26772,0.0173 0.37957,0.13801 0.42383,0.49414 0.17187,1.43628 -1.26591,2.99717 -3.1289,3.08203 -1.80286,0.20162 -2.77615,-1.19683 -2.72071,-2.56055 0.004,-1.03664 0.89706,-1.16708 0.9961,-0.34765 0.28598,2.36615 2.3071,2.50187 3.23046,1.19531 0.34936,-0.51202 0.26927,-1.773 0.875,-1.85156 0.1271,-0.0123 0.23499,-0.0175 0.32422,-0.0117 z m 13.35743,0.0156 c 0.0344,-0.002 0.0671,-0.002 0.10156,0 0.33027,0.0169 0.57074,0.10593 0.70117,0.50586 l 0.7207,2.21094 c -0.53045,0.63407 -2.54487,-0.65095 -2.54101,-1.61523 0.003,-0.66587 0.50167,-1.07608 1.01758,-1.10157 z m 8.45898,0.47657 c 0.14351,-0.006 0.33441,0.0499 0.61719,0.14648 1.85967,0.59356 1.90893,0.88013 0.31836,1.45313 -1.89688,0.68335 -2.01951,0.77251 -1.57422,-0.55079 0.24845,-0.73819 0.323,-1.03577 0.63867,-1.04882 z m -19.71289,0.20898 c 1.37854,0.0854 1.49365,1.25314 0.28125,1.64258 -1.80541,0.79668 -2.41421,0.74373 -1.71484,-0.43164 0.37939,-0.83254 0.71959,-1.19503 1.43359,-1.21094 z m -8.625,0.41992 c 0.16455,-0.002 0.35256,0.0622 0.55469,0.21289 0.20715,0.62545 0.55873,1.10525 0.83593,1.75196 -0.28315,0.28094 -0.95837,0.27689 -1.38867,-0.0645 -0.8634,-0.68466 -0.71526,-1.89357 -0.002,-1.90039 z m 43.34375,1.34766 c 0.53541,0.003 1.07999,0.85049 1.25781,1.48242 -1.87052,2.40288 -1.57681,6.88957 -2.01172,8.24414 -0.37693,1.10224 -0.49843,0.15166 -1.53906,-2.70312 -0.42004,-1.1523 1.69799,-6.88244 2.1875,-7.00977 0.0347,-0.009 0.0698,-0.0139 0.10547,-0.0137 z m 1.91211,2.46289 c 0.41641,0.23763 0.98208,0.7838 1.08203,1.64258 0.058,0.49838 -0.18877,1.16113 -0.34766,1.8164 -0.37778,1.55795 -0.8886,4.50129 -1.07226,7.22071 -0.0782,1.15734 -0.0736,2.19808 -0.125,2.29882 -0.56296,1.10277 -1.75003,-1.86426 -1.64844,-4.22656 0.36879,-1.88601 0.57452,-8.49283 2.11133,-8.75195 z m 1.72461,2.67187 c 0.20584,-0.059 0.49402,0.13469 0.91797,0.71875 0.26428,0.3672 0.43221,0.6482 0.51367,0.96485 0.14156,0.55028 0.023,1.20787 -0.30078,2.60937 -0.85815,3.71464 -0.73371,7.71791 -0.17383,11.82813 0.11776,0.86473 -0.48224,0.43265 -1.39063,-1.05664 -0.50372,-0.82581 -0.82593,-1.95854 -0.98046,-3.29493 -0.31647,-2.92171 0.29342,-6.88132 0.8125,-10.00585 0.14358,-0.86427 0.25849,-1.66539 0.60156,-1.76368 z m 2.34179,2.97852 1.50391,1.8125 c 0,0 -0.64253,4.16358 -0.63867,6.38477 -0.10471,0.83197 0.74607,9.87959 1.02344,10.61132 -0.92304,-1.03399 -1.35325,-1.64212 -2.36524,-2.9414 -0.11506,0.0189 -0.99164,-8.91339 -0.38672,-12.33008 0.36584,-2.06654 0.86332,-3.53711 0.86328,-3.53711 z m 2.35743,3.59961 c 0.25219,-0.009 0.57365,0.27436 0.97656,0.83984 0.36352,0.5102 0.54089,0.92899 0.56055,1.56446 0.0144,0.46319 -0.21555,0.82038 -0.22266,1.64648 -0.0424,4.9215 0.62195,9.5668 1.45898,14.04492 0.29527,1.60211 -0.27826,0.94901 -1.22851,-0.0644 -0.87108,-0.92824 -0.88653,-1.28227 -1.35156,-2.60156 -0.0928,-0.26326 -1.02169,-9.33737 -1.01368,-10.02344 0.0327,-2.82026 0.11425,-4.39162 0.43946,-5.06836 0.10616,-0.22101 0.22955,-0.33238 0.38086,-0.33789 z m -10.02149,0.38086 c 1.47228,3.19357 2.7962,6.46123 4.5625,9.50781 0,0 -1.74894,0.89983 -2.20703,0.58399 -0.73846,-2.01383 -3.40136,-7.40461 -3.44726,-8.35938 0.0472,-0.31364 1.09179,-1.73242 1.09179,-1.73242 z m -27.72851,2.65234 c -0.22456,0.0294 -0.43316,0.142 -0.61914,0.38086 -0.52747,0.61932 -1.15612,0.36133 -2.42774,-0.19726 -0.6519,-0.2001 -0.55175,0.0672 -1.6289,0.62695 -0.83533,0.43403 -1.12829,0.44611 -1.68165,0.44141 -0.72993,-0.006 -0.99212,-0.26333 -0.99414,0.25 -0.002,0.28392 -0.0444,1.5672 -0.21679,2.23046 -0.23467,0.90274 -0.43951,1.30234 -0.31055,1.45899 0.37129,0.34002 0.68216,0.13105 1.46484,-0.625 1.29829,-1.25412 2.17475,-0.89413 3.6211,-0.42774 1.64495,0.53041 1.98576,0.72699 3.49023,0.20118 2.13142,-0.74493 3.415,-0.74749 4.26367,-0.20704 1.46267,0.93143 1.90335,0.87673 1.30079,-1.66992 -0.19424,-0.82099 -0.20851,-2.094 -0.32813,-2.31445 -0.13551,-0.24976 -0.50726,0.46272 -0.89648,0.72461 -0.74399,0.50062 -1.12909,0.49253 -2.80664,-0.0566 -0.74517,-0.24427 -1.5568,-0.90474 -2.23047,-0.81641 z m 25.91211,0.4375 c 0.15699,-0.0305 0.31364,0.0435 0.44531,0.27539 0.64909,1.52958 3.23292,6.6418 3.1543,7.21289 -0.50329,0.45189 -1.17685,0.78112 -1.57618,0.37696 -1.29171,-2.35694 -1.67888,-3.62813 -2.72851,-6.27344 -0.23486,-0.47426 0.23408,-1.50029 0.70508,-1.5918 z m 14.32226,0.0879 c 0.18311,-0.0254 0.56531,0.35405 0.84961,0.73438 0.88473,1.18351 0.9368,1.33136 0.96485,2.59961 0.10163,4.59859 0.68078,10.00967 1.97656,14.18359 0.25506,0.8215 0.73817,1.8214 0.68554,1.95703 -0.43445,0.6333 -2.45056,-1.06338 -3.05859,-3.64258 -0.8387,-3.27513 -1.32909,-6.69165 -1.5957,-8.91601 -0.33772,-3.91244 -0.3347,-6.71194 0.17773,-6.91602 z m -15.91601,2.07031 c 0.1555,-0.016 0.29965,0.10659 0.41601,0.46485 0.74436,1.43527 1.68124,3.91253 2.3125,5.39844 0.28786,0.64517 -1.18305,1.15299 -1.52148,0.93359 -0.58789,-0.43894 -0.86603,-1.67358 -1.25196,-2.41406 -1.22838,-2.68548 -1.45023,-2.74158 -0.76953,-3.57813 0.26197,-0.36344 0.55529,-0.77805 0.81446,-0.80469 z m 18.83203,2.11329 c 0.10808,7e-5 0.24868,0.10394 0.42578,0.33203 0.77648,0.91776 1.30291,1.61873 1.50586,2.29883 0.14728,0.49357 0.029,0.86543 0.082,1.75976 0.13889,2.34269 0.75501,5.53985 2.49805,12.08399 0.17,0.63822 0.39987,1.39233 0.37109,1.59765 -0.16854,1.20148 -1.93025,-0.74603 -2.44336,-2.75781 -0.59483,-2.28362 -1.68011,-5.19975 -2,-7.89648 -0.65847,-4.28049 -1.02307,-7.41835 -0.43945,-7.41797 z m -20.92188,0.21679 c 0.42255,0.0801 0.6485,0.83417 0.95313,1.51368 1.46548,3.41955 1.58089,3.41297 0.6582,3.68359 -0.97535,0.28608 -1.03407,0.19173 -2.17969,-2.13672 -0.83598,-1.69913 -0.9999,-1.91103 -0.29687,-2.52344 0.2683,-0.31617 0.48729,-0.47873 0.67187,-0.52734 0.0692,-0.0182 0.133,-0.0208 0.19336,-0.01 z m -19.45703,0.69727 c -0.16686,0.003 -0.65679,0.37496 -1.15039,0.57031 -1.21072,0.47917 -3.3595,0.51195 -4.66992,0.11719 -2.32211,-0.93221 -1.6691,0.27896 0.38476,1.01562 1.59404,0.53619 4.75107,0.12028 5.24024,-0.87304 0.301,-0.31789 0.40984,-0.83443 0.19531,-0.83008 z m 17.28711,1.68164 c 0.13975,-0.025 0.26854,0.006 0.36914,0.11719 1.30817,2.02177 1.70153,2.82903 1.48047,2.98632 -0.20919,0.20907 -1.24603,0.5993 -1.67187,0.39063 -0.5347,-0.262 -0.99951,-1.50945 -1.23438,-2.48828 0.12291,-0.35855 0.6374,-0.93082 1.05664,-1.00586 z m -32.39844,0.96875 c 0.58465,0.002 2.10534,2.04531 1.79688,2.41406 -0.0857,0.1895 -0.65634,0.01 -1.98828,-0.35937 -0.44474,-0.16355 -1.45087,-0.29463 -1.13282,-0.93946 0.15825,-0.29295 1.09141,-1.11615 1.32422,-1.11523 z m 30.2793,0.66992 c 0.0506,-0.007 0.097,-0.003 0.13867,0.0156 0.1996,0.17816 0.84542,1.74584 0.94727,2.11523 -0.13076,0.34945 -1.11838,0.43212 -1.53711,0.40625 -0.36058,-0.74956 -0.45435,-1.1074 -0.55469,-1.60351 0.11913,-0.26063 0.65139,-0.88335 1.00586,-0.9336 z m 28.30273,0.16016 c 0.20865,0.007 0.5691,0.37368 1.10547,1.14062 1.01365,1.44928 0.87624,1.34289 1.60352,4.80469 0.82576,3.92597 1.81291,6.72225 2.81055,10.73242 0.0136,0.66548 -0.25493,0.48909 -0.99415,0.0391 -1.20756,-0.73534 -1.60603,-1.5535 -1.98632,-3.68164 -0.64895,-3.51525 -2.01927,-6.7671 -2.54492,-10.91992 -0.27774,-1.3734 -0.29969,-2.12582 0.006,-2.11523 z m -30.42578,1.40234 c 0.71291,-0.0242 0.61819,1.07411 0.41407,1.25195 -0.52095,0.45384 -1.95856,0.31818 -2.20508,0.34375 -0.5516,-0.86492 1.32629,-1.56642 1.79101,-1.5957 z m 34.04688,3.73633 c 0.20975,0.0289 0.77297,0.8245 1.82617,2.30469 1.01193,1.42219 0.79086,1.19048 1.39648,3.53125 0.85681,3.23457 2.27467,5.56624 3.10547,8.54297 -0.002,0.3404 -0.41285,0.29602 -0.80664,0.13476 -0.76691,-0.32136 -1.45213,-0.86287 -2.10156,-1.39453 -0.44438,-0.47976 -0.44157,-1.09022 -1.75391,-5.60352 -0.4735,-1.62839 -0.5961,-2.05143 -1.1875,-4.52539 -0.4945,-2.06877 -0.71624,-3.02299 -0.47851,-2.99023 z m -114.38672,1.00586 c 0.20974,-0.0105 0.4159,-0.009 0.61914,0.004 3.57695,0.22039 6.04956,3.9398 4.05078,8.65429 3.44076,6.33177 2.1669,9.13865 -5.23437,10.01563 -0.53441,-0.075 -0.03,3.24521 -0.0449,4.72851 3.70844,-2.12128 8.19335,-2.61751 12.32618,-3.94922 -1.1252,3.60299 -3.10177,7.68538 -9.08399,7.05664 -6.25299,-4.83172 -13.61207,-1.9271 -18.60547,-3.88867 -2.71599,-1.01183 -3.75281,-4.02952 -3.78515,-4.54687 3.25703,0.32628 6.93365,1.0252 10.08984,0.79687 -3.44761,-2.65583 -2.43906,-6.33116 -1.95312,-8.01172 -4.03408,-5.08665 -0.66618,-10.80891 5.19336,-9.47851 0.60557,0.13749 1.80078,0.72656 1.80078,0.72656 1.54553,-1.38361 3.15874,-2.03378 4.62695,-2.10742 z m 119.0293,5.57812 c 0.23392,-0.0223 0.75099,0.5876 1.78711,2.03711 3.0735,4.29977 5.73367,8.30035 5.69336,8.52539 -0.13275,0.74062 -3.33437,-0.5564 -4.14258,-1.61718 -0.92065,-1.20838 -3.51169,-7.4314 -3.50782,-8.41993 0.002,-0.32995 0.0474,-0.51373 0.16993,-0.52539 z m -126.08399,18.33008 c 0.30703,0.004 0.61126,0.0418 0.91211,0.0859 1.59872,0.23481 2.044,0.36915 2.02735,0.99414 0.13668,0.53066 -3.87939,0.60267 -4.42383,0.20898 -0.43484,-0.31442 0.12724,-1.00468 0.55664,-1.16992 0.31122,-0.0937 0.6207,-0.1231 0.92773,-0.11914 z m 111.63281,0.65625 c -22.44021,10.59859 -31.6194,38.78773 -20.29296,60.39063 l -1.56055,1.125 c -11.10513,-22.83987 -2.84378,-47.31338 15.19922,-59.67383 0.73063,-0.51924 2.34622,-0.92196 3.09765,-1.41992 0,0 -7.3599,1.67974 -9.85156,2.65429 -0.50526,-0.0172 -1.99077,0.50666 -3.58594,2.23633 -1.39438,1.29199 -5.75466,7.30257 -5.61523,7.51172 l -11.58398,0.4668 0.01,0.42773 11.37109,-0.26172 c -11.70884,19.27831 -8.83319,37.61992 -1.60351,50.45703 l 0.17969,0.1211 c 0.42038,0.28283 1.5263,-0.52756 3.82031,-2.70117 0.94488,-0.89527 2.13529,-2.00713 2.64648,-2.47266 1.41785,-1.29905 3.43643,-3.53982 4.82422,-5.1582 -7.87316,-16.04685 -0.10533,-37.18093 18.31836,-46.70508 0.0315,-0.50687 -0.19726,-2.05469 -0.19726,-2.05469 0,0 -0.69611,-0.62675 -1.10743,-0.5625 -20.52539,9.04142 -28.74762,31.49333 -20.40234,51.91016 l -1.37695,1.49804 c -10.48622,-21.1429 0.76981,-47.57006 20.39648,-55.05664 -0.009,-0.47767 -0.43531,-1.08797 -0.96289,-0.7207 -21.18846,9.83733 -30.42213,34.95842 -20.04297,56.37109 l -1.30664,1.15625 c -11.80824,-23.44484 0.6328,-49.7164 20.13867,-58.69336 0.57543,-0.13342 -0.51172,-0.8457 -0.51172,-0.8457 z m -114.21093,0.21875 c 0,0 -0.14793,1.2476 0.29297,1.67383 0.20264,0.89076 -0.1211,0.79395 -0.87891,0.61328 -1.86544,-0.44474 -0.41086,0.61798 1.11523,1.47461 1.50333,0.84384 1.30255,0.8149 -0.01,1.64649 -0.8815,0.55901 -0.79032,0.76911 -0.67188,1.19335 0.17585,0.62972 0.29666,0.20902 0.66211,-0.12695 0.76732,-0.70543 1.38055,-0.88161 2.0625,-0.8789 1.02424,0.004 1.12654,0.82532 0.94532,1.46484 -0.40725,1.34219 -1.78882,1.26926 -2.92188,0.93555 -1.85354,-0.54592 -4.88092,-3.76001 -4.83398,-5.65235 -0.12882,-1.6954 2.19164,-2.42119 4.23828,-2.34375 z m 7.22851,0.0527 c 0.36713,-0.007 0.8349,0.26533 1.10547,0.36132 0.71855,0.26408 1.62226,0.6167 2.61719,1.03321 1.37382,0.43654 2.76621,1.14755 3.66406,1.74609 2.73391,1.82252 2.56848,5.46796 2.37109,5.83008 l -14.125,13.38672 c 0,0 -0.79747,-0.39006 -1.54882,-0.77344 -2.37486,-1.21178 -2.94693,-1.85045 -1.62891,-2.52148 0.63937,-0.32552 0.84602,-1.02453 0.9375,-1.70899 0.12261,-0.91709 0.0747,-0.76187 0.62305,-1.17969 0.9544,-0.72717 0.99916,-1.02756 1.0039,-2.23632 0.003,-0.80012 0.0859,-1.16744 0.37696,-1.66993 0.23103,-0.39888 0.47563,-1.23322 0.63867,-2.18945 0.0268,-0.15699 0.0336,-0.54963 0.0644,-0.6875 0.16686,-0.74809 0.40378,-0.96686 0.5625,-1.13672 0.15826,-0.16939 0.41303,-0.74607 0.58985,-1.24609 0.39416,-1.11476 0.31862,-0.94967 0.95507,-0.82617 0.92454,0.17941 0.7927,0.71837 0.69141,1.57422 -0.0491,0.4153 -0.32647,0.70659 -0.23242,0.61328 0.1263,-0.1253 0.6951,-0.39316 0.8125,-0.41993 0.29589,-0.0675 0.58999,0.0326 0.66601,0.4961 0.0423,0.25817 -0.0698,0.73397 -0.0625,1.10156 0.0188,0.95252 0.0578,2.09447 0.27539,2.8457 1.04859,3.61962 0.83941,3.11749 0.48243,0.10547 -0.0855,-0.72103 -0.18609,-1.77874 -0.082,-2.66015 0.0733,-0.62137 0.25089,-1.39207 0.49219,-1.8125 0.62,-1.0803 0.655,-1.29237 -0.68945,-1.82422 -0.49956,-0.19763 -1.35131,-0.54368 -1.52734,-0.88867 -0.21544,-0.42227 -0.85498,-0.99711 -1.68946,-1.19336 -2.02922,-0.47721 -3.2109,-2.43737 -2.91797,-2.72852 0.19196,-0.19083 1.01036,0.0578 1.52735,0.0762 1.85244,0.0659 2.24559,-0.0296 3.0664,-0.73437 0.43712,-0.37532 0.63264,-0.70794 0.98047,-0.73242 z m 97.25196,2.52929 c -18.97614,15.35216 -22.30257,40.1861 -12.83594,59.34961 l -1.63867,1.28711 c -11.89683,-22.47868 -3.90485,-46.72719 10.71093,-59.98828 z m -109.55469,1.83008 c 0.33486,-0.0314 0.70097,0.46091 2.0332,1.88477 0.8973,0.95903 1.83282,1.79238 2.32422,2.07226 1.11463,0.53373 0.87034,0.31183 -0.0586,1.19336 -0.94957,1.08921 -0.42567,1.9831 -1.56055,1.4375 -2.95251,-1.38596 -5.02557,-5.46779 -3.10547,-6.45117 0.14489,-0.0742 0.25557,-0.12626 0.36719,-0.13672 z m -1.4668,4.29492 c 0.072,-0.006 0.14938,0.004 0.22656,0.0234 0.36419,0.0889 0.80507,0.77447 1.2793,1.25195 1.3124,1.32138 1.92183,1.90717 2.9707,2.3711 1.03089,0.45595 1.05956,0.56622 0.33399,1.37109 -0.26389,0.29273 -0.42248,0.64396 -0.48438,0.83984 -0.0619,0.1959 -0.0774,0.44578 -0.29883,0.48829 -1.14931,0.22065 -4.96891,-2.09684 -5.11914,-3.69532 0.12335,-1.49507 0.501,-2.6052 1.0918,-2.65039 z m 8.09375,0.44336 c 0.66271,-0.017 1.05259,0.57372 1.04883,1.53125 -0.003,0.6633 -0.37571,0.93261 -1.13477,1.2168 -1.62245,0.60745 -2.6227,-0.5521 -1.48828,-1.83399 0.47677,-0.53872 1.1208,-0.90243 1.57422,-0.91406 z M 305.5918,496 c 1.22385,0.005 1.57898,1.03742 0.68164,1.92773 -0.84289,0.83629 -2.54462,0.83957 -2.54102,-0.0781 0.003,-0.71988 1.08041,-1.85267 1.85938,-1.84961 z m -7.58789,1.23438 c 0.82812,0.24475 2.84407,1.69649 3.73047,1.86718 0.0467,0.48965 -0.54384,0.62401 0.29296,1.54492 0.37987,0.41806 0.41234,0.70296 0.082,0.87891 -1.01097,0.5387 -4.51346,-1.16475 -4.74805,-2.91797 -0.11391,-0.85606 0.17134,-1.34232 0.64258,-1.37304 z m 4.57031,2.09765 c 1.20495,0.0503 2.56724,0.0863 2.42383,0.66211 -0.10399,0.41748 -0.53434,1.52077 -1.08594,1.31445 -0.26806,-0.10028 -0.52853,-0.36817 -0.71484,-0.54687 -0.64294,-0.61672 -0.81388,-1.43765 -0.62305,-1.42969 z m -3.61914,2.54492 3.57031,1.18946 c 0,0 0.15111,3.69599 -0.56836,5.75586 -0.72047,2.05799 -3.0865,3.69872 -4.79687,1.59375 0.88004,-3.05803 0.32871,-4.76988 1.79492,-8.53907 z m 49.83984,1.6836 c -0.3104,0.0339 -0.65429,0.75976 -0.6543,0.75976 3.51,3.17787 16.26376,36.37385 -10.31054,60.5586 l -5.64063,1.68945 c 25.51433,-20.0338 21.26946,-48.47446 14.38477,-60.74414 0.002,-0.36019 -0.0993,-0.31922 -0.73438,0.25586 -0.55594,0.50346 -0.61447,0.61211 -0.39062,0.70508 7.78099,11.97278 10.68899,45.7892 -19.9668,62.10742 -0.51425,0.53407 0.52539,0.45312 0.52539,0.45312 0.0543,-0.43921 13.80432,-3.78087 12.83399,-3.86523 12.81479,-11.32766 23.97116,-38.34183 10.08203,-61.88867 -0.0419,-0.0276 -0.0846,-0.0361 -0.12891,-0.0312 z m -4.34375,4.29492 -0.73633,0.22461 -0.17968,0.74804 c 11.12259,21.83628 0.50723,48.58894 -20.16797,58.49024 0.34047,0.24974 0.71775,0.42168 1.09765,0.59961 23.45443,-12.62945 30.21757,-39.35942 19.98633,-60.0625 z m -1.91015,1.73437 -0.68555,0.0391 -0.12891,0.79101 c 9.20789,18.58423 1.89612,44.37442 -20.08008,54.83594 -0.20848,1.12494 0.003,0.79552 1.03125,0.74219 25.42776,-13.63607 27.81966,-39.56788 19.86329,-56.40821 z m -2.13868,2.17969 c 0,0 -0.11474,0.0835 -0.12695,0.0879 -0.71812,0.94921 -2.03191,1.44031 -2.46875,2.66211 7.38719,19.52342 -2.16199,38.31636 -18.32422,46.23828 -0.0131,0.98269 -0.71717,3.41395 0.99414,3.02539 19.96808,-9.04564 28.65645,-33.08804 19.92578,-52.01367 z m 100.17188,37.83594 c 0.73519,0.0516 1.39394,0.27427 2.07617,0.36328 2.48026,0.3215 4.09095,2.12866 2.98242,3.22852 -0.36417,0.3613 -0.87299,0.15334 -2.48437,-0.63477 -0.74035,-0.36216 -0.86053,-0.70098 -1.01367,-1.51758 -0.18364,-0.97928 -0.37817,-1.07796 -0.62696,-0.31836 -0.25144,0.76759 -0.52245,1.24304 -1.36914,1.04883 -2.37809,-0.55276 -1.47958,-2.18836 0.43555,-2.16992 z m -1.47461,3.10742 c 0.97739,0.12063 0.95843,0.94172 0.0859,1.73047 -0.81971,0.62081 -1.3813,0.73958 -1.84375,0.27344 -0.81013,-0.81649 0.23575,-2.00989 1.75781,-2.00391 z m 2.8457,0.56836 c 0.78763,-0.003 1.79291,0.3599 2.98633,1.35156 1.42468,1.18375 1.74953,4.05078 0.44141,4.54688 -0.54769,0.20769 -0.63292,0.004 -1.80078,-1.10547 -0.78742,-0.74827 -1.6414,-1.42593 -2.48243,-1.82617 -1.71706,-0.81716 -1.93746,-1.12509 -0.77734,-1.68164 0.24439,-0.12517 0.56059,-0.42095 0.70508,-0.65235 0.29805,-0.47728 0.38881,-0.63055 0.92773,-0.63281 z m -4.25195,2.76172 c 1.20687,0.087 1.36407,1.51471 0.29102,2.04101 -0.30994,0.25078 -1.31247,-0.11737 -1.36719,0.16016 0.0736,0.48675 -0.41694,0.28114 -0.51172,0.10547 -0.16622,-0.20653 -0.20392,-0.50314 -0.20313,-0.74023 0.019,-0.78986 0.91247,-1.66895 1.79102,-1.56641 z m 2.2207,1.05078 c 0.0473,-0.002 0.10448,0.002 0.17774,0.004 0.22788,0.007 0.53124,0.14493 1.00781,0.40039 2.89442,1.58079 4.30971,4.06006 3.33008,5.45898 -0.64248,0.91745 -1.68722,0.56683 -2.48438,-0.73437 -0.44896,-0.73289 -1.64103,-1.67146 -2.99414,-2.35743 -1.54965,-0.78561 -1.58414,-0.89715 -0.46484,-1.43359 0.45933,-0.22012 0.80473,-0.53178 1.02929,-0.92773 0.19543,-0.34453 0.25652,-0.4049 0.39844,-0.41016 z m -2.94726,3.21484 c 0.5443,0.0276 1.07291,0.21956 1.21875,0.75782 0.19083,0.70427 -1.16088,1.11803 -2.25391,1.13671 -0.5565,0.01 -1.20007,0.11898 -1.36719,-0.27148 -0.15677,-0.36622 0.38353,-1.04174 0.60743,-1.20703 0.4433,-0.3105 0.81168,-0.33793 1.25781,-0.39649 0.17118,-0.0208 0.35567,-0.0287 0.53711,-0.0195 z m 2.61914,1.32032 c 0.55467,0.11923 1.13592,1.08019 1.43164,1.375 2.18676,2.17999 1.93839,3.36037 0.51758,4.24804 -0.96964,0.6058 -2.52521,0.75579 -3.03516,0.25391 -0.82421,-0.72017 -0.80386,-1.54543 0.10742,-1.81055 0.84972,-0.18175 0.53216,-0.5231 -0.26172,-0.72461 -2.83558,-0.80466 -4.57792,-2.30882 -1.49609,-1.98242 0.88459,0.0937 1.74048,-0.59364 2.20312,-1.14258 0.16716,-0.20297 0.34832,-0.25654 0.53321,-0.21679 z m -147.68555,2.21484 63.81836,91.36133 -51.59375,-0.0996 c 0,0 -0.19368,-0.67036 0.22656,-6.14649 0.62078,-7.42992 -0.33297,-13.8747 -2.09179,-21.12695 0.22203,-0.0247 -2.47057,-8.80405 -4.56446,-13.09375 -0.38104,-0.89865 -0.31816,-0.98552 0.91797,-1.14453 3.65214,-0.58662 7.58582,-1.47045 11.23438,-3.01367 1.69586,-0.14938 4.18521,0.512 4.05078,0.30469 -0.0605,-0.0988 -2.20508,-2.06641 -2.20508,-2.06641 -5.95753,2.38053 -11.45634,3.25101 -16.63086,3.8418 6.86875,11.69069 9.32127,27.605 7.26172,41.90039 l -9.88672,-0.0312 -0.0293,-70.35157 z m 134.00586,3.08203 c 4.40884,1.35724 8.60642,3.48985 12.69141,3.1582 2.24952,0.0131 4.55021,0.37688 6.73046,1.54688 1.47146,0.69394 2.23829,3.29687 2.23829,3.29687 -2.30826,1.20748 -9.49414,-0.96093 -9.49414,-0.96093 4.55983,2.92714 2.95071,8.33018 1.97461,8.99414 6.29651,7.95565 -3.49158,12.02998 -6.59766,9.16992 -4.59804,4.56876 -12.48792,0.73956 -9.44922,-6.79102 -0.004,0 -5.77543,-11.02991 5.61328,-10.29296 0,0 0.19631,-4.4583 -0.125,-4.66211 -4.06551,-0.27322 -9.59085,3.64193 -11.15625,4.72461 -0.86853,0.52484 -1.05859,0.27343 -1.05859,0.27343 -0.21678,-2.31342 -0.22341,-3.37218 0.71679,-4.66211 1.64065,-2.25089 4.35341,-3.01283 7.91602,-3.79492 z M 303.30664,577.375 c 0.90117,-0.0353 3.14569,1.55007 3.41992,2.74219 0.0562,0.24415 0.64052,1.70957 1.29492,3.07226 0.0131,0.2516 2.22601,4.24659 1.25391,3.89844 -1.93417,-2.62793 -5.39049,-7.10274 -6.25977,-9.2832 0.002,-0.29047 0.0387,-0.41979 0.29102,-0.42969 z m 4.69922,2.51953 c 0.50282,0.0252 1.8526,1.11923 2.19531,1.47656 0.12097,0.66025 0.788,2.38608 1.31641,3.52344 1.37734,2.96465 3.51172,7.61242 3.07812,8.93555 -0.29226,0.89176 0.007,0.84514 -0.77343,-0.25586 -0.38174,-0.53852 -1.57333,-2.20034 -1.85938,-2.58399 -0.69798,-0.93612 -0.22861,-0.0774 -0.62695,-1.60156 -0.95004,-4.31138 -2.48502,-6.57662 -3.48242,-9.0957 -0.0889,-0.29568 -0.0153,-0.40683 0.15234,-0.39844 z m 3.42187,2.13281 c 0.18554,0.13025 2.71306,1.9089 2.96875,2.16407 0.89672,3.18812 4.48246,13.4016 3.55469,15.22656 -0.32326,-0.25298 -1.68926,-1.89959 -1.8789,-2.74805 -0.41338,-4.88387 -1.9645,-8.39715 -3.62696,-12.03711 -0.46772,-1.0973 -0.83375,-2.19413 -1.01758,-2.60547 z m 4.75586,3.58594 c 0.80078,0.3908 1.63017,1.28703 2.09961,2.08594 0.31376,0.5422 0.47416,1.17873 0.76953,2.52148 0.91668,4.167 2.66536,8.39116 1.87891,12.83789 -0.49036,0.66509 -1.55654,-0.84095 -1.70898,-2.32617 -0.50545,-4.92441 -0.94024,-7.28496 -2.67188,-13.07617 -0.33593,-1.12348 -0.59037,-2.00413 -0.36719,-2.04297 z m 4.0625,3.82031 c 0.17105,0.007 0.5209,0.32628 1.10547,0.875 1.1371,1.0674 1.29786,1.45996 1.30469,3.23047 0.0369,2.60244 0.90446,5.57353 1.03906,8.20117 0.0777,1.51587 0.35559,5.43919 0.1211,5.67188 -0.33095,0.45642 -1.80088,-1.20649 -1.6875,-3.75391 0.187,-3.06218 0.0359,-5.36631 -1.26953,-10.66406 -0.60335,-2.44849 -0.90798,-3.49427 -0.64649,-3.55469 0.01,-0.002 0.0218,-0.006 0.0332,-0.006 z m 3.50196,3.68555 c 0.42149,0.0507 1.4552,1.52329 1.92187,2.86914 0.42831,1.2478 0.28762,2.83288 0.59961,4.17774 0.70076,4.60846 0.65864,9.22554 0.47266,10.62109 -0.0926,0.69503 -0.54084,0.41096 -1.1543,-0.25195 -0.89211,-0.96405 -0.76832,-0.98367 -0.75781,-3.66016 0.009,-2.29375 -0.5001,-7.96351 -0.73438,-9.11523 -0.43328,-2.13005 -0.61338,-4.16081 -0.51172,-4.50977 0.0285,-0.0979 0.0861,-0.14024 0.16407,-0.13086 z m 39.9082,0.43945 c 0.61246,0.002 1.22456,0.0385 1.83789,0.11133 4.5967,0.73199 8.27328,3.87118 10.37891,9.03711 2.03269,5.25303 2.53214,12.4204 2.84765,19.00977 -0.022,1.57642 -0.67053,1.17689 -2.37304,0.19726 -1.86031,-0.90864 -2.25745,-0.64522 -4.97266,-0.0234 -1.69424,0.3879 -1.54116,-0.76433 1.24609,-2.67578 0.94902,-0.61917 2.05429,-1.44665 1.69141,-1.57031 -0.18399,-0.0627 -1.03261,0.16599 -1.64648,0.66211 -2.73473,2.21011 -3.47802,2.74862 -2.68946,0.59961 0.19926,-0.54305 0.83295,-2.04996 1.09766,-2.77148 0.99065,-2.70014 -0.14959,-3.8552 -3.51367,-5.56446 -0.84192,-0.42773 -1.39673,-1.14209 -0.55664,0.35157 0.68702,1.22149 -0.73325,2.20662 -2.49219,0.77734 -1.2225,-0.99342 -3.67762,-0.33149 -4.4707,0.9082 -0.76804,1.2006 -0.35774,3.44223 1.15625,4.16797 1.33417,0.57464 1.83136,0.16034 0.54101,-0.73437 -1.65951,-1.15063 -1.33642,-3.09327 0.52734,-3.08594 0.4602,0.002 1.27305,0.5156 3.32813,1.63281 1.47055,0.79562 2.51781,0.45956 2.51953,-0.72851 0.002,-0.79512 0.45655,-0.72991 1.42383,-0.25196 1.30256,0.64367 1.15873,1.22777 0.4707,3.02735 -0.46421,1.25678 -0.69375,2.68434 -1.11914,3.99804 -1.09723,4.42205 -1.24471,9.43123 -0.0312,10.99219 3.22701,4.15173 6.65556,3.71038 9.58985,0.9668 l -0.12696,4.54687 c -2.992,2.40157 -6.48623,4.03927 -11.88281,12.94141 -1.88187,-2.36413 -9.9577,-12.0277 -22.90625,-14.21094 l -2.91406,-3.98828 c 0.0494,-0.24724 -2.17652,-14.82545 -3.63281,-19.78906 0,0 1.60137,-2.43362 3.05664,-4.22657 5.45029,-6.71506 14.42836,-14.33973 23.61523,-14.30664 z m -14.73242,3.19727 c 0.20279,0.004 0.40495,0.0189 0.70508,0.041 0.45299,0.0281 0.44263,0.54756 -1.02149,1.01171 -0.49809,0.15791 -0.65957,-0.83437 -0.38867,-1.02343 0.29936,-0.025 0.50229,-0.0332 0.70508,-0.0293 z m -2.56641,0.28906 c 0.22842,-0.0128 0.40153,-0.005 0.55274,0.18946 0.69712,0.8931 0.98096,1.43238 0.3457,1.92187 -0.84177,0.70266 -1.60902,0.52652 -2.07617,-0.80859 -0.30042,-0.95085 0.40987,-1.25098 1.17773,-1.30274 z m -19.59961,0.0195 c 0.64649,0.46055 1.43521,1.70225 2.20703,2.83203 0.42699,0.62503 0.18366,1.66027 0.25,2.6836 0.094,1.45082 0.25515,3.8446 0.35743,5.31445 0.19947,2.86655 -0.0695,5.26388 -0.48829,6.12891 -0.42807,1.03494 -1.29632,0.31845 -1.51171,-1.09766 -0.0518,-0.34036 0.23205,-3.85457 0.23242,-5.78516 0,-3.32033 -0.84737,-7.41907 -1.04688,-10.07617 z m 16.59961,0.7168 c 0.13496,-0.003 0.26946,0.0135 0.40235,0.0508 0.75149,0.50373 1.49816,1.83034 1.57617,2.78711 -0.0479,0.2626 -0.27861,0.48497 -0.78321,0.89258 -0.50013,0.45829 -0.65839,0.42735 -1.21679,-0.45313 -0.87561,-1.36799 -1.28496,-2.26813 -1.11328,-2.74023 0.32816,-0.34102 0.72988,-0.52774 1.13476,-0.53711 z m 31.01172,0.22461 c 1.2548,0.1064 2.49378,0.6782 3.71484,0.9668 l -1.86328,1.80078 c -0.55399,-0.92311 -1.18417,-1.84447 -1.85156,-2.76758 z m -34.56055,0.71289 c 0.36825,-0.0407 0.92887,-0.0231 1.16797,0.22461 0.68804,0.89581 1.88816,3.23886 1.82422,4.10937 -0.17554,0.2964 -0.44796,0.5608 -0.73633,0.72657 -0.22903,0.0622 -0.43449,-0.33959 -1.21093,-1.71289 -1.34994,-2.38766 -1.74564,-3.06064 -1.04493,-3.34766 z m -1.82812,0.7207 c 0.0982,0.008 0.19141,0.0281 0.27344,0.0606 0.7509,0.66781 2.55348,4.22565 2.60547,5.22656 -0.0205,0.28159 -0.10451,0.52533 -0.27149,0.71485 -1.13258,1.218 -0.84697,1.02174 -2.5332,-2.44922 -1.42376,-2.85457 -1.79882,-3.13573 -0.85742,-3.45703 0.15622,-0.0533 0.48843,-0.12062 0.7832,-0.0957 z m -2.43359,0.98828 c 0.49416,-0.007 0.63419,0.81903 1.59765,2.70118 1.61296,3.55901 2.21685,4.05519 1.85156,4.43554 -0.44997,0.56746 -0.71122,0.96499 -1.13867,0.27539 -0.97272,-1.58166 -1.93807,-3.59953 -2.84375,-5.37109 -0.72505,-1.32241 -0.79002,-1.48307 -0.32422,-1.80664 0.26712,-0.18553 0.66403,-0.23147 0.85743,-0.23438 z m 30.52929,0.87696 c -0.74723,-0.009 -1.42992,0.0557 -1.73828,0.13476 -0.60596,0.17048 -3.04363,0.94245 -1.55078,1.08203 0.30173,0.0282 1.06625,-0.16411 1.60351,-0.20117 1.50901,-0.10413 4.64954,0.17974 4.53711,-0.10937 -0.17894,-0.6775 -1.60617,-0.89187 -2.85156,-0.90625 z m -33.09179,0.2832 c 0.18038,-0.0133 0.34306,0.0314 0.45312,0.18359 0,0.0601 0.39193,0.75407 0.78125,1.4336 2.29267,4.4293 3.5656,6.04208 3.1582,6.74219 -0.33509,0.42261 -0.85189,0.95428 -1.1582,0.82812 -0.49302,-0.20307 -1.15044,-1.65194 -2.79102,-4.93359 -1.69549,-3.39147 -1.87167,-3.64559 -1,-4.08594 0.17845,-0.0826 0.37626,-0.15467 0.55665,-0.16797 z m -2.6504,0.72852 c 0.31808,-0.0328 0.64232,0.73822 0.8125,1.01757 1.05372,1.71244 0.91637,1.48858 0.9043,7.0625 -0.008,3.46871 -0.45289,5.67972 -1.0332,6.53321 -0.30391,0.44699 -0.84149,0.18529 -1.10742,-0.68946 -0.12166,-0.40018 0.22607,-0.99573 0.29101,-1.6289 0.41007,-4.17395 0.12321,-8.34465 0.13281,-12.29492 z m 27.51172,0.72851 c -0.11265,0.003 -0.19383,0.0342 -0.2207,0.10352 -0.10749,0.27723 0.11171,0.71405 0.69922,1.55273 0.49071,0.70055 0.37088,1.26483 0.36719,2.20703 -0.005,1.33248 0.0917,1.43066 1.01171,0.75782 0.8155,-0.59643 0.88085,-0.63395 2.33594,0.35351 0.86316,0.58573 1.95173,0.6508 2.65625,0.004 0.49623,-0.45595 0.66895,-0.24929 1.33399,-0.0762 0.72359,0.40209 0.92919,0.4628 2.48242,-0.29102 1.04864,-0.46385 1.09123,-0.52934 1.71484,-0.20117 1.09716,0.96697 1.25763,0.61591 1.10938,-0.64844 0.003,-0.44126 0.13169,-1.26515 0.26172,-1.80078 0.54586,-2.24891 -0.33908,-2.27295 -1.50782,-0.83984 -0.45267,0.55503 -1.46069,0.79543 -2.41406,0.34765 -1.36554,-0.64138 -3.49656,-0.38218 -5.07226,-0.11719 -1.86425,0.3135 -2.72769,-0.20089 -3.47657,-0.83984 -0.3183,-0.27158 -0.94328,-0.52082 -1.28125,-0.51172 z m -24.51953,4.81055 c 0.23345,-0.0504 0.59109,0.64067 1.11524,2.10547 0.67649,1.89051 -0.5055,8.46274 -1.2168,9.53906 -0.37628,0.56472 -0.61752,0.9116 -1.39063,-0.13477 -0.30751,-0.45988 -0.0685,-0.60638 0.23633,-1.89843 0.46386,-1.96616 0.85439,-5.14723 0.87891,-6.62696 0.006,-1.92032 0.11234,-2.92731 0.37695,-2.98437 z m 2.375,6.375 c 0.16797,0.0118 0.3644,0.39162 0.63281,1.14062 0.38018,1.02891 0.197,3.01114 -0.30273,4.5293 -0.28939,0.88431 -0.56544,1.82815 -1.05859,2.61914 -0.16794,0.44368 -1.02843,0.28871 -1.26563,-0.69531 -0.15009,-0.62263 0.36865,-1.39589 0.61914,-2.38672 0.25162,-0.99524 0.53739,-2.26143 0.67969,-2.89844 0.26262,-1.55523 0.44978,-2.32584 0.69531,-2.30859 z m 18.39258,2.91211 c -0.0209,-0.003 -0.0395,4.4e-4 -0.0527,0.006 0.004,-0.006 -0.009,0.009 -0.0137,0.0137 -0.0393,0.039 1.7917,2.03563 2.28321,2.59375 0.25699,0.21757 2.46457,2.90167 1.09179,2.28516 -3.46352,-1.43559 -7.51597,-0.73114 -10.01172,1.67578 -0.31263,0.30151 -0.57185,-0.008 -1.51757,-0.0781 -1.93858,-0.14448 -2.64188,0.62492 -1.46289,1.58008 0.18051,0.14624 0.55646,0.2127 0.72656,0.44727 0.15611,0.21524 0.11025,0.60124 0.1914,0.70898 3.74845,4.9759 10.69039,5.94362 15.04883,2.69336 0.54829,-0.40888 0.85621,-0.55249 1.36719,-0.40039 1.0138,0.30178 1.10468,-0.54788 0.20898,-1.73438 -0.39057,-0.51736 -0.8721,-1.11342 -0.59179,-1.28515 0.55354,-0.47616 0.82773,-1.25537 -0.13477,-1.54688 -0.66345,-0.20094 -1.40838,-0.93849 -1.78125,-1.96875 -0.43553,-1.20337 -4.70477,-4.90248 -5.35156,-4.99023 z m -17.01563,2.17969 c 0.81444,-0.019 0.85165,4.79292 -0.0488,6.2539 -0.46268,0.55305 -1.52015,-0.47558 -1.36133,-1.53125 0.12074,-0.80258 0.98622,-4.4201 1.18359,-4.60742 0.08,-0.0759 0.15754,-0.11362 0.22656,-0.11523 z m 16.60938,3.0039 c 0.68382,-0.007 1.62106,0.29849 2.36523,0.97071 0.40238,0.36342 1.10716,1.93789 0.81446,2.55468 -0.0818,0.31357 -0.92735,0.29408 -1.00391,0.0645 -0.4644,-3.17626 -3.03982,-3.63694 -3.85742,-0.67188 0,0 -0.52993,0.45016 -0.59766,-0.41797 0.18334,-1.68347 0.9738,-2.48694 2.2793,-2.5 z m 20.73633,0.27539 c 0.81838,-0.0153 1.59723,0.39543 1.99805,1.26953 0.27944,0.6094 0.31014,1.12311 0.19921,1.39063 -0.0828,0.19981 -0.35742,0.11328 -0.35742,0.11328 -1.30706,-3.58442 -3.08614,-1.92683 -3.73047,0.0547 0,0 -0.67218,0.20808 -0.75586,-0.006 -0.0841,-0.21434 -0.0312,-0.61777 0.23633,-1.17578 0.51066,-1.06536 1.48268,-1.62918 2.41016,-1.64649 z m -17.48438,0.22071 c 0.46279,-0.0251 1.25524,0.35214 1.84766,0.94921 0.60179,0.60657 0.66013,0.96847 0.17383,1.41797 -0.29211,0.27062 -1.3301,0.53809 -1.53125,0.0684 l -0.875,-2.04297 c -0.0832,-0.19428 0.1744,-0.38121 0.38476,-0.39257 z m -6.29883,0.0977 c 0.51818,0.002 0.62815,0.11905 -0.18554,2.01172 -0.17393,0.40452 -2.26109,-0.18227 -1.86328,-0.96289 0.59692,-0.6213 1.53065,-1.04978 2.04882,-1.04883 z m 20.90821,0.15039 c 0.20841,-0.01 0.37797,0.0197 0.44922,0.11524 -0.18661,0.0671 -0.97461,2.0625 -0.97461,2.0625 -0.74484,-0.09 -1.63576,0.0156 -1.79688,-0.59375 -0.15218,-0.57566 0.14788,-0.92599 1.19727,-1.32813 0.31762,-0.11539 0.77768,-0.23984 1.125,-0.25586 z m 5.94726,0.46094 c 0.0461,0.008 0.0992,0.0269 0.16211,0.0508 0.79056,0.28966 0.97614,0.95741 0.875,1.30274 -0.0766,0.2614 -0.45011,0.26587 -0.71484,0.0644 -0.25174,-0.29245 -0.62419,-0.79192 -0.5957,-1.12695 0.0618,-0.25008 0.13507,-0.3147 0.27343,-0.29102 z m -39.21484,1.89453 c 0.24286,0.45727 0.6805,3.04711 0.16797,2.98047 -0.49731,-0.12827 -0.72727,-0.91005 -0.81445,-1.61328 -0.018,-0.14493 0.42423,-1.3502 0.64648,-1.36719 z m 8.69922,1.38281 c 0.23017,-0.0329 0.80867,0.16965 1.66992,0.65625 2.83425,1.36921 5.74,1.56211 8.82617,0.87305 1.77991,-0.46179 2.23485,-0.73124 2.48633,-0.42578 0.4271,0.51875 -0.24829,1.03614 -2.76172,1.88086 -2.75617,0.92637 -5.61452,0.77056 -9.375,-1.88281 -1.01052,-0.71301 -1.14163,-1.05935 -0.8457,-1.10157 z m 31.21094,0.52149 c 0.097,0.0163 0.17744,0.0742 0.24023,0.1914 0.46652,0.87042 -1.12312,1.69703 -1.92773,1.92969 -1.70989,0.49439 -4.30058,0.26386 -5.76368,-0.61523 -0.12283,-0.0738 -0.23959,-0.15298 -0.35156,-0.23633 -1.1898,-0.88574 -0.69818,-1.51914 0.62695,-0.83594 1.42501,0.73464 4.32529,0.87071 5.86329,0.12891 0.57816,-0.27885 1.02144,-0.61149 1.3125,-0.5625 z m -34.95508,1.81445 c -0.15807,0.0351 0.1097,0.43641 0.66211,1.03516 3.87721,4.35157 13.12675,6.71145 18.32617,2.22656 1.62844,-1.5282 1.38096,-2.21504 -1.1875,-0.99414 -2.84012,0.93467 -6.87652,1.05601 -10.36719,0.53906 -1.71659,-0.23191 -4.51299,-0.88849 -5.93164,-1.92578 -0.89359,-0.65336 -1.36253,-0.91187 -1.50195,-0.88086 z m 26.57226,0.0449 c 0.0231,-0.005 0.12831,0.0831 0.16211,0.0859 0.23664,0.0191 0.65069,0.1081 1.55078,0.57617 1.3137,0.68317 4.29672,0.44832 5.27344,0.0879 2.05827,-0.75962 2.48117,0.20589 0.53125,1.28321 -2.17255,1.31519 -5.17193,0.8 -6.92187,-0.89454 -0.54186,-0.48559 -0.83351,-1.0902 -0.59571,-1.13867 z m -25.54297,7.78321 c 7.63514,0.69767 19.15942,8.27384 23.65235,17.375 h -2.58594 c -4.51381,-7.16232 -11.45927,-12.92745 -19.70117,-15.07813 -0.32598,-0.25091 -1.54005,-1.97939 -1.36524,-2.29687 z m 33.89063,1.66796 -0.35156,2.51563 c -1.27944,1.04861 -5.97073,4.93367 -9.44922,11.01758 -0.72453,-0.0339 -1.07593,-0.90732 -0.95508,-1.50195 2.7849,-5.49127 6.11509,-8.52183 10.75586,-12.03126 z m -30.85742,1.96876 c 1.75163,-0.12037 13.14865,5.99985 16.98633,13.73828 h -2.10157 c -4.3171,-5.62187 -9.11412,-9.29007 -13.37304,-10.76172 -1.03553,-1.09216 -2.16979,-2.92878 -1.51172,-2.97656 z m 30.50586,1.75 -0.0195,3.40039 c -2.72677,2.65449 -4.72094,5.32485 -6.28125,8.58789 h -2.11719 c 0,0 -0.47058,-0.93263 -0.30664,-1.51368 2.40641,-4.33087 4.7124,-7.48417 8.72461,-10.4746 z m -27.52539,2.79101 c 1.02207,-0.0413 9.06316,5.57047 10.21093,9.19727 h -2.04882 c -1.72935,-2.44477 -4.29791,-4.7975 -6.65625,-6.19727 -0.9664,-1.19772 -2.04906,-2.67434 -1.61328,-2.91406 0.002,-0.0553 0.0393,-0.0832 0.10742,-0.0859 z m 27.44922,2.16797 c 0.0448,-0.0159 0.0791,-0.0168 0.0996,0 0.0219,0.0179 0.0284,0.0552 0.0195,0.11328 l -0.043,1.96484 c -1.3868,1.77341 -2.54991,3.26119 -3.66016,4.95118 h -1.74609 c 1.39942,-3.02112 4.65792,-6.79118 5.33008,-7.0293 z m -23.48047,3.9082 c 0.0216,-0.004 0.0492,7e-5 0.084,0.0117 0.632,0.16661 2.94095,2.37089 2.86719,3.10938 l -1.03906,-0.0293 c -0.58304,-0.73609 -1.27364,-1.50251 -1.6836,-2.25586 -0.22471,-0.4171 -0.37978,-0.80774 -0.22851,-0.83594 z m 23.19922,0.61914 c 0.007,-0.002 0.01,-0.002 0.0137,0 0.003,0.002 -0.0195,2.50196 -0.0195,2.50196 h -1.75391 c -0.18883,-0.0343 0.85026,-1.88931 1.75977,-2.50196 z"
         style="fill:#131f67;fill-opacity:1;stroke-width:0.1545569"
         id="path3084" />
      <path
         inkscape:connector-curvature="0"
         d="m 413.91211,396.24805 c -8.58995,-10e-4 -17.27714,0.0465 -26.94141,0.14843 l 65.24805,92.57813 0.0527,-20.56641 -20.9375,-27.01953 c 4.76521,-1.4696 10.58428,-2.48633 15.16602,-2.89453 -5.88467,-13.04504 -8.82891,-25.29653 -6.23633,-42.08789 -9.26908,-0.10648 -17.76161,-0.15694 -26.35156,-0.1582 z m 25.26562,0.58789 c -0.51081,5.92779 -1.1811,12.53938 -0.10546,19.88086 -3.39555,-1.23986 -4.19277,0.87872 -4.75586,1.10156 -0.63893,-1.42447 -3.00597,-3.8887 -5.68555,-0.99219 -1.39313,1.5059 -0.71626,4.33773 2.51758,5.61524 -3.70306,0.28425 -5.62759,-2.88053 -6.27735,-6.14453 -2.00154,-1.2811 -4.10436,-2.54709 -4.30468,-7.03907 l 1.02539,0.16992 c -0.34119,3.13415 2.91653,4.73024 4.82226,3.23438 1.23227,-0.94401 1.36289,-2.40094 0.87696,-4.66406 0.98966,-0.20261 3.30819,-1.17228 2.69531,-4.15039 -0.84612,-4.11149 -5.06858,-3.62971 -6.99805,-0.92578 -1.60382,-1.98515 -4.54534,-2.35231 -5.72461,0.73046 -0.65692,1.71727 0.84037,3.64464 2.54102,4.01758 -3.77689,0.72418 -5.68135,-4.48322 -5.89258,-8.00781 l -1.56445,-2.77734 c 10.2107,-0.0593 14.67593,-0.0479 26.83007,-0.0488 z m -51.14453,0.10156 7.57813,0.006 55.30859,71.56836 0.11524,17.81836 z m 19.16016,0.006 1.20898,0.0137 c 0.94666,6.29931 4.56915,10.86076 10.76563,13.08008 0.32168,5.14647 2.80251,12.1381 12.21875,14.5 -0.27758,5.81111 3.4562,11.36357 7.45312,14.02539 0,-1.6e-4 -1.07855,0.267 -1.92187,0.34766 -5.37353,-4.26063 -6.69789,-10.53411 -7.23047,-13.12305 -0.18185,-0.37381 -0.69431,-0.46372 -1.10156,-0.55469 -4.59887,-1.62443 -8.46894,-5.40299 -10.05078,-10.01367 l -0.9961,-4.52539 c 0.002,-0.58136 -0.11549,-0.30737 -1.48242,-0.81055 -3.54725,-1.30574 -6.82592,-5.14458 -8.29687,-9.72851 -0.77349,-2.41008 -0.56641,-3.21094 -0.56641,-3.21094 z m -4.87305,0.0137 4.2461,0.006 c 0,0 0.0242,0.74875 0.0859,1.23633 0.57119,4.51288 4.62469,10.17585 8.75782,12.05469 0.58477,0.26575 1.39749,0.63922 1.58789,0.8164 1.15525,7.39796 4.50991,11.85481 11.58789,14.90625 0.11261,0.1168 0.43071,0.19071 0.52539,0.33789 0.96495,4.57485 3.07425,9.87688 7.08594,12.79297 l -1.73438,0.17969 z m 20.73828,7.76563 c 0.95995,0 1.74024,0.7784 1.74024,1.73828 0,0.95988 -0.78029,1.73437 -1.74024,1.73437 -0.95982,0 -1.73828,-0.77449 -1.73828,-1.73437 0,-0.95988 0.77846,-1.73828 1.73828,-1.73828 z m -58.59375,9.48828 c 0.10045,0.25112 -23.74636,20.42099 -21.42578,58.37304 l -0.6914,0.77344 0.18945,0.26953 c -0.78748,0.89377 -1.54682,1.61087 -2.40625,2.48243 4.94497,3.15147 13.5647,6.59227 13.5918,6.50195 l -1.64649,3.8164 10.30078,3.32618 -1.38086,3.6289 c 0,0 -7.16815,-2.37702 -10.13867,-3.36719 -1.46553,3.24924 -2.35105,6.68073 -3.41797,10.06055 -0.10047,0.27247 -0.33551,0.14112 -0.70117,-0.38672 -5.35158,-9.12658 -16.34314,-15.71113 -15.97266,-15.05859 l -38.97656,36.98242 -0.26562,22.85352 26.97461,27.80273 c 0,0 -7.80622,3.83974 -11.5,6.35938 2.87239,2.34412 6.12326,4.15054 8.97851,6.36718 5.90672,4.16565 9.89413,10.28815 13.72266,14.43555 18.05478,-8.95152 36.23597,-8.45194 51.93945,-3.01758 -1.82952,1.92498 -3.86997,3.59237 -5.75586,5.67969 4.56456,11.97639 3.10294,35.76147 2.87305,36.4082 9.50301,-9.70766 23.63966,-30.52499 21.75391,-59.83398 l 3.99804,-4.00781 c -0.0729,-0.20549 -10.00252,-5.52218 -14.14062,-6.67969 l 1.14453,-3.64258 -9.91211,-3.0957 1.10742,-2.89258 9.87109,2.85937 c 1.86935,-4.58904 3.84961,-11.01757 3.84961,-11.01757 3.94235,5.89809 8.28941,11.26219 17.23438,16.7207 l 38.75391,-37.07813 -0.25,-23.84179 -26.38672,-26.38477 10.98437,-5.72461 c -1.05531,-0.85115 -2.58647,-1.65896 -3.67187,-2.51172 -0.0774,-0.0608 0.21843,-0.24288 0.14062,-0.30273 -0.27568,-0.21201 -0.47686,-0.38459 -0.75781,-0.58008 -0.0631,-0.0439 -0.26177,0.24107 -0.32422,0.19727 -3.72696,-2.61358 -7.45481,-5.18557 -10.38867,-8.3125 -0.0735,-0.079 0.0346,-0.40364 -0.0391,-0.48243 -1.52472,-1.62889 -3.04299,-3.14482 -4.59375,-4.74804 -0.71923,-0.72588 -1.90821,-2.44922 -1.90821,-2.44922 l -0.0664,-0.56836 -1.66602,-2.09766 c -5.36591,3.16495 -28.24352,11.10993 -50.38086,2.31446 l 4.20703,-4.20703 c -1.11991,-2.70198 -1.8461,-5.71802 -2.13476,-8.1875 -1.15768,-9.90369 -0.71485,-27.73633 -0.71485,-27.73633 z m 69.78125,5.60742 c 1.01288,0 1.83594,0.8211 1.83594,1.83398 0,1.01288 -0.82306,1.83594 -1.83594,1.83594 -1.01287,0 -1.83007,-0.82306 -1.83007,-1.83594 0,-1.01288 0.8172,-1.83398 1.83007,-1.83398 z M 439.98633,422 c 0.9341,4.5615 2.98846,11.18556 5.03515,15.65039 l -2.4375,0.27149 c -1.98512,-1.28972 -4.08244,-3.17255 -4.30273,-5.8418 -5.36795,0.0413 -6.93927,-8.37774 -4.97852,-7.36719 -0.24999,2.87623 1.81317,4.00879 3.83789,3.72656 1.743,-0.24296 3.24995,-2.64991 1.17579,-5.30664 0.92184,-0.35871 1.37265,-0.6297 1.66992,-1.13281 z m -76.07227,13.49023 c 0.35552,5.83349 1.49949,10.08737 2.56836,14.49415 l -10.60547,10.00781 c 0.82729,-9.13448 3.51037,-17.29763 8.03711,-24.50196 z m 50.86719,19.21289 1.34766,1.9336 c -15.32788,9.00088 -41.48945,9.63602 -57.42774,2.04687 l 2.11524,-2.01367 c 14.01499,6.3284 36.83315,6.79758 53.96484,-1.9668 z m -99.54883,3.00586 c -1.54436,-0.019 -3.32747,0.56851 -5.2168,2.00782 -7.03161,-3.2034 -11.63591,4.28461 -7.2871,9.24414 -0.64374,3.56978 -1.13164,4.23568 1.55468,7.84961 -2.85363,0.36316 -6.4555,-0.38388 -9.51953,-0.85547 0.51775,5.28637 8.08683,6.5166 11.23828,5.93554 3.40244,-0.73739 6.61404,0.94728 6.75391,0.98633 2.00051,0.55854 3.24198,1.52083 5.21484,1.98438 3.25359,0.77401 8.01877,-3.03873 8.70899,-6.66016 0.0652,-0.48653 0.21585,-0.92733 -0.0527,-1 -2.22416,0.56883 -4.66738,1.37134 -6.83398,1.84571 -2.12185,0.52066 -3.72197,1.03407 -5.33789,2.29882 l -0.13477,-4.36718 c 11.0155,0.5241 6.22136,-9.94868 5.59766,-10.39844 2.04674,-4.13228 -0.41579,-8.81855 -4.68555,-8.8711 z m 100.125,0.32813 2.39453,5.76172 -6.36523,2.1582 -1.62891,-5.64062 z m -100.58398,0.17383 c 3.7442,0.0362 7.09407,3.97948 3.49804,8.39453 6.97064,6.14765 -1.96335,12.73503 -6.21679,8.16211 -5.66293,5.18566 -11.67931,-0.23163 -8.51563,-5.87891 -6.03917,-5.40416 1.40845,-12.65093 6.4961,-7.98242 1.24956,-1.92064 3.03636,-2.71179 4.73828,-2.69531 z m 43.46875,2.10937 c 0.89626,0 1.62304,0.72677 1.62304,1.62305 0,0.89627 -0.72678,1.62305 -1.62304,1.62305 -0.89642,0 -1.6211,-0.72678 -1.6211,-1.62305 0,-0.89628 0.72468,-1.62305 1.6211,-1.62305 z m -41.47266,0.1211 c -0.0927,10e-4 -0.20402,0.0437 -0.32422,0.15039 -0.18165,0.0168 -0.57535,0.69338 -1.56445,1.83984 -1.71903,1.99251 -1.90625,2.01172 -1.90625,2.01172 -1.83158,-0.59929 -3.05471,-0.27509 -4.26172,0.48828 0,0 -1.3766,-0.26129 -3.27539,-1.84766 -0.86601,-0.72399 -1.33167,-0.88047 -1.48242,-0.49218 -0.1606,0.41367 0.23142,0.82099 1.89258,1.95117 2.29882,1.564 2.15625,1.44336 2.15625,1.44336 -0.14226,1.3745 0.0816,2.49281 0.60156,3.5332 0,0 -0.40493,0.976 -2.03711,3.11328 -0.46149,0.60404 -0.8409,1.26131 -0.8418,1.45899 -0.003,0.83157 0.7241,0.27203 2.39258,-1.83594 0.65381,-0.82625 1.55078,-2.00977 1.55078,-2.00977 1.95961,0.67863 2.64644,0.26679 3.875,-0.16992 0,0 0.4197,0.31219 1.48828,1.16406 1.9553,1.55878 2.37891,1.72513 2.61914,1.52735 0.3235,-0.26635 0.28048,-0.35338 -0.45898,-0.88867 -2.20539,-1.59671 -2.96289,-2.51953 -2.96289,-2.51953 0.44854,-1.7467 -0.0427,-3.19036 -0.52344,-4.10157 0,0 0.0346,-0.22299 1.2793,-1.61328 0.91418,-1.02108 2.16478,-2.63335 2.08594,-2.86523 0.021,-0.14427 -0.0992,-0.34021 -0.30274,-0.33789 z m 45.13477,0.35351 5.73242,1.78125 -1.26563,5.96094 -6.10937,-1.9707 z m 41.48828,1.46289 1.59961,5.81446 -5.96485,1.58593 -0.97656,-6.17382 z m 4.1875,0.0977 c 0.89654,0 1.62305,0.72481 1.62304,1.62109 0,0.89627 -0.7265,1.62305 -1.62304,1.62305 -0.89626,0 -1.62305,-0.72678 -1.62305,-1.62305 0,-0.89628 0.72679,-1.62109 1.62305,-1.62109 z m 13.55859,0.20703 5.01367,4.46289 -5.56445,2.81055 -2.68164,-5.81446 z m -47.27539,1.28906 5.82422,0.68555 -0.23633,6.25977 -6.68555,-0.89258 z m -20.20898,0.0684 6.48242,2.84375 -2.33789,6.53125 -6.63672,-2.84961 z m 16.70703,0.50586 c 2.38877,0.37395 1.74609,3.19302 0,3.2461 -0.89627,0 -1.62305,-0.72678 -1.62305,-1.62305 0,-0.89628 0.72678,-1.62305 1.62305,-1.62305 z m 20.95703,0.006 0.79687,6.26367 -6.04687,0.36719 -0.13086,-6.36523 z m 4.1582,0.71484 c 0.89626,0 1.62305,0.72678 1.62305,1.62305 0,0.89628 -0.72679,1.62305 -1.62305,1.62305 -0.8966,0 -1.62304,-0.72677 -1.62304,-1.62305 0,-0.89627 0.72644,-1.62305 1.62304,-1.62305 z m -12.57617,0.52735 c 0.89626,0 1.62305,0.72482 1.62305,1.62109 0,0.89628 -0.72679,1.62305 -1.62305,1.62305 -0.89654,0 -1.62305,-0.72677 -1.62305,-1.62305 0,-0.89627 0.72651,-1.62109 1.62305,-1.62109 z m -71.60742,0.0605 c 0.92469,0 1.67578,0.74538 1.67578,1.66992 0,0.92455 -0.75109,1.67773 -1.67578,1.67773 -0.92439,0 -1.67188,-0.75318 -1.67188,-1.67773 0,-0.92454 0.74749,-1.66993 1.67188,-1.66992 z m 100.08789,0.33984 2.35742,6.4375 -6.60742,2.13086 -1.86914,-6.61328 z m 4.63672,0.17383 c 0.89626,0 1.62304,0.72677 1.62304,1.62304 0,0.89628 -0.72678,1.62305 -1.62304,1.62305 -0.89642,0 -1.62305,-0.72677 -1.62305,-1.62305 0,-0.89627 0.72663,-1.62304 1.62305,-1.62304 z m 11.42383,1.82617 4.26953,3.01758 -2.11524,1.17968 c -0.55448,-1.32702 -1.53353,-2.90052 -2.15429,-4.19726 z m -61.03125,0.58398 6.30273,1.36719 -0.96094,6.60156 -6.87695,-1.37109 z m -18.74414,0.36133 3.3457,1.57422 -2.20703,5.50195 -5.41407,-2.88281 z m 14.96289,0.35742 c 0.89641,0 1.62304,0.72677 1.62304,1.62305 0,0.89627 -0.72663,1.62305 -1.62304,1.62305 -0.89626,0 -1.62305,-0.72678 -1.62305,-1.62305 0,-0.89628 0.72679,-1.62305 1.62305,-1.62305 z m 36.40234,0.36328 1.125,6.60157 -7.10937,1 -0.43946,-6.73242 z m 26.61719,0.125 c 0.89641,0 1.62304,0.72677 1.62304,1.62305 0,0.89627 -0.72663,1.62305 -1.62304,1.62305 -0.89626,0 -1.62305,-0.72678 -1.62305,-1.62305 0,-0.89628 0.72679,-1.62305 1.62305,-1.62305 z m -5.04102,0.0488 2.35156,5.82032 -6.95507,2.90624 -2.05664,-5.82421 z m -17.73633,0.41992 c 0.89653,0 1.62305,0.72678 1.62305,1.62305 0,0.89627 -0.72652,1.62305 -1.62305,1.62305 -0.89626,0 -1.62304,-0.72678 -1.62304,-1.62305 0,-0.89627 0.72678,-1.62305 1.62304,-1.62305 z m -23.48828,0.66211 6.65625,0.11914 -0.0781,6.67579 -7.28711,-0.20313 z m 53.23047,0.46289 2.61914,1.81641 c -26.9413,17.32434 -64.78913,19.47219 -94.32422,2.41992 0,0 1.20807,-1.20315 1.89453,-1.9082 26.62524,15.93415 65.49468,13.69796 89.81055,-2.32813 z m -56.83789,0.75391 c 0.89652,0 1.62305,0.72678 1.62305,1.62305 0,0.89628 -0.72653,1.62304 -1.62305,1.62304 -0.89626,0 -1.62305,-0.72676 -1.62305,-1.62304 0,-0.89627 0.72679,-1.62305 1.62305,-1.62305 z m 13.66406,0.36719 c 0.89628,0 1.62305,0.72679 1.62305,1.62304 0,0.89628 -0.72677,1.62305 -1.62305,1.62305 -0.89639,0 -1.62304,-0.72677 -1.62304,-1.62305 0,-0.89627 0.72665,-1.62304 1.62304,-1.62304 z m -31.69922,0.89258 6.95118,2.00976 -1.1836,5.48633 -7.62109,-2.19141 z m -4.59765,0.0391 c 0.89652,0 1.62304,0.72677 1.62304,1.62305 0,0.89627 -0.72652,1.62304 -1.62304,1.62304 -0.89626,0 -1.62305,-0.72677 -1.62305,-1.62304 0,-0.89628 0.72679,-1.62305 1.62305,-1.62305 z m 53.98437,1.16797 1.66016,6.1582 -7.68359,1.64258 -0.92774,-6.05664 z m 4.41407,0.89453 c 0.89642,0 1.62304,0.72678 1.62304,1.62305 0,0.89628 -0.72662,1.62304 -1.62304,1.62304 -0.89626,0 -1.62305,-0.72676 -1.62305,-1.62304 0,-0.89627 0.72679,-1.62305 1.62305,-1.62305 z m -100.38868,0.95703 -0.0156,4.31641 c -1.27444,-1.05054 -2.71397,-2.16866 -4.1875,-3.29883 1.503,0.0798 2.90116,-0.33341 4.20312,-1.01758 z m -15.82812,0.10547 c 0.35069,-0.003 1.17065,0.2824 2.14844,0.2793 3.12923,-0.01 8.97429,0.96694 10.70312,2.38671 0.57611,0.47148 1.43884,0.89076 1.9082,1.65235 -0.002,0.36313 -0.51438,0.37153 -1.26953,-0.0977 -1.44869,-0.89987 -3.85983,-1.70117 -7.08593,-2.14844 -0.58294,-0.0808 -0.65499,-0.0577 -0.65625,0.2168 -0.002,0.33931 0.53731,0.53758 2.23632,0.81641 2.19879,0.36086 2.66511,0.57753 3.15235,0.71093 1.30574,0.35753 0.47118,0.83447 -0.87305,0.9629 -5.48589,0.51385 -9.59143,-1.84692 -10.41797,-4.54297 -0.0665,-0.17689 -0.005,-0.23479 0.1543,-0.23633 z m 76.42383,0.0957 6.90039,0.89453 -0.3125,5.77735 -7.55469,-0.86524 z m -59.49219,0.2207 c 0.29194,0.0247 0.5792,0.12461 0.79883,0.28321 1.20575,0.94653 0.37528,3.81548 -0.28125,4.66015 -0.42503,0.47438 -1.4194,0.22382 -1.41406,-0.44336 0.15023,-0.59924 -0.0616,-3.45386 0.0684,-4.33789 0.2403,-0.13685 0.53619,-0.18683 0.82813,-0.16211 z m 80.78125,0.53907 0.35742,5.95508 -7.5293,0.34179 0.0586,-5.84765 z m -25.4043,0.40039 c 0.89626,0 1.62305,0.72679 1.62305,1.62304 0,0.89628 -0.72679,1.62305 -1.62305,1.62305 -0.89642,0 -1.62304,-0.72676 -1.62304,-1.62305 0,-0.89627 0.72662,-1.62304 1.62304,-1.62304 z m -41.95703,0.082 c 0.27803,4.37005 -6.43433,7.33568 -8.94531,5.99414 -1.11185,-0.59402 -0.64989,-0.96082 1.55469,-1.40625 2.85272,-0.7552 4.73047,-1.49056 4.73242,-2.02344 0.002,-0.32697 -0.43094,-0.28791 -1.59375,0.14453 -1.79046,0.60138 -3.64988,0.86109 -5.35938,1.62891 -1.2779,0.58019 -1.77523,0.7824 -2.0625,0.43359 -0.60199,-0.73127 2.23665,-2.57589 5.18164,-3.0664 2.20956,-0.36802 4.43819,-1.54597 6.49219,-1.70508 z m 71.51563,0.54492 c 0.8964,0 1.62304,0.72678 1.62304,1.62305 0,0.89628 -0.72664,1.62305 -1.62304,1.62304 -0.89653,0 -1.62305,-0.72676 -1.62305,-1.62304 0,-0.89627 0.72652,-1.62305 1.62305,-1.62305 z m -15.09375,1.18945 c 0.89642,0 1.62304,0.72678 1.62304,1.62305 0,0.89627 -0.72662,1.62305 -1.62304,1.62305 -0.8964,0 -1.62305,-0.72678 -1.62305,-1.62305 0,-0.89627 0.72665,-1.62305 1.62305,-1.62305 z m 36.16211,2.75782 c 10.8616,10.34201 22.76711,22.24758 32.58789,32.04101 -0.0141,5.12431 -0.0449,15.37305 -0.0449,15.37305 l -37.49804,35.64062 c -6.79052,-4.14543 -12.53884,-9.32861 -17.83203,-18.5332 0.59676,-0.51509 1.12155,-0.84116 1.57422,-1.4043 l -1.95704,1.16797 c -6.91752,-11.06349 -9.85119,-33.10489 1.89844,-50.77539 l -11.87109,0.4336 1.93554,-4.04297 12.92579,-0.70508 5.22656,-5.60742 c 0,0 1.65506,-0.30637 3.02734,-0.62305 1.36121,-0.31417 4.14022,-1.109 6.17774,-1.76758 2.03737,-0.65857 3.7715,-1.19757 3.84961,-1.19726 z m -87.66797,2.86328 c 0,0 11.16196,6.06722 17.35937,18.21484 -20.03315,17.2324 -27.58499,37.29935 -29.28906,58.18555 -10.90353,-10.19831 -16.41403,-15.84031 -26.26563,-25.74414 l 0.35743,-14.7793 z m 42.13672,1.92773 c -2.88771,6.17376 -5.3724,12.93651 -7.59766,20.1836 l -3.10547,-0.91797 c 0,0 2.00839,-0.83935 2.90234,-1.3711 l -1.61328,-2.59765 3.05664,-1.25586 -1.80664,-2.20313 3.10157,-1.79687 -1.55079,-1.94531 2.83985,-1.42188 -1.76172,-2.02734 2.98047,-1.66211 -1.55664,-1.94141 z m 0.95117,0.0137 c 0,0 0.39972,0.077 0.86914,0.16993 0.11277,-0.0432 -0.56012,1.61759 -0.48828,1.67578 1.08471,0.22328 1.14743,0.16385 1.47265,0.26172 l 0.82618,-1.71094 1.35742,0.25586 c -2.73775,6.1788 -5.665,12.94012 -7.34571,20.25781 l -1.59961,-0.33398 c 0,0 0.46735,-1.5426 0.46875,-1.74805 -0.18774,-0.0397 -1.08815,-0.41866 -1.36718,-0.53125 -0.0962,0.24136 -0.66602,2.02734 -0.66602,2.02734 l -1.26562,-0.0332 c 2.07124,-7.98986 5.68272,-16.85045 7.73828,-20.29102 z m 5.20117,0.23829 2.83594,2.3457 -3.2168,1.25195 1.66602,2.2168 -3.41016,1.23242 1.95703,2.30274 -3.37695,1.24609 2.01367,2.78711 -3.51172,1.18359 2.21875,2.44922 -3.16992,1.48242 1.89844,1.87891 c 0,0 -1.97743,0.65044 -2.0918,0.67969 -0.3178,0.0814 -1.64648,-0.2461 -1.64648,-0.2461 2.00283,-7.13053 4.47753,-14.35682 7.83398,-20.81054 z m -68.97461,1.1875 c -0.78288,0.50805 -0.33804,1.61524 -1.32031,2.56054 -0.15679,0.1694 -0.16886,0.55671 -0.23047,0.89649 -0.0466,0.25782 -0.82422,3.34375 -0.82422,3.34375 0,0 0.19718,-0.23465 0.50781,-1.21875 0.26511,-0.83988 0.49499,-2.43513 0.63867,-2.70118 0.72393,-0.22115 0.83423,-2.58118 1.56836,-2.25781 0.42406,0.18679 0.3428,0.57292 0.10352,1.47852 -0.5226,1.80981 -0.72687,2.57236 0.16992,1.33789 1.3396,-1.6125 1.47001,-3.06878 -0.0391,-3.37695 -0.15904,-0.0305 -0.48184,-0.0594 -0.57422,-0.0625 z m 20.25586,0.67187 -35.04102,32.90039 -0.10547,12.27735 12.19532,12.35937 8.65429,8.39063 c 3.14186,-18.78918 10.35009,-36.71478 28.09571,-52.22657 -2.71906,-4.37215 -7.37699,-9.87852 -13.79883,-13.70117 z m 94.45312,0.33789 c -20.58912,9.67653 -25.32312,29.52091 -18.94726,47.48633 9.8117,-12.61891 17.51206,-24.47307 18.94726,-47.48633 z m -73.27929,1.00391 9.35156,3.00976 -3.52148,12.00586 -8.41797,-2.55468 -0.85938,-2.125 z m 72.24609,0.31445 c -0.8947,16.05666 -6.94954,31.73769 -17.48437,44.04297 -5.32677,-13.14106 -2.12275,-34.15018 17.48437,-44.04297 z m -50.36133,0.0859 -0.58984,1.49219 1.29492,0.36718 0.55078,-1.51562 z m -1.29492,3.52734 -0.53125,1.51563 1.32813,0.44922 0.49804,-1.54102 z m 55.1582,0.27344 c -2.88199,22.2723 -14.91486,42.54138 -27.62695,52.86914 4.05098,6.571 8.81438,10.79814 13.6543,14.32617 l 35.80859,-34.30273 -0.14062,-11.44141 z m -95.60351,0.69141 c 1.23227,-0.0803 1.58547,2.96648 0.97656,5.2207 -0.21995,0.81427 -0.29883,1.22851 -0.29883,1.22851 0,0 0.41331,-0.38096 1.50196,-0.97656 7.0359,-3.50932 4.76436,1.82695 1.44922,3.80078 -0.74084,0.39446 -1.50196,0.86328 -1.50196,0.86328 0,0 0.70392,0.15922 1.4668,0.30079 4.27005,0.88733 3.36165,3.38482 -1.0918,2.99609 -0.65841,-0.0575 -1.43331,-0.18135 -1.43359,-0.14453 0,0.0368 0.26791,0.97553 0.57617,1.75195 1.50137,3.78143 -1.30041,4.07402 -3.14258,1.66992 -0.25647,-0.33471 -0.83594,-1.25781 -0.83594,-1.25781 0,0 -0.18211,0.69937 -0.29296,1.375 -1.59147,5.92664 -5.51823,5.77667 -4.05274,-0.23633 0.18343,-0.62145 0.40625,-1.73437 0.40625,-1.73437 0,0 -0.88296,0.53391 -1.84375,0.96289 -5.0851,2.27048 -5.91028,-0.0658 -1.29101,-3.48242 1.31436,-0.97215 1.75976,-1.35547 1.75976,-1.35547 -0.81799,-0.0625 -1.57217,-0.18634 -2.23828,-0.35352 -3.68496,-0.92484 -4.6681,-3.12882 1.23633,-3.02539 0.8721,0.0176 1.76172,0.0762 1.76172,0.0762 0,0 -0.29201,-1.26658 -0.59961,-2.2207 -1.42435,-4.4178 1.44751,-4.94396 3.86914,-0.98633 0.5152,0.84168 0.66211,0.84766 0.66211,0.84766 -0.0744,0.003 0.15152,-1.50802 0.73828,-2.9043 0.91612,-1.69688 1.65862,-2.37952 2.21875,-2.41601 z m 64.30469,0.82617 c -2.4596,4.34545 -4.60426,8.66676 -5.62696,13.17187 l -9.5664,-0.16406 c 0.66195,-3.99456 2.35199,-8.1512 4.37109,-12.54492 3.8946,-0.1064 7.40615,-0.27675 10.82227,-0.46289 z m -25.25977,1.92773 -0.55078,1.59766 1.38672,0.42578 0.50195,-1.55469 z m -71.55078,2.99805 c -1.025,2.6636 -1.36679,5.63001 -1.93555,8.00781 -0.23995,1.37825 0.003,1.9536 0.83008,2.26172 1.17556,0.43856 2.87163,-0.16001 3.82031,-1.51758 0.53494,-0.76568 0.92259,-2.34648 1.00391,-5.13867 l 0.0918,-2.48633 c -1.45424,-0.27023 -2.44704,-0.6615 -3.81055,-1.12695 z m 70.25586,0.34765 -0.45899,1.46876 1.3379,0.49804 0.51171,-1.48242 z m 61.96875,0.55079 c 1.62775,0.04 1.92962,0.18688 3.4043,1.05859 l 2.8457,2.92578 c -0.74566,0.71402 -1.21289,1.71861 -1.21289,2.83203 0,2.1653 1.75658,3.92188 3.92187,3.92188 1.07282,0 2.75391,-1.13086 2.75391,-1.13086 l 4.50781,4.66992 c -2.62808,1.15132 -5.20202,-1.49887 -6.16992,-2.54687 -0.22701,-0.24582 -0.28516,-0.41407 -0.28516,-0.41407 0,0 0.0394,0.12846 -0.0547,0.64649 -0.3778,2.07918 -2.42802,8.21563 -4.38868,7.88867 -2.20836,-0.36827 0.0407,-9.1397 0.0645,-8.9375 -1.51812,1.60499 -8.9167,3.31355 -8.39844,1.52148 1.02951,-3.55988 6.56311,-4.9324 7.29102,-5.55078 -2.94245,-1.76998 -6.67232,-6.67811 -4.2793,-6.88476 z m -131.86719,0.11523 c 0.93702,0.0658 1.57986,0.17919 2.2168,0.44531 0.29666,0.0794 0.31084,0.32746 0.34375,0.56055 0.006,1.05131 0.2693,4.13649 -0.70508,4.16797 -1.08233,-0.0226 -2.09781,0.20983 -2.81055,0.75391 -0.57318,0.4375 -0.76402,0.12121 -0.60937,-1 0.14985,-1.08639 0.6892,-3.37058 0.92187,-4.29493 0.037,-0.38129 0.34028,-0.64994 0.64258,-0.63281 z m 29.23633,0.0391 c -2.16529,0 -3.92188,1.75658 -3.92188,3.92188 0,2.1653 1.75659,3.92187 3.92188,3.92187 2.1653,0 3.92187,-1.75657 3.92187,-3.92187 0,-2.1653 -1.75657,-3.92188 -3.92187,-3.92188 z m 0,1.37305 c 1.40744,0 2.55078,1.14138 2.55078,2.54883 0,1.40744 -1.14334,2.54687 -2.55078,2.54687 -1.40744,0 -2.55078,-1.13943 -2.55078,-2.54687 0,-1.40745 1.14334,-2.54883 2.55078,-2.54883 z m 20.23633,0.0469 c 8.98929,15.51689 7.94753,36.81526 -2.65039,52.3086 l 11.39258,-0.79688 -1.4961,2.91797 -12.14844,1.18164 c -1.85594,1.6987 -3.54548,3.64201 -5.37109,5.45899 l -0.0176,0.64258 c -4.16429,0.96692 -8.33345,2.07967 -12.57812,3.60937 -2.2406,-2.19984 -6.45538,-6.59841 -6.42774,-6.70898 l 0.27149,-1.42383 c 28.8889,-14.73872 20.43812,-44.29794 18.40429,-46.72852 3.09898,-3.72098 6.79874,-7.22219 10.6211,-10.46094 z m 80.17773,2.82227 c 1.17009,0 2.11524,0.94905 2.11524,2.11914 0,1.17009 -0.94515,2.1211 -2.11524,2.12109 -1.17009,0 -2.12109,-0.951 -2.12109,-2.12109 0,-1.17009 0.951,-2.11914 2.12109,-2.11914 z m 9.41797,0.56836 3.54883,3.65625 c -0.46079,0.45471 -1.09225,0.74023 -1.79102,0.74023 -1.40744,0 -2.55078,-1.13942 -2.55078,-2.54687 0,-0.72598 0.30537,-1.38499 0.79297,-1.84961 z m -121.93164,0.45508 c 1.1701,0 2.11523,0.94514 2.11523,2.11523 0,1.17009 -0.94513,2.1211 -2.11523,2.1211 -1.16995,0 -2.11914,-0.95101 -2.11914,-2.1211 0,-1.17009 0.94919,-2.11523 2.11914,-2.11523 z m -16.33203,0.81836 c 0.2053,-0.0118 0.39913,0.01 0.56836,0.0703 0.99217,0.33183 0.76046,1.25861 -0.52149,2.07422 -0.82948,0.52769 -1.58871,0.64453 -2.31836,0.2539 -1.2098,-0.64764 0.83435,-2.31558 2.27149,-2.39843 z m 16.94531,5.25781 -12.76562,12.34961 c 0.80326,-2.05204 0.83382,-4.09847 0.89453,-6.14844 3.84122,0.39593 5.4484,-1.55315 4.88672,-5.56445 2.48112,0.14806 5.05274,-0.11267 6.98437,-0.63672 z m 20.45508,1.41016 c 5.91911,16.87729 0.77926,34.73806 -17.73438,45.08203 0.76219,-16.17246 7.5493,-31.63425 17.73438,-45.08203 z m 16.86133,1.47851 c 10.15971,2.65934 21.72516,3.89772 33.73242,3.90625 0.0903,4.56884 0.3099,9.40039 1.24609,14.06446 -10.22839,-2.67557 -21.65259,-3.91889 -34.13281,-3.69922 0.51786,-4.82897 -0.31153,-10.30564 -0.8457,-14.27149 z m 75.33594,2.4961 -10.81836,12.65039 0.45507,-6.90821 c 3.64387,0.464 4.941,-1.45695 4.4043,-5.2539 1.98765,0.24597 3.97134,-0.10261 5.95899,-0.48828 z m -105.12696,0.70117 -0.85547,5.05078 c -2.15916,0.0585 -4.27824,0.8255 -4.25,5.64648 l -6.45312,-0.0781 z m 119.06641,0.93164 c 1.17009,0 2.11523,0.94904 2.11523,2.11914 0,1.17009 -0.94514,2.12109 -2.11523,2.12109 -1.17008,0 -2.11914,-0.951 -2.11914,-2.12109 0,-1.1701 0.94906,-2.11914 2.11914,-2.11914 z m -128.88086,0.64258 c 1.17009,0 2.12109,0.94905 2.12109,2.11914 0,1.1701 -0.951,2.11523 -2.12109,2.11523 -1.17009,0 -2.11914,-0.94513 -2.11914,-2.11523 0,-1.17009 0.94905,-2.11914 2.11914,-2.11914 z m 124.15234,2.17382 -1.1289,7.6504 c -2.94764,-0.2591 -5.40914,0.19358 -4.65235,5.3789 -2.49414,-0.24382 -5.95648,0.34637 -8.27734,0.54688 z m -10.5625,1.38477 c 1.17009,0 2.1211,0.951 2.1211,2.12109 0,1.17009 -0.95101,2.11524 -2.1211,2.11524 -1.17009,0 -2.12109,-0.94515 -2.12109,-2.11524 0,-1.17009 0.951,-2.12109 2.12109,-2.12109 z m -129.12304,1.64258 c 1.17009,0 2.12109,0.951 2.12109,2.12109 0,1.17009 -0.951,2.11524 -2.12109,2.11524 -1.17009,0 -2.11524,-0.94515 -2.11524,-2.11524 0,-1.17009 0.94515,-2.12109 2.11524,-2.12109 z m 7.02734,2.50781 c 2.70625,0.60736 1.45472,6.91536 0.8457,8.63086 -0.0463,0.0463 7.55131,-3.98052 8.00391,-2.20312 0.2968,3.5632 -6.28906,6.04687 -6.28906,6.04687 0,0 4.43864,3.85591 4.56445,6.2793 0.0108,1.56791 -1.8558,1.27618 -4.2793,-0.71094 -1.03585,-1.01763 -1.83802,-1.77909 -2.55078,-2.48633 0.83245,-0.71928 1.35742,-1.78479 1.35742,-2.9707 0,-2.16528 -1.75657,-3.92188 -3.92187,-3.92188 -1.19587,0 -2.2649,0.53641 -2.98438,1.38086 -0.56205,-0.54129 -1.19811,-1.17271 -2.05273,-1.98047 -1.39993,-1.30904 -2.38364,-2.34904 -2.24219,-2.82031 1.84714,-1.30046 5.52169,2.19373 5.84961,2.51172 -0.27525,-0.68118 1.75606,-7.39355 3.69922,-7.75586 z m 111.66797,4.92578 c 1.2874,-0.0178 1.20663,2.9118 0.74804,4.4336 -0.31358,1.16029 -0.62304,2.11132 -0.62304,2.11132 0,0 1.08635,-0.84739 1.5664,-1.07226 3.50313,-1.64056 4.80711,0.21669 3.04102,2.37109 -0.84866,1.10817 -2.00542,1.35451 -2.94531,2.28516 1.33893,0.061 2.8767,0.35633 4.0332,1.03711 0.89939,0.53769 1.60525,1.18919 1.60352,1.59375 -0.004,0.90563 -2.22805,1.39464 -4.3086,1.16015 -0.88513,0.0193 -2.55078,-0.45507 -2.55078,-0.45507 0,0 0.69181,1.16205 0.94336,1.85546 0.77673,2.15542 0.5035,4.68023 -0.61914,4.67579 -1.87884,-0.50225 -2.7965,-2.59182 -3.53125,-4.0918 -0.60311,1.67188 -1.18607,3.46222 -2.5293,4.70508 -1.33189,1.23237 -2.01581,0.20886 -1.94726,-1.87891 0.0273,-0.83052 0.63672,-3.30859 0.63672,-3.30859 -7.89097,2.66398 -7.30481,-0.93935 -1.14649,-4.09571 -3.7932,-1.80889 -6.09675,-3.43774 0.35547,-3.80664 -0.1708,-0.15451 -1.29742,-3.61063 -0.0918,-4.41992 1.12027,-0.75199 3.50843,1.83164 3.62305,1.95703 -0.0483,-0.25531 0.62758,-2.27879 1.76172,-3.67578 0.86943,-0.98413 1.51482,-1.37441 1.98047,-1.38086 z M 304.02734,539.125 c 1.40742,0 2.55079,1.14346 2.55078,2.55078 0,0.80906 -0.37838,1.52817 -0.96679,1.99414 -1.64242,-1.63783 -2.48348,-2.49577 -3.58399,-3.57422 0.46717,-0.59112 1.18887,-0.9707 2,-0.9707 z m 141.19727,0.1582 c -1.37431,0.12519 -2.2276,1.34288 -2.86328,2.40625 -0.12888,0.21561 -0.36658,0.29326 -0.45508,0.57813 -0.56955,1.83333 -1.06665,4.02981 -1.37109,6.76367 0.87072,0.35789 2.83462,0.96149 3.70312,0.63672 0.24442,-0.10227 0.16734,-0.73524 0.25,-0.94336 1.36999,-3.44954 2.04854,-6.02852 2.04883,-7.61328 0,-1.27771 -0.44114,-1.90749 -1.3125,-1.82813 z m -0.1875,0.42969 c 0.27182,0.0405 0.50899,0.22673 0.67383,0.62695 0.34452,0.83653 -0.76217,1.74587 -2.19532,1.74024 -0.85246,-0.003 -1.12944,0.11602 -0.75,-0.62305 0.33882,-0.67411 1.45601,-1.86567 2.27149,-1.74414 z m -18.55273,0.0352 c 1.17009,0 2.12109,0.95114 2.12109,2.12109 0,1.1701 -0.95117,2.11522 -2.12109,2.11524 -1.17012,0 -2.11915,-0.94514 -2.11915,-2.11524 0,-1.17009 0.94903,-2.12109 2.11915,-2.12109 z m -111.76758,0.15039 c 1.17009,0 2.11914,0.94513 2.11914,2.11523 0,1.17004 -0.94905,2.1211 -2.11914,2.1211 -1.17009,0 -2.11719,-0.95115 -2.11719,-2.1211 0,-1.1701 0.9471,-2.11523 2.11719,-2.11523 z m 100.23828,0.85937 c -2.1653,0 -3.92188,1.75656 -3.92188,3.92188 0,2.16531 1.75658,3.92187 3.92188,3.92187 2.1653,0 3.92187,-1.75656 3.92187,-3.92187 0,-2.16532 -1.75657,-3.92188 -3.92187,-3.92188 z m -52.41406,0.52735 c -1.03108,4.51896 -2.6169,8.83906 -4.6211,13.11328 -3.78083,0.22786 -7.86883,0.40422 -10.56445,0.78711 4.48921,-7.86261 4.59796,-9.71178 6.25976,-13.87696 z m 6.49609,0.63672 c 1.06179,0.12543 2.22638,0.28639 3.27539,0.48828 -1.92973,6.79257 -4.48076,13.76622 -7.77539,20.47851 l -1.99609,-0.30859 -0.94532,-1.16992 3.16797,-1.26563 -2.46875,-2.51953 4.0918,-1.23633 -2.51758,-2.48437 4.04297,-1.00782 -2.16406,-2.6289 3.62695,-1.41406 -2.30273,-2.97461 3.86328,-1.06446 z m 45.91797,0.20898 c 1.40744,0 2.55078,1.14138 2.55078,2.54883 0,1.40744 -1.14334,2.54492 -2.55078,2.54492 -1.40744,0 -2.54883,-1.13747 -2.54883,-2.54492 0,-1.40745 1.14139,-2.54883 2.54883,-2.54883 z m -41.91797,0.38476 1.34766,0.21876 -0.41602,1.44335 1.53711,0.32813 0.49609,-1.56055 c 0,0 1.2356,0.11433 1.36719,0.21289 -1.60884,6.55721 -7.29829,20.28179 -7.37109,20.20899 l -1.46289,-0.2168 0.38672,-1.38672 -1.36133,-0.19336 v -0.0137 l -0.65821,1.50586 -1.45312,-0.12109 c 3.52226,-8.03778 5.92036,-14.20838 7.58789,-20.42579 z m 71.58789,0.52149 c 1.0802,-0.005 1.01525,0.55296 0.23242,2.58984 -0.7356,1.91375 -1.01006,2.67996 -1.36719,2.92774 -0.85139,0.60416 -2.68567,0.0975 -2.53711,-0.78321 0.4824,-2.85937 0.65463,-4.07856 1.39258,-4.46679 0.76892,-0.15153 1.51656,-0.26421 2.2793,-0.26758 z m -66.16797,0.23828 3.51563,0.67969 -2.94141,1.74804 1.86914,2.1836 -3.61328,1.54101 2.19336,2.26954 -3.48828,1.42578 2.12109,2.49609 -3.61719,1.52734 2.46289,2.13477 -4.0664,1.28516 1.54101,2.36523 -1.53125,0.85547 -1.88867,-0.29492 c 3.13472,-7.31284 5.14984,-13.3271 7.44336,-20.2168 z m 8.64063,1.74805 6.88672,1.87304 1.37695,2.45899 -3.23242,10.91015 -9.17579,-2.69531 z m -13.68946,1.05273 -0.65625,1.79102 1.51758,0.31445 0.58399,-1.8457 z m -1.33203,4.11524 -0.65625,1.79101 1.42383,0.28125 0.67187,-1.8125 z m -1.34375,3.61718 -0.66992,1.78321 1.38477,0.2832 0.66211,-1.78711 z m 64.71094,3.2793 c 0.002,1.1e-4 -0.70343,0.51063 -0.88867,0.73633 0.15323,0.40902 0.59757,1.03671 0.53125,1.44922 -0.0605,0.31027 -0.40607,0.56032 -0.92578,1.11328 -1.29657,1.5093 -1.75283,1.34488 -1,-0.26563 0.24767,-0.50622 0.35742,-0.97461 0.35742,-0.97461 -0.29989,0.41985 -0.52547,0.91634 -0.72852,1.31055 -0.4278,0.82356 -0.82812,1.60156 -0.82812,1.60156 0.82588,0.28506 1.37495,0.89881 1.9082,1.29688 0,0 0.27151,-0.72936 0.45898,-1.42774 0.26155,-0.97397 0.77722,-1.37406 1.41016,-1.70898 0.39914,-0.21168 0.78125,-0.59766 0.78125,-0.59766 -0.69654,-0.71039 -0.77582,-1.7261 -1.07617,-2.5332 z m -66.14453,0.43945 -0.71094,1.89844 1.38281,0.33789 0.76758,-1.9375 z m -77.92578,4.77149 c -0.12602,7.55839 0.12393,12.53614 -0.14063,20.6875 l 20.46485,26.52148 -3.19336,1.07227 c 0,0 -0.0341,0.36652 -0.20703,0.41406 -4.37303,1.20269 -11.4668,2.40039 -11.4668,2.40039 5.27552,12.04584 8.69793,27.10982 6.33789,42.15625 l 52.96484,-0.14062 z m 67.64062,1.55664 c 15.39821,0.12444 30.6685,4.0028 44.375,11.25391 l -1.82617,1.83007 c -26.93582,-14.57796 -64.03555,-14.5215 -91.10742,3.12891 l -2.20703,-1.61719 c 15.6971,-10.05658 33.31431,-14.73673 50.76562,-14.5957 z m -66.65039,1.0957 62.33984,89.55078 -7.32226,0.10743 -54.96484,-71.9043 z m 133.7832,1.61719 c 0,0 -1.79956,0.46858 -3.3125,0.95312 -4.33152,1.38709 -6.35893,3.8908 -5.96093,7.36914 0.11761,1.02761 0.38502,1.01296 2.15039,-0.10156 4.1309,-2.60753 4.38801,-2.72227 9.5332,-4.23047 0.39798,-0.11658 0.97656,-0.0293 0.97656,-0.0293 l -0.22851,4.0625 c -8.57652,-0.0323 -8.10742,6.78086 -5.64063,10.32226 -0.86354,1.6376 -2.75215,7.35448 3.46875,9.5293 3.10304,0.61798 6.38837,-1.90298 6.28711,-2.0332 5.72383,2.70711 12.36722,-1.83329 7.1875,-9.69532 1.9475,-3.42877 0.57408,-5.9736 -1.28515,-8.16211 0,0 0.31406,0.028 3.02343,0.52735 4.10973,0.75809 5.67969,0.62305 5.67969,0.62304 0.005,-3.69884 -3.05802,-5.35092 -9.44727,-5.85351 -4.5251,0.6384 -12.43164,-3.31312 -12.43164,-3.28125 z M 357.13672,567 c 0.30944,-0.002 0.6146,-0.003 0.92187,0.004 l -0.29882,6.31836 -6.95899,0.31835 -0.45508,-6.29296 c 2.39703,-0.16534 4.62505,-0.34019 6.79102,-0.34766 z m 8.3418,0.1543 7.46679,0.9082 -1.13086,5.90625 -6.87695,-0.73828 z m 60.4082,0.0664 c 0.76703,-0.0168 0.59857,0.78076 -0.30078,0.95703 -1.3424,0.26276 -4.78333,2.26689 -4.78516,2.78711 -0.002,0.33544 0.16942,0.28683 1.42969,-0.38672 0.62985,-0.33654 1.94315,-0.90959 2.91601,-1.27929 0.97298,-0.37002 2.08515,-0.81553 2.47266,-0.99024 1.15719,-0.52206 1.73151,-0.16087 1.31445,0.82618 -0.27565,0.65265 -0.38411,0.70335 -3.0664,1.55468 -2.42715,0.7698 -2.87408,0.96814 -4.41602,1.95508 -0.5751,0.36834 -1.59267,0.95708 -2.26367,1.30469 -1.58548,0.82093 -1.9085,0.82501 -1.9043,-0.2793 -0.0868,-3.27228 3.53236,-5.72775 8.4375,-6.43359 0.0597,-0.009 0.11477,-0.0139 0.16602,-0.0156 z m -64.4707,0.76758 c 0.93349,0 1.6914,0.75791 1.6914,1.69141 0,0.93376 -0.75791,1.6914 -1.6914,1.6914 -0.93365,0 -1.68946,-0.75764 -1.68946,-1.6914 0,-0.9335 0.75581,-1.69141 1.68946,-1.69141 z m -18.47461,0.44922 0.55664,5.73438 -6.84375,1.75781 -1.56641,-5.92188 c 2.61832,-0.64143 5.23521,-1.0927 7.85352,-1.57031 z m 88.16601,0.43555 c 1.8761,0.28552 1.72679,4.58299 0.76758,5.32812 -1.47659,1.06329 -2.38357,-1.16163 -1.72461,-4.11133 0.18551,-0.88705 0.52835,-1.19649 0.95703,-1.21679 z m -84.2832,0.23242 c 0.93364,0 1.69141,0.7561 1.6914,1.68945 0,0.93393 -0.75776,1.69141 -1.6914,1.69141 -0.93345,0 -1.68945,-0.75748 -1.68945,-1.69141 0,-0.93335 0.756,-1.68945 1.68945,-1.68945 z m 33.43359,0.49219 7.73828,2.11132 -1.89453,5.98829 -7.25976,-2.04297 z m -4.21093,0.11523 c 0.93365,0 1.68945,0.75775 1.68945,1.69141 0,0.9336 -0.75582,1.68945 -1.68945,1.68945 -0.9335,0 -1.69141,-0.75585 -1.69141,-1.68945 0,-0.93366 0.75792,-1.69141 1.69141,-1.69141 z m 63.29492,0.50195 c 3.33341,0.0349 7.73022,1.70783 7.73828,4.28516 -0.0678,0.73234 -6.98419,-0.23923 -10.17774,-1.52539 -1.13309,-0.45623 -2.51411,-1.84592 -2.51172,-2.42578 0.002,-0.3447 0.67581,-0.31888 0.95118,0.0156 0.44942,0.54629 2.04339,1.11565 5.70117,2.03711 2.80961,0.70767 3.08817,0.73491 3.08984,0.3086 0.002,-0.38809 -1.65805,-0.92209 -3.45703,-1.22071 -0.90467,-0.14803 -1.75005,-0.42118 -3.14062,-0.54101 -0.64834,-0.002 -0.80633,-0.40891 -0.26563,-0.68555 0.58896,-0.175 1.30304,-0.25414 2.07227,-0.24609 z m -5.88672,1.33399 c 0.84077,0.3944 1.14348,1.17994 1.60742,1.59375 -0.57672,0.27327 -0.83413,0.54977 -1.76758,0.61914 0.0171,-0.61676 -0.15058,-1.35382 0.16016,-2.21289 z m -101.32813,0.46289 c 0.93349,0 1.69141,0.75791 1.69141,1.6914 0,0.93364 -0.75792,1.68946 -1.69141,1.68946 -0.93365,0 -1.68945,-0.75579 -1.68945,-1.68946 0,-0.93349 0.7558,-1.6914 1.68945,-1.6914 z m -4.54883,0.47851 1.82618,5.85352 -6.54102,2.8457 -2.31836,-5.80078 c 2.26072,-1.18848 4.73444,-2.05244 7.0332,-2.89844 z m 30.24024,0.95704 c 0,0 5.20928,0.007 7.00781,0.0293 l -0.41992,6.60742 -6.50195,0.0469 z m -6.96094,0.36132 0.36328,6.59766 -6.25976,0.8418 -1.23633,-6.63672 z m 39.57617,0.0586 c 0.93349,0 1.69141,0.75791 1.69141,1.6914 0,0.93365 -0.75792,1.68946 -1.69141,1.68946 -0.93365,0 -1.68945,-0.75581 -1.68945,-1.68946 0,-0.93349 0.7558,-1.6914 1.68945,-1.6914 z m 45.29102,0.15429 c 3.81135,0.0164 7.44579,4.40179 3.67969,8.99414 6.17707,4.75245 -0.53791,12.73952 -5.99805,8.08399 -7.80744,7.66854 -12.17038,-2.7443 -8.93945,-5.50586 -4.77146,-7.84044 1.08891,-12.7948 7.13672,-9.33594 1.11363,-1.57982 2.6297,-2.24274 4.12109,-2.23633 z m -63.79883,0.18946 6.86914,1.52539 -1.38281,6.52539 -6.70703,-1.36133 z m 22.73047,0.1582 6.27734,3.12109 -4.86718,4.6836 -3.61719,-1.80078 z m -40.25781,0.74024 c 0.93362,0 1.6914,0.75595 1.6914,1.68945 0,0.93364 -0.75778,1.6914 -1.6914,1.6914 -0.93361,0 -1.69141,-0.75776 -1.69141,-1.6914 0,-0.9335 0.7578,-1.68947 1.69141,-1.68945 z m 13.5664,0.21093 c 0.93363,0 1.69141,0.75792 1.69141,1.69141 0,0.93374 -0.75778,1.68945 -1.69141,1.68945 -2.48804,-0.38951 -1.81858,-3.32557 0,-3.38086 z m -31.27343,0.95313 1.53125,6.52344 -6.36133,2.15039 -2.27344,-6.35547 z m 4.37109,0.46289 c 0.93351,0 1.69141,0.7558 1.69141,1.68945 0,0.93349 -0.7579,1.69141 -1.69141,1.69141 -0.93363,0 -1.68945,-0.75792 -1.68945,-1.69141 0,-0.93365 0.75582,-1.68945 1.68945,-1.68945 z m 96.24219,0.75195 c -0.65196,0.0638 -1.93547,2.07611 -2.08203,2.25781 -0.47849,0.59457 -1.10743,1.29493 -1.10743,1.29493 -1.58254,-0.65254 -3.11617,-0.39358 -4.14257,0.31054 0,0 -1.0918,-0.86859 -2.08789,-1.67383 -1.72615,-1.39451 -2.30064,-1.71407 -2.30274,-1.13085 0,0.12094 0.58555,0.71759 1.29883,1.32812 1.94638,1.6654 2.34375,2.26562 2.34375,2.26562 -0.46775,1.51123 -0.46208,2.69617 0.43164,3.9668 0,0 0.0371,0.16559 -0.64648,0.88672 -1.2401,1.30797 -2.51903,3.32805 -2.22461,3.625 0.36598,0.36879 1.40268,-0.51662 2.70312,-2.27344 0.92663,-1.25242 1.20508,-1.27929 1.20508,-1.27929 1.58097,0.42661 2.45675,0.81232 4.03711,-0.49219 0,0 0.59614,0.18114 1.78711,1.16406 1.8559,1.532 2.52298,1.863 2.72461,1.34375 0.16433,-0.4235 -0.0804,-0.70837 -1.65235,-1.9043 -1.02363,-0.77879 -2.16211,-1.68945 -2.16211,-1.68945 0.33443,-0.54904 0.5722,-2.5009 -0.57226,-3.83594 0,0 0.0442,0.0879 1.73633,-2.10546 1.12613,-1.45891 1.32247,-1.6424 0.94922,-1.95508 -0.0622,-0.0814 -0.1432,-0.11263 -0.23633,-0.10352 z m -51.14063,0.38867 6.19727,2.60157 -2.2168,6.47851 -5.98437,-2.44531 z m -68.18359,0.4336 c 0.93364,0 1.69141,0.75795 1.69141,1.6914 0,0.93382 -0.75777,1.68946 -1.69141,1.68946 -0.93342,0 -1.68945,-0.75564 -1.68945,-1.68946 0,-0.93345 0.75601,-1.6914 1.68945,-1.6914 z m 63.39258,0.17383 c 0.93354,0 1.6914,0.7579 1.6914,1.6914 0,0.93364 -0.75784,1.68945 -1.6914,1.68945 -0.93365,0 -1.68946,-0.75581 -1.68946,-1.68945 0,-0.9335 0.75581,-1.69142 1.68946,-1.6914 z m -67.71875,0.46484 2.02734,5.02148 -4.61133,-3.4375 z m 50.85351,1.29297 6.17188,0.73047 -0.97461,5.88281 -5.32227,-0.48438 z m -6.73828,0.0156 -0.0625,6.04688 -5.86328,0.25 -0.49805,-6.03711 z m -30.16797,1.10157 c 0.93339,0 1.69141,0.75594 1.69141,1.68945 0,0.93373 -0.75802,1.6914 -1.69141,1.6914 -0.93364,0 -1.68945,-0.75767 -1.68945,-1.6914 0,-0.93351 0.75581,-1.68947 1.68945,-1.68945 z m -4.67383,0.11914 2.38477,6.07617 -3.69922,1.78711 -4.96094,-4.69336 z m 22.06641,0.0781 0.95703,5.78125 -6.11523,1.51172 -1.48242,-5.88281 z m 87.39844,0.0586 c 1.33087,0 2.41015,1.07935 2.41015,2.41016 0,1.33096 -1.07928,2.41016 -2.41015,2.41016 -1.33087,0 -2.41016,-1.07918 -2.41016,-2.41016 0,-1.33081 1.07929,-2.41016 2.41016,-2.41016 z m -71.54688,0.1836 c 0.93351,0 1.69141,0.75583 1.69141,1.68945 0,0.93361 -0.7579,1.69141 -1.69141,1.69141 -0.93363,0 -1.68945,-0.7578 -1.68945,-1.69141 0,-0.93362 0.75582,-1.68945 1.68945,-1.68945 z m 16.6543,0.62305 6.51953,2.10937 -2.19141,5.2207 -5.63281,-1.52539 z m -28.89648,0.21679 c 0.93362,0 1.68945,0.75583 1.68945,1.68945 0,0.93363 -0.75583,1.69141 -1.68945,1.69141 -0.93362,0 -1.69141,-0.75778 -1.69141,-1.69141 0,-0.93362 0.75779,-1.68945 1.69141,-1.68945 z m 24.79101,0.62305 c 0.93349,0 1.68945,0.75594 1.68945,1.68945 0,0.93374 -0.75596,1.69141 -1.68945,1.69141 -0.93365,0 -1.69139,-0.75767 -1.69141,-1.69141 0,-0.93351 0.75776,-1.68945 1.69141,-1.68945 z m -41.40234,1.98047 2.24609,5.16797 -6.13476,2.65039 -2.66993,-5.26953 z m 4.34765,0.30859 c 0.9335,0 1.68946,0.75804 1.68946,1.69141 0,0.93389 -0.75596,1.68945 -1.68946,1.68945 -0.93364,0 -1.6914,-0.75556 -1.6914,-1.68945 0,-0.93337 0.75776,-1.69141 1.6914,-1.69141 z m 22.59961,1.56055 c 10.07016,-0.0209 19.15947,2.08463 26.45703,5.10547 l -2.17382,2.03711 c -23.66964,-8.13374 -39.1476,-4.46934 -55.02149,2.49218 l -1.60351,-1.98047 c 11.21992,-5.48833 22.27164,-7.63339 32.34179,-7.65429 z m 26.77539,0.0625 c 0.93364,0 1.69141,0.75594 1.69141,1.68945 0,0.93363 -0.75777,1.69141 -1.69141,1.69141 -0.93359,0 -1.68945,-0.75778 -1.68945,-1.69141 0,-0.93351 0.75586,-1.68945 1.68945,-1.68945 z m -61.68164,3.70898 c 1.35809,0.0801 1.4885,2.61542 0.85547,1.88477 l -1.51367,-1.75 c 0.24549,-0.10521 0.46419,-0.14621 0.6582,-0.13477 z m 63.27539,1.04883 c -0.0498,1.92166 -1.86922,14.80122 -8.01171,23.65625 -0.37282,-4.47889 -1.45445,-9.83415 -2.66211,-13.4082 0,0 6.60933,-6.10621 10.67382,-10.24805 z m -78.57617,19.51758 31.96289,43.10156 -3.35547,-0.0234 c -0.70144,-3.16495 -1.7179,-6.40345 -3.71093,-8.82422 -1.61829,-1.96559 -3.06646,-3.447 -5.96875,-4.76757 -1.74646,-0.79385 -1.9717,-0.6259 -2.08204,-1.9668 -0.52719,-7.53858 -6.63153,-12.27964 -11.30664,-14.08398 -0.4512,-4.55662 -2.50722,-9.03823 -7.66406,-12.8125 z m -3.11328,1.03125 c 2.92049,2.00726 6.12111,3.74899 7.8457,11.66211 0.12966,1.65464 0.23148,1.47802 1.53125,1.96484 5.09418,1.49321 9.52513,7.6164 9.91993,12.96875 -0.004,1.6143 0.52248,1.75775 2.51171,2.59375 2.44281,1.02589 4.9787,3.19593 6.41407,5.33203 2.13511,3.07103 2.88918,7.72093 2.70508,7.5 l -1.75782,0.01 c -1.25417,-7.88507 -6.21551,-11.02865 -11.46289,-12.50195 0.40856,-11.1318 -8.24668,-14.60623 -11.26953,-15.12891 0.1776,-8.01794 -5.00956,-11.32486 -8.35742,-14.01563 0.62431,-0.24536 1.91992,-0.38476 1.91992,-0.38476 z m -5.16992,1.10547 c 2.61447,0.85447 4.59567,4.49899 4.39453,6.17578 3.44861,0.43455 7.07258,3.76788 6.27734,7.24023 -0.2551,0.14711 -0.65792,0.17606 -1.05664,-0.22265 0.92412,-6.73638 -9.13368,-3.4012 -5.11523,1.47265 l -1.79688,1.17383 c -1.44514,-6.74162 -3.22329,-10.56189 -5.15429,-15.43164 0.70436,-0.18599 2.45117,-0.4082 2.45117,-0.4082 z m 8.32617,14.125 c 0.89318,0 1.61328,0.72597 1.61328,1.61914 0,0.8932 -0.7201,1.61719 -1.61328,1.61719 -0.89318,0 -1.61914,-0.72398 -1.61914,-1.61719 0,-0.89317 0.72596,-1.61914 1.61914,-1.61914 z m 4.2207,0.79883 c 2.67918,-0.0297 4.62873,4.58115 4.41211,6.47265 3.84003,1.08634 5.08349,4.97241 4.95703,6.38672 l -0.83984,-0.0176 c -1.3501,-6.15881 -8.36979,-2.80799 -5.43945,2.10352 -3.75238,1.38682 -3.4564,4.84936 -2.35156,6.21875 1.52508,1.89029 5.41437,1.83108 6.5996,-1.07813 3.64821,4.71906 8.68095,-0.57603 4.24024,-4.97461 3.63682,1.33958 4.22048,6.21252 3.67383,7.73438 1.68816,0.57577 3.63298,3.25357 3.37304,3.23828 l -27.25,0.006 c 0,0 1.31914,-10.99548 -0.082,-19.29492 1.81306,0.43616 3.02727,0.8728 5.11328,-1.57617 3.37581,2.79513 5.80215,0.68621 5.62696,-1.72852 -0.25942,-1.68878 -1.13098,-2.52799 -2.57813,-3.41992 0.18467,-0.0454 0.36631,-0.0683 0.54492,-0.0703 z m 7.45313,14.21875 c 0.92026,0 1.66601,0.74772 1.66601,1.66796 0,0.92025 -0.74572,1.66602 -1.66601,1.66602 -0.92022,0 -1.66602,-0.74577 -1.66602,-1.66602 0,-0.92024 0.7458,-1.66796 1.66602,-1.66796 z"
         style="fill:#000000;fill-opacity:1;stroke:none;stroke-width:0.1545569"
         id="path3090" />
    </g>
  </g>
</svg>
